<svg width="59" height="125" viewBox="0 0 59 125" fill="none" xmlns="http://www.w3.org/2000/svg">
<path d="M47.3232 96.2569C37.6021 90.644 21.8394 90.6434 12.1165 96.2557C7.25419 99.0628 4.84277 102.741 4.84985 106.419C4.85162 107.123 4.8528 109.915 4.84985 110.614C4.83629 114.297 7.24653 117.98 12.1142 120.79C21.8359 126.403 37.5985 126.404 47.3208 120.791C52.1897 117.981 54.6005 114.297 54.5869 110.612C54.584 109.914 54.5857 107.122 54.5869 106.419C54.594 102.741 52.1843 99.0633 47.3232 96.2569Z" fill="#363F49"/>
<path opacity="0.2" d="M47.3232 96.2569C37.6021 90.644 21.8394 90.6434 12.1165 96.2557C7.25419 99.0628 4.84277 102.741 4.84985 106.419C4.85162 107.123 4.8528 109.915 4.84985 110.614C4.83629 114.297 7.24653 117.98 12.1142 120.79C21.8359 126.403 37.5985 126.404 47.3208 120.791C52.1897 117.981 54.6005 114.297 54.5869 110.612C54.584 109.914 54.5857 107.122 54.5869 106.419C54.594 102.741 52.1843 99.0633 47.3232 96.2569Z" fill="black"/>
<path opacity="0.2" d="M18.2197 93.6699C16.0235 94.3303 13.9605 95.191 12.1163 96.2553C7.25395 99.0623 4.84253 102.74 4.84961 106.419C4.85137 107.123 4.85255 109.915 4.84961 110.614C4.83604 114.297 7.24628 117.98 12.1139 120.79C13.9587 121.855 16.0223 122.715 18.2191 123.376L18.2197 93.6699Z" fill="black"/>
<path d="M12.1163 96.2557C21.8398 90.6434 37.6018 90.644 47.3229 96.2569C57.0441 101.87 57.0429 110.97 47.3212 116.582C37.5989 122.195 21.8362 122.195 12.1145 116.582C2.39219 110.968 2.39336 101.868 12.1163 96.2557Z" fill="#363F49"/>
<path opacity="0.4" d="M12.1163 96.2557C21.8398 90.6434 37.6018 90.644 47.3229 96.2569C57.0441 101.87 57.0429 110.97 47.3212 116.582C37.5989 122.195 21.8362 122.195 12.1145 116.582C2.39219 110.968 2.39336 101.868 12.1163 96.2557Z" fill="black"/>
<path d="M29.7001 86.5498C5.9026 86.5498 2.81964 96.7851 2.81964 102.07C2.81964 107.353 6.03526 111.739 12.6652 115.568H12.7017C17.228 118.181 23.2719 119.62 29.7178 119.62C36.1644 119.62 42.2083 118.181 46.7345 115.568C53.3644 111.739 56.5807 107.354 56.5807 102.07C56.5812 96.7851 53.4977 86.5498 29.7001 86.5498Z" fill="#363F49"/>
<path opacity="0.1" d="M38.5858 107.998C38.4372 108.019 38.2904 108.04 38.1448 108.059C36.3713 108.299 33.1174 108.096 31.6823 109.48C29.2621 111.814 32.598 113.828 34.6875 114.48C38.0151 115.519 42.0774 115.004 45.1921 113.519C47.814 112.268 50.5845 110.22 52.0797 107.662C52.7247 106.559 53.9493 103.331 52.3268 102.583C51.3156 102.117 50.5138 102.545 49.752 103.222C48.9449 103.938 48.1242 104.406 47.228 104.999C46.4273 105.529 45.6408 105.99 44.7659 106.398C42.934 107.251 40.627 107.705 38.5858 107.998Z" fill="white"/>
<path opacity="0.1" d="M26.8076 104.924C40.8463 106.187 50.6948 100.587 54.1551 94.5753C51.068 90.3874 44.2701 86.5498 29.7001 86.5498C5.9026 86.5498 2.81964 96.7851 2.81964 102.07C2.81964 107.353 6.03526 111.739 12.6652 115.568H12.7017C17.228 118.181 23.2719 119.62 29.7178 119.62C36.1644 119.62 42.2083 118.181 46.7345 115.568C48.2704 114.681 49.6153 113.762 50.7874 112.811C45.7782 116.294 37.4998 118.882 26.807 117.328C16.1072 115.772 12.1617 103.605 26.8076 104.924Z" fill="black"/>
<path opacity="0.1" d="M18.2426 100.554L16.9391 87.8457C4.71041 90.7665 2.82019 97.9341 2.82019 102.07C2.82019 107.353 6.0358 111.739 12.6657 115.568H12.7023C12.9104 115.687 13.1368 115.792 13.3508 115.907C6.00102 111.167 10.5314 98.3062 18.2426 100.554Z" fill="black"/>
<path d="M47.7722 72.8966C37.8029 67.1404 21.6381 67.1398 11.667 72.8954C6.68028 75.7738 4.20813 79.5454 4.21521 83.3176C4.21639 84.0392 4.21757 88.2495 4.21521 88.9664C4.20106 92.7433 6.6732 96.5202 11.6652 99.4027C21.6352 105.159 37.7999 105.159 47.7704 99.4039C52.7637 96.5214 55.2358 92.7427 55.2217 88.9652C55.2193 88.2489 55.2205 84.0398 55.2217 83.3181C55.2287 79.546 52.7572 75.775 47.7722 72.8966Z" fill="#363F49"/>
<path opacity="0.3" d="M47.7722 72.8966C37.8029 67.1404 21.6381 67.1398 11.667 72.8954C6.68028 75.7738 4.20813 79.5454 4.21521 83.3176C4.21639 84.0392 4.21757 88.2495 4.21521 88.9664C4.20106 92.7433 6.6732 96.5202 11.6652 99.4027C21.6352 105.159 37.7999 105.159 47.7704 99.4039C52.7637 96.5214 55.2358 92.7427 55.2217 88.9652C55.2193 88.2489 55.2205 84.0398 55.2217 83.3181C55.2287 79.546 52.7572 75.775 47.7722 72.8966Z" fill="white"/>
<path d="M11.6654 99.4031C13.3486 100.375 15.2194 101.168 17.1963 101.812V70.4873C15.22 71.1311 13.3504 71.9241 11.6671 72.8958C6.68039 75.7741 4.20825 79.5457 4.21533 83.3179C4.21651 84.0396 4.21827 88.2498 4.21533 88.9668C4.20177 92.7437 6.67332 96.5206 11.6654 99.4031Z" fill="#363F49"/>
<path d="M11.6671 72.8949C21.6388 67.1388 37.8029 67.1394 47.7717 72.8955C57.7405 78.6517 57.7399 87.9843 47.7699 93.7398C37.8 99.4954 21.6353 99.4954 11.6647 93.7387C1.69538 87.9831 1.69597 78.6505 11.6671 72.8949Z" fill="#363F49"/>
<path opacity="0.6" d="M11.6671 72.8949C21.6388 67.1388 37.8029 67.1394 47.7717 72.8955C57.7405 78.6517 57.7399 87.9843 47.7699 93.7398C37.8 99.4954 21.6353 99.4954 11.6647 93.7387C1.69538 87.9831 1.69597 78.6505 11.6671 72.8949Z" fill="white"/>
<path d="M54.3302 57.7832C54.3302 57.7979 54.3154 57.8262 54.3154 57.841C44.2288 77.9412 51.0645 82.0023 51.5986 82.3054C51.6134 82.3195 51.6275 82.3195 51.6275 82.3195C51.6275 85.5563 49.4743 88.8079 45.1827 91.2789C43.2318 92.4062 41.0061 93.2729 38.6365 93.8943C38.0729 94.0387 37.4951 94.1691 36.9173 94.2846C32.8857 95.0941 28.5357 95.2097 24.4174 94.6313C24.201 94.6024 23.9841 94.5735 23.7671 94.5299C20.2266 93.9662 16.889 92.8826 14.1144 91.2783C11.9759 90.0354 10.3569 88.6198 9.288 87.0875C8.21848 85.5558 7.68432 83.9373 7.68432 82.3189C7.68432 82.3189 7.68432 82.3189 7.68432 82.3048C7.68432 76.6259 13.2766 67.2473 13.5796 62.4498C13.5796 62.4498 13.5507 62.4498 13.5077 62.435C13.0596 62.3195 10.7331 61.7559 8.56516 62.1173C8.52212 62.1173 8.47908 62.1173 8.43545 62.132C8.43545 62.132 1.13812 57.739 0.81974 57.5656C-0.625341 56.7567 -0.119474 53.3896 2.01896 48.0574C4.63497 41.5978 5.37195 33.2746 5.92086 28.0001C6.4845 22.7109 9.46133 17.0326 11.6864 13.0152C13.9263 8.99772 13.1752 5.7031 14.4899 1.97513C15.7906 -1.75284 17.8282 0.53005 19.8799 2.82767C21.9317 5.1253 21.9317 5.1253 21.9317 5.1253C21.9317 5.1253 31.6422 2.33655 38.2032 6.20896C39.1424 6.77261 45.7753 10.6309 48.6796 12.3071C48.7085 12.3212 48.7373 12.3507 48.781 12.3649C49.0121 12.5093 49.2579 12.6538 49.4891 12.8129C49.6624 12.9285 49.8358 13.0441 49.9949 13.1885C50.1683 13.3188 50.3416 13.4633 50.5002 13.6077C50.6158 13.6944 50.7461 13.7958 50.8469 13.9114C51.0639 14.1136 51.2802 14.3305 51.4825 14.5469C57.6242 21.4262 62.8698 34.33 54.3302 57.7832Z" fill="#E0E0E0"/>
<path d="M54.3302 57.7832C54.3302 57.7979 54.3154 57.8262 54.3154 57.841C44.2288 77.9412 51.0645 82.0023 51.5986 82.3054C51.6134 82.3195 51.6275 82.3195 51.6275 82.3195C51.6275 85.5563 49.4743 88.8079 45.1827 91.2789C43.2318 92.4062 41.0061 93.2729 38.6365 93.8943C38.0729 94.0387 37.4951 94.1691 36.9173 94.2846C32.8857 95.0941 28.5357 95.2097 24.4174 94.6313C24.201 94.6024 23.9841 94.5735 23.7671 94.5299C20.2266 93.9662 16.889 92.8826 14.1144 91.2783C11.9759 90.0354 10.3569 88.6198 9.288 87.0875C8.21848 85.5558 7.68432 83.9373 7.68432 82.3189C7.68432 82.3189 7.68432 82.3189 7.68432 82.3048C7.68432 76.6259 13.2766 67.2473 13.5796 62.4498C13.5796 62.4498 13.5507 62.4498 13.5077 62.435C13.0596 62.3195 10.7331 61.7559 8.56516 62.1173C8.52212 62.1173 8.47908 62.1173 8.43545 62.132C8.43545 62.132 1.13812 57.739 0.81974 57.5656C-0.625341 56.7567 -0.119474 53.3896 2.01896 48.0574C4.63497 41.5978 5.37195 33.2746 5.92086 28.0001C6.4845 22.7109 9.46133 17.0326 11.6864 13.0152C13.9263 8.99772 13.1752 5.7031 14.4899 1.97513C15.7906 -1.75284 17.8282 0.53005 19.8799 2.82767C21.9317 5.1253 21.9317 5.1253 21.9317 5.1253C21.9317 5.1253 31.6422 2.33655 38.2032 6.20896C39.1424 6.77261 45.7753 10.6309 48.6796 12.3071C48.7085 12.3212 48.7373 12.3507 48.781 12.3649C49.0121 12.5093 49.2579 12.6538 49.4891 12.8129C49.6624 12.9285 49.8358 13.0441 49.9949 13.1885C50.1683 13.3188 50.3416 13.4633 50.5002 13.6077C50.6158 13.6944 50.7461 13.7958 50.8469 13.9114C51.0639 14.1136 51.2802 14.3305 51.4825 14.5469C57.6242 21.4262 62.8698 34.33 54.3302 57.7832Z" fill="#363F49"/>
<path opacity="0.1" d="M33.8608 37.6084C37.2857 43.3451 35.4503 48.0701 27.5894 64.2548C24.3814 70.8299 19.5981 81.2774 23.76 94.5432C20.2195 93.9795 16.8813 92.8959 14.1067 91.2916C11.9682 90.0487 10.3645 88.6184 9.28029 87.0866C8.21078 85.569 7.67603 83.9365 7.67603 82.3181C7.67603 76.6244 13.2683 67.2464 13.5719 62.4489C15.1467 62.4489 16.6059 62.2903 17.6902 61.0905C19.5545 59.024 22.8921 51.8859 22.8921 51.8859C30.1476 47.1886 32.0549 42.8681 33.8608 37.6084Z" fill="black"/>
<path opacity="0.1" d="M22.8933 51.8853C22.8933 51.8853 19.5551 59.0234 17.6914 61.0899C16.6077 62.2891 15.1479 62.4483 13.5731 62.4483C13.5077 63.4807 13.1964 64.7253 12.7501 66.0991C15.6827 65.7559 18.4797 64.8143 20.3675 62.6287C22.4181 60.2539 22.9753 56.8378 25.1226 54.5496C25.9309 53.6882 26.9267 53.0303 27.8423 52.285C31.9347 48.9538 34.3249 43.6859 34.3113 38.4232C34.1722 38.1532 34.0248 37.882 33.8614 37.6084C32.055 42.8681 30.1476 47.1886 22.8933 51.8853Z" fill="black"/>
<path d="M54.3302 57.7834C54.3302 57.7981 54.3154 57.8264 54.3154 57.8412C46.9745 78.0575 51.2083 81.9878 51.5986 82.3055C51.6134 82.3197 51.6275 82.3197 51.6275 82.3197C51.6275 85.5565 49.4743 88.8081 45.1827 91.2791C43.2318 92.4064 41.0061 93.273 38.6365 93.8945C38.0729 94.0389 37.4951 94.1692 36.9173 94.2848C32.8998 95.0943 28.5357 95.224 24.4174 94.6315C24.201 94.6167 23.9841 94.5737 23.7671 94.5448V94.5301C19.6058 81.2643 24.3744 70.8168 27.5823 64.2565C35.4575 48.0723 37.2928 43.332 33.8679 37.61C32.0473 42.8703 30.1541 47.1908 22.9004 51.8869C22.9004 51.8869 19.5474 59.0256 17.6837 61.0916C16.6001 62.2914 15.1408 62.45 13.5507 62.4352H13.5077C12.3951 62.4352 11.2242 62.3486 10.0686 62.5078C9.56274 62.5803 9.17244 62.5225 8.86939 62.3486C8.75383 62.2908 8.65242 62.2189 8.56575 62.1175C7.48209 61.0049 8.07462 57.7681 10.0686 52.8403C12.6551 46.3666 16.0075 39.4879 16.5712 34.1993C17.1207 28.9107 20.0969 23.2317 22.3368 19.2143C24.5619 15.1968 23.8255 11.9022 25.1261 8.17425C26.4267 4.44629 28.4785 6.74391 30.5161 9.0268C32.5679 11.3097 32.5679 11.3097 32.5679 11.3097C32.5679 11.3097 42.0473 8.62174 48.5935 12.2636C48.6224 12.2636 48.6513 12.2925 48.6802 12.3073C48.709 12.3214 48.7379 12.3509 48.7816 12.365C49.0127 12.5095 49.2585 12.6539 49.4897 12.8131C49.663 12.9287 49.8363 13.0442 49.9955 13.1887C50.1689 13.319 50.3422 13.4634 50.5008 13.6079C50.6164 13.6946 50.7467 13.796 50.8475 13.9115C51.0645 14.1138 51.2808 14.3307 51.4831 14.5471C57.6242 21.4264 62.8698 34.3302 54.3302 57.7834Z" fill="#363F49"/>
<path opacity="0.3" d="M54.3302 57.7834C54.3302 57.7981 54.3154 57.8264 54.3154 57.8412C46.9745 78.0575 51.2083 81.9878 51.5986 82.3055C51.6134 82.3197 51.6275 82.3197 51.6275 82.3197C51.6275 85.5565 49.4743 88.8081 45.1827 91.2791C43.2318 92.4064 41.0061 93.273 38.6365 93.8945C38.0729 94.0389 37.4951 94.1692 36.9173 94.2848C32.8998 95.0943 28.5357 95.224 24.4174 94.6315C24.201 94.6167 23.9841 94.5737 23.7671 94.5448V94.5301C19.6058 81.2643 24.3744 70.8168 27.5823 64.2565C35.4575 48.0723 37.2928 43.332 33.8679 37.61C32.0473 42.8703 30.1541 47.1908 22.9004 51.8869C22.9004 51.8869 19.5474 59.0256 17.6837 61.0916C16.6001 62.2914 15.1408 62.45 13.5507 62.4352H13.5077C12.3951 62.4352 11.2242 62.3486 10.0686 62.5078C9.56274 62.5803 9.17244 62.5225 8.86939 62.3486C8.75383 62.2908 8.65242 62.2189 8.56575 62.1175C7.48209 61.0049 8.07462 57.7681 10.0686 52.8403C12.6551 46.3666 16.0075 39.4879 16.5712 34.1993C17.1207 28.9107 20.0969 23.2317 22.3368 19.2143C24.5619 15.1968 23.8255 11.9022 25.1261 8.17425C26.4267 4.44629 28.4785 6.74391 30.5161 9.0268C32.5679 11.3097 32.5679 11.3097 32.5679 11.3097C32.5679 11.3097 42.0473 8.62174 48.5935 12.2636C48.6224 12.2636 48.6513 12.2925 48.6802 12.3073C48.709 12.3214 48.7379 12.3509 48.7816 12.365C49.0127 12.5095 49.2585 12.6539 49.4897 12.8131C49.663 12.9287 49.8363 13.0442 49.9955 13.1887C50.1689 13.319 50.3422 13.4634 50.5008 13.6079C50.6164 13.6946 50.7467 13.796 50.8475 13.9115C51.0645 14.1138 51.2808 14.3307 51.4831 14.5471C57.6242 21.4264 62.8698 34.3302 54.3302 57.7834Z" fill="white"/>
<path d="M28.2775 15.2332C30.5162 14.692 31.6659 13.7657 30.3959 11.6043C29.1265 9.44287 27.1968 7.97656 27.1968 7.97656C27.1968 7.97656 29.403 11.0878 29.3152 12.9403C29.2279 14.7928 28.2775 15.2332 28.2775 15.2332Z" fill="#363F49"/>
<path d="M36.4839 13.928C39.7007 13.1215 43.2813 13.6191 46.1874 15.4132C49.1188 17.2115 51.0798 20.2307 52.3114 23.3597C53.5437 26.5281 54.0148 29.9454 53.9947 33.3084C53.9322 36.6732 53.5596 40.0362 52.756 43.296C51.1582 49.7638 48.9791 56.0789 46.5535 62.2295C45.3661 65.3059 44.3202 68.4172 43.7459 71.6552C43.115 74.8832 42.8969 78.189 42.7194 81.4972C42.5697 78.1873 42.6451 74.8591 43.0467 71.5426C43.4859 68.2291 44.4404 64.9929 45.5082 61.8516C47.7233 55.606 49.8812 49.3794 51.3528 42.9594C52.8928 36.6602 53.3727 29.8888 51.2726 23.7406C50.2237 20.7236 48.4844 17.8111 45.7965 15.9981C43.1722 14.1126 39.7626 13.4422 36.4839 13.928Z" fill="#363F49"/>
<path d="M25.096 31.3715C25.6313 32.0183 25.2746 33.7853 24.3 35.3183C23.3254 36.8512 22.1014 37.5693 21.5661 36.9225C21.0307 36.2757 21.3869 34.5088 22.3614 32.9758C23.3366 31.4429 24.5606 30.7248 25.096 31.3715Z" fill="#363F49"/>
<path d="M48.5926 12.2624C42.0487 8.62289 32.5675 11.312 32.5675 11.312C32.5675 11.312 32.5676 11.312 30.5134 9.02912C28.4788 6.74623 26.4252 4.44861 25.1258 8.17422C23.8269 11.9045 24.5621 15.2003 22.3364 19.2172C20.0966 23.2341 17.1203 28.913 16.5714 34.2004C16.0078 39.4878 12.6548 46.366 10.0706 52.8426C8.07429 57.7668 7.48175 61.0054 8.56601 62.1186C8.69572 62.2566 8.8266 62.3279 8.8266 62.3279C8.8266 62.3279 8.66329 62.2719 8.43748 62.1333C8.43748 62.1333 1.13896 57.7391 0.819407 57.567C-0.623315 56.7598 -0.116858 53.3927 2.01804 48.0575C4.63522 41.5997 5.37103 33.2748 5.92052 28.0015C6.48417 22.714 9.45982 17.0351 11.6855 13.0183C13.9254 9.00141 13.1754 5.7056 14.489 1.97528C15.7932 -1.75033 17.8278 0.532555 19.8814 2.83018C21.9302 5.12781 21.9302 5.12781 21.9302 5.12781C21.9302 5.12781 31.6407 2.33847 38.2034 6.21206C39.135 6.76981 45.6499 10.562 48.5926 12.2624Z" fill="#363F49"/>
<path opacity="0.5" d="M48.5926 12.2624C42.0487 8.62289 32.5675 11.312 32.5675 11.312C32.5675 11.312 32.5676 11.312 30.5134 9.02912C28.4788 6.74623 26.4252 4.44861 25.1258 8.17422C23.8269 11.9045 24.5621 15.2003 22.3364 19.2172C20.0966 23.2341 17.1203 28.913 16.5714 34.2004C16.0078 39.4878 12.6548 46.366 10.0706 52.8426C8.07429 57.7668 7.48175 61.0054 8.56601 62.1186C8.69572 62.2566 8.8266 62.3279 8.8266 62.3279C8.8266 62.3279 8.66329 62.2719 8.43748 62.1333C8.43748 62.1333 1.13896 57.7391 0.819407 57.567C-0.623315 56.7598 -0.116858 53.3927 2.01804 48.0575C4.63522 41.5997 5.37103 33.2748 5.92052 28.0015C6.48417 22.714 9.45982 17.0351 11.6855 13.0183C13.9254 9.00141 13.1754 5.7056 14.489 1.97528C15.7932 -1.75033 17.8278 0.532555 19.8814 2.83018C21.9302 5.12781 21.9302 5.12781 21.9302 5.12781C21.9302 5.12781 31.6407 2.33847 38.2034 6.21206C39.135 6.76981 45.6499 10.562 48.5926 12.2624Z" fill="white"/>
<path opacity="0.2" d="M14.1362 16.8877C14.9675 15.9013 15.8654 14.9603 16.5729 13.8761C16.8795 13.4062 17.2421 12.8537 17.34 12.2948C17.4479 11.6799 17.4461 11.0673 17.3836 10.4459C17.2032 8.64879 16.9621 6.8476 17.0446 5.04287C17.0576 4.76222 17.0794 4.47569 17.1879 4.21627C17.3536 3.82065 17.6772 3.70804 18.0793 3.75933C18.2822 3.78527 18.4832 3.83657 18.6843 3.86487C18.8588 3.88904 19.1754 4.01521 19.3352 3.92088C19.7738 3.66205 18.9531 2.89853 18.7544 2.70751C18.3671 2.33489 17.9449 1.99941 17.5234 1.66571C17.2745 1.46937 17.0198 1.2695 16.7203 1.16573C16.4208 1.06255 16.0629 1.0714 15.8153 1.26891C15.665 1.38919 15.5701 1.56371 15.4863 1.73705C14.9292 2.895 14.7157 4.17499 14.5689 5.44142C14.4233 6.6943 14.2187 7.93539 14.0507 9.18001C13.4487 13.632 10.2779 17.2521 8.46964 21.365C6.59298 25.6336 6.20916 30.3857 5.86012 35.0352C5.82298 35.5293 5.9574 36.2179 6.45266 36.2026C6.61008 34.8065 6.87834 33.4245 7.19318 32.0554C8.45018 26.5847 10.519 21.1805 14.1362 16.8877Z" fill="white"/>
</svg>
