<svg width="14" height="14" viewBox="0 0 14 14" fill="none" xmlns="http://www.w3.org/2000/svg">
<path d="M7.00004 6.99967C6.35837 6.99967 5.80907 6.7712 5.35212 6.31426C4.89518 5.85731 4.66671 5.30801 4.66671 4.66634C4.66671 4.02467 4.89518 3.47537 5.35212 3.01842C5.80907 2.56148 6.35837 2.33301 7.00004 2.33301C7.64171 2.33301 8.19101 2.56148 8.64796 3.01842C9.1049 3.47537 9.33337 4.02467 9.33337 4.66634C9.33337 5.30801 9.1049 5.85731 8.64796 6.31426C8.19101 6.7712 7.64171 6.99967 7.00004 6.99967ZM2.33337 11.6663V10.033C2.33337 9.70245 2.41844 9.39863 2.58858 9.12155C2.75872 8.84447 2.98476 8.63301 3.26671 8.48717C3.86949 8.18579 4.48199 7.95974 5.10421 7.80905C5.72643 7.65836 6.35837 7.58301 7.00004 7.58301C7.64171 7.58301 8.27365 7.65836 8.89587 7.80905C9.5181 7.95974 10.1306 8.18579 10.7334 8.48717C11.0153 8.63301 11.2414 8.84447 11.4115 9.12155C11.5816 9.39863 11.6667 9.70245 11.6667 10.033V11.6663H2.33337ZM3.50004 10.4997H10.5V10.033C10.5 9.92606 10.4733 9.82884 10.4198 9.74134C10.3664 9.65384 10.2959 9.58579 10.2084 9.53718C9.68337 9.27468 9.15351 9.0778 8.61879 8.94655C8.08407 8.8153 7.54449 8.74967 7.00004 8.74967C6.4556 8.74967 5.91601 8.8153 5.38129 8.94655C4.84657 9.0778 4.31671 9.27468 3.79171 9.53718C3.70421 9.58579 3.63372 9.65384 3.58025 9.74134C3.52678 9.82884 3.50004 9.92606 3.50004 10.033V10.4997ZM7.00004 5.83301C7.32087 5.83301 7.59553 5.71877 7.824 5.4903C8.05247 5.26183 8.16671 4.98717 8.16671 4.66634C8.16671 4.34551 8.05247 4.07086 7.824 3.84238C7.59553 3.61391 7.32087 3.49967 7.00004 3.49967C6.67921 3.49967 6.40455 3.61391 6.17608 3.84238C5.94761 4.07086 5.83337 4.34551 5.83337 4.66634C5.83337 4.98717 5.94761 5.26183 6.17608 5.4903C6.40455 5.71877 6.67921 5.83301 7.00004 5.83301Z" fill="#5F5F5F"/>
</svg>
