<svg width="74" height="125" viewBox="0 0 74 125" fill="none" xmlns="http://www.w3.org/2000/svg">
<path d="M29.6569 70.6924L29.1562 76.6017L34.8648 78.6047H35.0564C34.9956 75.7987 34.837 73.0025 34.7833 70.239L29.6569 70.6924Z" fill="#777777"/>
<path d="M41.044 69.7671L34.7832 70.239C34.8373 73.0025 34.9955 75.7988 35.0564 78.6047L42.5463 78.6804L41.044 69.7671Z" fill="#3D3D3D"/>
<path d="M73.2236 114.647C75.0017 120.081 56.857 125 36.6678 125C16.4784 125 -1.59323 120.104 0.111692 114.647C5.41999 97.658 16.4784 104.294 36.6678 104.294C56.8566 104.294 67.615 97.5078 73.2236 114.647Z" fill="#464A4C"/>
<path d="M36.6675 117.556C54.6443 117.556 69.2173 113.429 69.2173 108.338C69.2173 103.247 54.6443 99.1196 36.6675 99.1196C18.6907 99.1196 4.11769 103.247 4.11769 108.338C4.11769 113.429 18.6907 117.556 36.6675 117.556Z" fill="#6B6B6B"/>
<path d="M33.7334 77.0134C33.7334 77.0134 27.4286 74.4211 27.5037 76.7008L26.5272 107.874C26.5272 107.874 29.7572 109.3 31.4847 109.977C32.6113 110.428 32.7618 110.428 33.8133 110.202V77.004L33.7334 77.0134Z" fill="#A0A0A0"/>
<path d="M43.2026 76.927C42.9774 75.7253 42.7518 76.0257 41.475 76.1008L33.8132 77.0047V110.203C34.5644 110.053 45.0053 107.413 45.5312 106.361C45.9066 105.835 43.5029 78.0536 43.2026 76.927Z" fill="#777777"/>
<path d="M28.2548 64.0074C26.0767 63.8573 25.2502 65.6599 25.3253 67.6131C25.4003 69.3406 26.1515 71.2187 27.6538 72.12C29.0811 73.0214 30.9588 73.0965 31.2591 70.9935C31.2591 70.9935 31.2591 70.9184 31.2591 70.8433L28.2548 64.0074Z" fill="#777777"/>
<path d="M38.8079 57.2425C38.4108 59.9808 37.0658 62.9401 36.4422 65.4344C35.7661 68.0636 34.2641 72.5703 36.5927 74.7487C36.9037 75.0312 37.2781 75.2607 37.6804 75.4167C38.0283 75.4124 38.3685 75.3927 38.6957 75.3493C42.0757 74.8985 43.503 68.6643 44.5548 66.1105C45.6814 63.3314 46.7329 60.552 47.7847 57.8477L38.8079 57.2425Z" fill="#777777"/>
<path d="M36.442 65.4335C37.0657 62.9395 38.4107 59.9799 38.8078 57.2416L27.7291 56.4946C27.8041 59.1235 26.9028 61.978 26.6776 64.6069C26.5274 66.1092 26.3021 68.2126 26.3772 69.7146C26.4523 71.893 27.5789 72.6441 29.457 73.4704C31.7846 74.4015 34.9944 75.4478 37.6809 75.4154C37.2786 75.2594 36.9042 75.03 36.5932 74.7474C34.2639 72.5697 35.7659 68.0627 36.442 65.4335Z" fill="#A0A0A0"/>
<path d="M42.8632 70.4622C42.3081 72.9927 42.245 75.6122 38.6873 74.3481C36.9979 73.7477 35.9661 71.6014 36.5212 69.0715C37.0762 66.541 38.9083 65.06 40.6974 65.1856C44.2212 65.4332 43.4185 67.9326 42.8632 70.4622Z" fill="#A0A0A0"/>
<path d="M44.0651 70.7624C43.5101 73.2926 41.6404 75.0322 39.8892 74.6483C38.1377 74.2639 37.1678 71.9016 37.7231 69.3714C38.2778 66.8412 40.1475 65.1017 41.899 65.4858C43.6499 65.8697 44.6202 68.2322 44.0651 70.7624Z" fill="#BFBFBF"/>
<path d="M43.7024 70.9162C43.291 72.7923 43.2441 74.7347 40.6061 73.7972C39.3537 73.3525 38.5883 71.7605 38.9996 69.8847C39.4113 68.0083 40.7699 66.9105 42.0962 67.0034C44.7095 67.1872 44.1141 69.04 43.7024 70.9162Z" fill="#A0A0A0"/>
<path d="M44.5937 71.1401C44.1824 73.0162 42.7956 74.3059 41.4971 74.0211C40.1987 73.7363 39.4793 71.9844 39.8909 70.1086C40.3023 68.2319 41.6891 66.9422 42.9875 67.2273C44.2856 67.5118 45.0054 69.2636 44.5937 71.1401Z" fill="#BFBFBF"/>
<path d="M26.8826 55.7512C24.065 54.6179 20.9756 53.2657 19.2642 50.642C16.4832 46.3774 17.225 42.7617 18.1519 38.034C19.1716 32.3788 22.4164 10.6854 24.734 6.60628C27.0516 2.52748 34.6535 1.87826 38.7326 2.43459C43.0072 2.99934 47.4045 3.88028 51.2007 6.19752C54.2125 8.03546 57.7521 10.1501 58.8732 13.5341C60.2626 17.7277 56.9029 32.3788 56.254 35.6236C55.3271 41.0005 54.5853 46.2845 52.7312 51.4763C50.7842 56.7603 45.2219 58.4293 39.9378 58.6148C35.8338 58.7588 31.776 57.6685 27.9827 56.1862C27.6179 56.0432 27.2503 55.8991 26.8826 55.7512Z" fill="#383434"/>
<path d="M50.6891 49.1097C50.6891 49.1097 49.3874 48.5588 49.7877 47.5575C49.7877 47.5575 49.9881 46.4057 51.5904 46.8565L55.386 48.1789C55.5278 47.6122 55.6618 47.0448 55.7886 46.4762L51.8907 45.204C51.8907 45.204 50.5887 44.6532 50.9894 43.6518C50.9894 43.6518 51.1897 42.5 52.7921 42.9505L56.2734 44.1632C56.3984 43.5269 56.5181 42.89 56.6336 42.2511L52.7921 40.9974C52.7921 40.9974 51.4901 40.4465 51.8907 39.4452C51.8907 39.4452 52.0911 38.2934 53.6934 38.7439L57.0434 39.9109C57.1521 39.272 57.2602 38.6316 57.3683 37.9901L53.6937 36.791C53.6937 36.791 52.3917 36.2402 52.7924 35.2389C52.7924 35.2389 52.9927 34.0871 54.5951 34.5376L57.7796 35.647C57.8813 35.1547 58.0175 34.5117 58.1767 33.7534L54.5954 32.5844C54.5954 32.5844 53.2931 32.0336 53.694 31.0322C53.694 31.0322 53.8944 29.8804 55.4964 30.3312L58.6564 31.4319C58.7784 30.83 58.9056 30.1937 59.0341 29.5325L55.4964 28.3781C55.4964 28.3781 54.1947 27.8273 54.5954 26.8256C54.5954 26.8256 54.7957 25.6738 56.3977 26.1246L59.4739 27.1962C59.5823 26.5984 59.6894 25.9906 59.7933 25.3777L56.0974 24.1715C56.0974 24.1715 54.7957 23.6206 55.196 22.6193C55.196 22.6193 55.3964 21.4675 56.9987 21.918L60.1704 23.0229C60.2678 22.373 60.3584 21.7261 60.4409 21.0885L56.9987 19.9651C56.9987 19.9651 55.697 19.4143 56.0974 18.413C56.0974 18.413 56.2977 17.2612 57.9 17.7117L60.7102 18.6907C60.9678 15.9255 60.9814 13.539 60.5296 12.1762C59.3185 8.52036 55.4938 6.2358 52.2406 4.25029C48.1388 1.74695 43.3888 0.795137 38.7708 0.18508C34.3642 -0.41559 26.1515 0.285409 23.6476 4.69205C23.0498 5.7442 22.3948 7.88247 21.7294 10.6091C25.2373 10.0751 36.8523 8.9728 50.6891 14.8077C50.6891 14.8077 52.5921 15.4087 52.0914 16.7106C52.0914 16.7106 51.8907 17.9126 50.1881 17.3116C50.1881 17.3116 38.0083 11.616 21.1394 13.1591C20.9983 13.7992 20.8575 14.4581 20.7174 15.1332C24.0861 14.6067 35.8024 13.4173 49.7877 19.3146C49.7877 19.3146 51.6907 19.9156 51.1901 21.2176C51.1901 21.2176 50.9894 22.4193 49.2867 21.8186C49.2867 21.8186 37.1206 15.8349 20.2662 17.3631C20.138 18.011 20.0112 18.6674 19.8856 19.3289C23.3424 18.7975 34.9946 17.6631 48.8864 23.5213C48.8864 23.5213 50.7894 24.1223 50.2887 25.4243C50.2887 25.4243 50.0881 26.6259 48.3854 26.0249C48.3854 26.0249 36.2694 20.0655 19.4688 21.56C19.3474 22.2206 19.228 22.8821 19.1102 23.5407C22.7181 23.074 34.2587 22.24 47.9851 28.0282C47.9851 28.0282 49.8881 28.6292 49.3874 29.9312C49.3874 29.9312 49.1868 31.1329 47.4841 30.5319C47.4841 30.5319 35.4412 24.3161 18.7199 25.7524C18.6008 26.4347 18.4846 27.1091 18.3707 27.7726C21.6993 27.3535 32.7932 26.5638 47.3841 31.9339C47.3841 31.9339 49.2871 32.5349 48.7861 33.8369C48.7861 33.8369 48.5854 35.0385 46.8831 34.4379C46.8831 34.4379 35.2849 29.1296 17.9438 30.2895C17.8269 30.9843 17.7143 31.6582 17.6062 32.3058C21.2005 31.9834 32.6884 31.4941 46.4828 36.4409C46.4828 36.4409 48.3858 37.0419 47.8848 38.3439C47.8848 38.3439 47.6841 39.5455 45.9818 38.9449C45.9818 38.9449 33.9531 33.0275 17.2473 34.4628C17.1263 35.1926 17.0127 35.8716 16.9094 36.4852C20.7051 36.1434 31.9631 35.7159 45.5814 40.6475C45.5814 40.6475 47.4844 41.2485 46.9834 42.5505C46.9834 42.5505 46.7828 43.7522 45.0804 43.1515C45.0804 43.1515 33.5525 37.995 16.5262 38.6982C16.4007 39.3387 16.2787 39.9598 16.167 40.5663C20.3626 40.6685 32.5369 41.3042 44.6801 45.1545C44.6801 45.1545 46.5831 45.7555 46.0821 47.0575C46.0821 47.0575 45.8814 48.2595 44.1791 47.6585C44.1791 47.6585 33.5891 43.8311 15.857 42.443C15.3777 45.8451 15.5207 48.8647 17.7386 52.2654C19.5872 55.1002 22.9249 56.5607 25.9687 57.7854C26.3658 57.9453 26.7629 58.1009 27.1574 58.255C31.2556 59.8567 35.6393 61.0344 40.0731 60.8787C45.7821 60.6784 51.7911 58.8757 53.8944 53.1668C54.2177 52.2615 54.5067 51.3534 54.7734 50.443L50.6891 49.1097Z" fill="#A0A0A0"/>
<mask id="mask0_0_4303" style="mask-type:luminance" maskUnits="userSpaceOnUse" x="15" y="0" width="46" height="61">
<path d="M50.6889 49.1097C50.6889 49.1097 49.3873 48.5588 49.7876 47.5575C49.7876 47.5575 49.988 46.4057 51.5903 46.8565L55.3859 48.1789C55.5277 47.6122 55.6616 47.0448 55.7885 46.4762L51.8906 45.204C51.8906 45.204 50.5886 44.6532 50.9893 43.6518C50.9893 43.6518 51.1896 42.5 52.7919 42.9505L56.2733 44.1632C56.3982 43.5269 56.518 42.89 56.6335 42.2511L52.7919 40.9974C52.7919 40.9974 51.49 40.4465 51.8906 39.4452C51.8906 39.4452 52.091 38.2934 53.6933 38.7439L57.0432 39.9109C57.152 39.272 57.2601 38.6316 57.3682 37.9901L53.6936 36.791C53.6936 36.791 52.3916 36.2402 52.7923 35.2389C52.7923 35.2389 52.9926 34.0871 54.5949 34.5376L57.7795 35.647C57.8811 35.1547 58.0174 34.5117 58.1766 33.7534L54.5953 32.5844C54.5953 32.5844 53.2929 32.0336 53.6939 31.0322C53.6939 31.0322 53.8943 29.8804 55.4963 30.3312L58.6563 31.4319C58.7783 30.83 58.9055 30.1937 59.0339 29.5325L55.4963 28.3781C55.4963 28.3781 54.1946 27.8273 54.5953 26.8256C54.5953 26.8256 54.7956 25.6738 56.3976 26.1246L59.4738 27.1962C59.5822 26.5984 59.6893 25.9906 59.7932 25.3777L56.0973 24.1715C56.0973 24.1715 54.7956 23.6206 55.1959 22.6193C55.1959 22.6193 55.3963 21.4675 56.9986 21.918L60.1702 23.0229C60.2676 22.373 60.3583 21.7261 60.4408 21.0885L56.9986 19.9651C56.9986 19.9651 55.6969 19.4143 56.0973 18.413C56.0973 18.413 56.2976 17.2612 57.8999 17.7117L60.7101 18.6907C60.9677 15.9255 60.9813 13.539 60.5295 12.1762C59.3184 8.52036 55.4937 6.2358 52.2405 4.25029C48.1387 1.74695 43.3887 0.795137 38.7707 0.18508C34.364 -0.41559 26.1514 0.285409 23.6474 4.69205C23.0497 5.7442 22.3946 7.88247 21.7292 10.6091C25.2371 10.0751 36.8522 8.9728 50.6889 14.8077C50.6889 14.8077 52.5919 15.4087 52.0913 16.7106C52.0913 16.7106 51.8906 17.9126 50.188 17.3116C50.188 17.3116 38.0082 11.616 21.1393 13.1591C20.9981 13.7992 20.8574 14.4581 20.7172 15.1332C24.086 14.6067 35.8023 13.4173 49.7876 19.3146C49.7876 19.3146 51.6906 19.9156 51.1899 21.2176C51.1899 21.2176 50.9893 22.4193 49.2866 21.8186C49.2866 21.8186 37.1205 15.8349 20.2661 17.3631C20.1379 18.011 20.0111 18.6674 19.8855 19.3289C23.3423 18.7975 34.9945 17.6631 48.8863 23.5213C48.8863 23.5213 50.7893 24.1223 50.2886 25.4243C50.2886 25.4243 50.088 26.6259 48.3853 26.0249C48.3853 26.0249 36.2693 20.0655 19.4686 21.56C19.3473 22.2206 19.2278 22.8821 19.11 23.5407C22.718 23.074 34.2585 22.24 47.985 28.0282C47.985 28.0282 49.8879 28.6292 49.3873 29.9312C49.3873 29.9312 49.1866 31.1329 47.484 30.5319C47.484 30.5319 35.4411 24.3161 18.7197 25.7524C18.6006 26.4347 18.4845 27.1091 18.3705 27.7726C21.6991 27.3535 32.7931 26.5638 47.384 31.9339C47.384 31.9339 49.287 32.5349 48.786 33.8369C48.786 33.8369 48.5853 35.0385 46.883 34.4379C46.883 34.4379 35.2848 29.1296 17.9437 30.2895C17.8268 30.9843 17.7142 31.6582 17.6061 32.3058C21.2004 31.9834 32.6883 31.4941 46.4826 36.4409C46.4826 36.4409 48.3856 37.0419 47.8846 38.3439C47.8846 38.3439 47.684 39.5455 45.9817 38.9449C45.9817 38.9449 33.953 33.0275 17.2472 34.4628C17.1261 35.1926 17.0126 35.8716 16.9093 36.4852C20.7049 36.1434 31.963 35.7159 45.5813 40.6475C45.5813 40.6475 47.4843 41.2485 46.9833 42.5505C46.9833 42.5505 46.7827 43.7522 45.0803 43.1515C45.0803 43.1515 33.5524 37.995 16.5261 38.6982C16.4006 39.3387 16.2785 39.9598 16.1669 40.5663C20.3625 40.6685 32.5368 41.3042 44.68 45.1545C44.68 45.1545 46.583 45.7555 46.082 47.0575C46.082 47.0575 45.8813 48.2595 44.179 47.6585C44.179 47.6585 33.5889 43.8311 15.8568 42.443C15.3775 45.8451 15.5206 48.8647 17.7385 52.2654C19.5871 55.1002 22.9248 56.5607 25.9686 57.7854C26.3657 57.9453 26.7628 58.1009 27.1573 58.255C31.2555 59.8567 35.6392 61.0344 40.073 60.8787C45.782 60.6784 51.7909 58.8757 53.8943 53.1668C54.2176 52.2615 54.5066 51.3534 54.7733 50.443L50.6889 49.1097Z" fill="white"/>
</mask>
<g mask="url(#mask0_0_4303)">
<g opacity="0.5">
<path d="M10.2272 43.6508C11.4292 48.9588 17.9391 50.7615 22.4458 52.0638C27.5534 53.5661 32.8617 54.9681 38.17 54.9681C45.982 55.0684 53.293 52.3641 59.4023 47.4565C58.5009 51.1621 57.6996 53.8665 54.8953 56.6708C53.1926 58.4734 51.5903 60.2764 49.2866 61.2777C46.282 62.4794 42.877 62.7801 39.772 63.4811C31.8601 65.2837 22.8465 63.9817 15.8358 59.4751C12.7312 57.4721 10.8282 54.5678 9.62653 51.1625C9.12586 49.6601 9.12586 47.5568 8.1242 46.3552C8.1242 46.2548 8.1242 46.2548 8.02388 46.1548L10.2272 43.6508Z" fill="#A0A0A0"/>
</g>
</g>
<mask id="mask1_0_4303" style="mask-type:luminance" maskUnits="userSpaceOnUse" x="15" y="0" width="46" height="61">
<path d="M50.6889 49.1097C50.6889 49.1097 49.3873 48.5588 49.7876 47.5575C49.7876 47.5575 49.988 46.4057 51.5903 46.8565L55.3859 48.1789C55.5277 47.6122 55.6616 47.0448 55.7885 46.4762L51.8906 45.204C51.8906 45.204 50.5886 44.6532 50.9893 43.6518C50.9893 43.6518 51.1896 42.5 52.7919 42.9505L56.2733 44.1632C56.3982 43.5269 56.518 42.89 56.6335 42.2511L52.7919 40.9974C52.7919 40.9974 51.49 40.4465 51.8906 39.4452C51.8906 39.4452 52.091 38.2934 53.6933 38.7439L57.0432 39.9109C57.152 39.272 57.2601 38.6316 57.3682 37.9901L53.6936 36.791C53.6936 36.791 52.3916 36.2402 52.7923 35.2389C52.7923 35.2389 52.9926 34.0871 54.5949 34.5376L57.7795 35.647C57.8811 35.1547 58.0174 34.5117 58.1766 33.7534L54.5953 32.5844C54.5953 32.5844 53.2929 32.0336 53.6939 31.0322C53.6939 31.0322 53.8943 29.8804 55.4963 30.3312L58.6563 31.4319C58.7783 30.83 58.9055 30.1937 59.0339 29.5325L55.4963 28.3781C55.4963 28.3781 54.1946 27.8273 54.5953 26.8256C54.5953 26.8256 54.7956 25.6738 56.3976 26.1246L59.4738 27.1962C59.5822 26.5984 59.6893 25.9906 59.7932 25.3777L56.0973 24.1715C56.0973 24.1715 54.7956 23.6206 55.1959 22.6193C55.1959 22.6193 55.3963 21.4675 56.9986 21.918L60.1702 23.0229C60.2676 22.373 60.3583 21.7261 60.4408 21.0885L56.9986 19.9651C56.9986 19.9651 55.6969 19.4143 56.0973 18.413C56.0973 18.413 56.2976 17.2612 57.8999 17.7117L60.7101 18.6907C60.9677 15.9255 60.9813 13.539 60.5295 12.1762C59.3184 8.52036 55.4937 6.2358 52.2405 4.25029C48.1387 1.74695 43.3887 0.795137 38.7707 0.18508C34.364 -0.41559 26.1514 0.285409 23.6474 4.69205C23.0497 5.7442 22.3946 7.88247 21.7292 10.6091C25.2371 10.0751 36.8522 8.9728 50.6889 14.8077C50.6889 14.8077 52.5919 15.4087 52.0913 16.7106C52.0913 16.7106 51.8906 17.9126 50.188 17.3116C50.188 17.3116 38.0082 11.616 21.1393 13.1591C20.9981 13.7992 20.8574 14.4581 20.7172 15.1332C24.086 14.6067 35.8023 13.4173 49.7876 19.3146C49.7876 19.3146 51.6906 19.9156 51.1899 21.2176C51.1899 21.2176 50.9893 22.4193 49.2866 21.8186C49.2866 21.8186 37.1205 15.8349 20.2661 17.3631C20.1379 18.011 20.0111 18.6674 19.8855 19.3289C23.3423 18.7975 34.9945 17.6631 48.8863 23.5213C48.8863 23.5213 50.7893 24.1223 50.2886 25.4243C50.2886 25.4243 50.088 26.6259 48.3853 26.0249C48.3853 26.0249 36.2693 20.0655 19.4686 21.56C19.3473 22.2206 19.2278 22.8821 19.11 23.5407C22.718 23.074 34.2585 22.24 47.985 28.0282C47.985 28.0282 49.8879 28.6292 49.3873 29.9312C49.3873 29.9312 49.1866 31.1329 47.484 30.5319C47.484 30.5319 35.4411 24.3161 18.7197 25.7524C18.6006 26.4347 18.4845 27.1091 18.3705 27.7726C21.6991 27.3535 32.7931 26.5638 47.384 31.9339C47.384 31.9339 49.287 32.5349 48.786 33.8369C48.786 33.8369 48.5853 35.0385 46.883 34.4379C46.883 34.4379 35.2848 29.1296 17.9437 30.2895C17.8268 30.9843 17.7142 31.6582 17.6061 32.3058C21.2004 31.9834 32.6883 31.4941 46.4826 36.4409C46.4826 36.4409 48.3856 37.0419 47.8846 38.3439C47.8846 38.3439 47.684 39.5455 45.9817 38.9449C45.9817 38.9449 33.953 33.0275 17.2472 34.4628C17.1261 35.1926 17.0126 35.8716 16.9093 36.4852C20.7049 36.1434 31.963 35.7159 45.5813 40.6475C45.5813 40.6475 47.4843 41.2485 46.9833 42.5505C46.9833 42.5505 46.7827 43.7522 45.0803 43.1515C45.0803 43.1515 33.5524 37.995 16.5261 38.6982C16.4006 39.3387 16.2785 39.9598 16.1669 40.5663C20.3625 40.6685 32.5368 41.3042 44.68 45.1545C44.68 45.1545 46.583 45.7555 46.082 47.0575C46.082 47.0575 45.8813 48.2595 44.179 47.6585C44.179 47.6585 33.5889 43.8311 15.8568 42.443C15.3775 45.8451 15.5206 48.8647 17.7385 52.2654C19.5871 55.1002 22.9248 56.5607 25.9686 57.7854C26.3657 57.9453 26.7628 58.1009 27.1573 58.255C31.2555 59.8567 35.6392 61.0344 40.073 60.8787C45.782 60.6784 51.7909 58.8757 53.8943 53.1668C54.2176 52.2615 54.5066 51.3534 54.7733 50.443L50.6889 49.1097Z" fill="white"/>
</mask>
<g mask="url(#mask1_0_4303)">
<path d="M45.2811 60.9774C42.0761 59.8757 38.7711 58.8741 36.7678 55.8694C34.0638 51.7631 35.1655 47.3565 35.8665 42.8498C36.8681 36.9405 38.1701 31.1319 39.4721 25.3229C40.4737 20.5156 41.0747 15.508 42.4764 10.9007C43.8787 5.99303 46.6831 2.28738 51.991 1.78672C53.994 1.58639 57.3993 1.58638 56.598 4.49103C55.6967 7.59568 51.5904 6.69435 49.487 8.19668C46.3821 10.0997 49.9877 12.8037 49.2867 15.508C48.4854 18.5126 44.9801 18.5126 45.6811 21.9176C45.9817 23.2196 46.4827 24.7219 46.1821 26.1242C45.7814 27.5262 44.5794 28.3276 43.7784 29.4292C41.8751 32.0332 44.4791 34.0362 42.9768 36.6402C41.4744 39.2442 39.4714 40.0455 40.1728 43.2502C40.3728 44.4521 40.9738 45.6538 40.3728 46.8558C39.7718 48.0578 38.4698 48.3581 38.1695 49.8604C37.9688 51.1624 38.6701 52.0638 39.1708 53.1654C39.6718 54.4674 39.1708 55.2687 39.2711 56.4704C39.4711 58.6737 42.2754 59.2747 44.0784 60.2764C44.5797 60.4767 44.9804 60.577 45.2811 60.9774Z" fill="url(#paint0_linear_0_4303)"/>
</g>
<mask id="mask2_0_4303" style="mask-type:luminance" maskUnits="userSpaceOnUse" x="15" y="0" width="46" height="61">
<path d="M50.6889 49.1097C50.6889 49.1097 49.3873 48.5588 49.7876 47.5575C49.7876 47.5575 49.988 46.4057 51.5903 46.8565L55.3859 48.1789C55.5277 47.6122 55.6616 47.0448 55.7885 46.4762L51.8906 45.204C51.8906 45.204 50.5886 44.6532 50.9893 43.6518C50.9893 43.6518 51.1896 42.5 52.7919 42.9505L56.2733 44.1632C56.3982 43.5269 56.518 42.89 56.6335 42.2511L52.7919 40.9974C52.7919 40.9974 51.49 40.4465 51.8906 39.4452C51.8906 39.4452 52.091 38.2934 53.6933 38.7439L57.0432 39.9109C57.152 39.272 57.2601 38.6316 57.3682 37.9901L53.6936 36.791C53.6936 36.791 52.3916 36.2402 52.7923 35.2389C52.7923 35.2389 52.9926 34.0871 54.5949 34.5376L57.7795 35.647C57.8811 35.1547 58.0174 34.5117 58.1766 33.7534L54.5953 32.5844C54.5953 32.5844 53.2929 32.0336 53.6939 31.0322C53.6939 31.0322 53.8943 29.8804 55.4963 30.3312L58.6563 31.4319C58.7783 30.83 58.9055 30.1937 59.0339 29.5325L55.4963 28.3781C55.4963 28.3781 54.1946 27.8273 54.5953 26.8256C54.5953 26.8256 54.7956 25.6738 56.3976 26.1246L59.4738 27.1962C59.5822 26.5984 59.6893 25.9906 59.7932 25.3777L56.0973 24.1715C56.0973 24.1715 54.7956 23.6206 55.1959 22.6193C55.1959 22.6193 55.3963 21.4675 56.9986 21.918L60.1702 23.0229C60.2676 22.373 60.3583 21.7261 60.4408 21.0885L56.9986 19.9651C56.9986 19.9651 55.6969 19.4143 56.0973 18.413C56.0973 18.413 56.2976 17.2612 57.8999 17.7117L60.7101 18.6907C60.9677 15.9255 60.9813 13.539 60.5295 12.1762C59.3184 8.52036 55.4937 6.2358 52.2405 4.25029C48.1387 1.74695 43.3887 0.795137 38.7707 0.18508C34.364 -0.41559 26.1514 0.285409 23.6474 4.69205C23.0497 5.7442 22.3946 7.88247 21.7292 10.6091C25.2371 10.0751 36.8522 8.9728 50.6889 14.8077C50.6889 14.8077 52.5919 15.4087 52.0913 16.7106C52.0913 16.7106 51.8906 17.9126 50.188 17.3116C50.188 17.3116 38.0082 11.616 21.1393 13.1591C20.9981 13.7992 20.8574 14.4581 20.7172 15.1332C24.086 14.6067 35.8023 13.4173 49.7876 19.3146C49.7876 19.3146 51.6906 19.9156 51.1899 21.2176C51.1899 21.2176 50.9893 22.4193 49.2866 21.8186C49.2866 21.8186 37.1205 15.8349 20.2661 17.3631C20.1379 18.011 20.0111 18.6674 19.8855 19.3289C23.3423 18.7975 34.9945 17.6631 48.8863 23.5213C48.8863 23.5213 50.7893 24.1223 50.2886 25.4243C50.2886 25.4243 50.088 26.6259 48.3853 26.0249C48.3853 26.0249 36.2693 20.0655 19.4686 21.56C19.3473 22.2206 19.2278 22.8821 19.11 23.5407C22.718 23.074 34.2585 22.24 47.985 28.0282C47.985 28.0282 49.8879 28.6292 49.3873 29.9312C49.3873 29.9312 49.1866 31.1329 47.484 30.5319C47.484 30.5319 35.4411 24.3161 18.7197 25.7524C18.6006 26.4347 18.4845 27.1091 18.3705 27.7726C21.6991 27.3535 32.7931 26.5638 47.384 31.9339C47.384 31.9339 49.287 32.5349 48.786 33.8369C48.786 33.8369 48.5853 35.0385 46.883 34.4379C46.883 34.4379 35.2848 29.1296 17.9437 30.2895C17.8268 30.9843 17.7142 31.6582 17.6061 32.3058C21.2004 31.9834 32.6883 31.4941 46.4826 36.4409C46.4826 36.4409 48.3856 37.0419 47.8846 38.3439C47.8846 38.3439 47.684 39.5455 45.9817 38.9449C45.9817 38.9449 33.953 33.0275 17.2472 34.4628C17.1261 35.1926 17.0126 35.8716 16.9093 36.4852C20.7049 36.1434 31.963 35.7159 45.5813 40.6475C45.5813 40.6475 47.4843 41.2485 46.9833 42.5505C46.9833 42.5505 46.7827 43.7522 45.0803 43.1515C45.0803 43.1515 33.5524 37.995 16.5261 38.6982C16.4006 39.3387 16.2785 39.9598 16.1669 40.5663C20.3625 40.6685 32.5368 41.3042 44.68 45.1545C44.68 45.1545 46.583 45.7555 46.082 47.0575C46.082 47.0575 45.8813 48.2595 44.179 47.6585C44.179 47.6585 33.5889 43.8311 15.8568 42.443C15.3775 45.8451 15.5206 48.8647 17.7385 52.2654C19.5871 55.1002 22.9248 56.5607 25.9686 57.7854C26.3657 57.9453 26.7628 58.1009 27.1573 58.255C31.2555 59.8567 35.6392 61.0344 40.073 60.8787C45.782 60.6784 51.7909 58.8757 53.8943 53.1668C54.2176 52.2615 54.5066 51.3534 54.7733 50.443L50.6889 49.1097Z" fill="white"/>
</mask>
<g mask="url(#mask2_0_4303)">
<path d="M30.4582 0.134105C28.8556 0.183946 27.2533 1.63643 26.3018 2.78793C25.5506 3.73943 24.9496 4.59059 24.8496 5.79258C24.6493 7.5454 26.0014 7.1949 26.5024 5.89291C27.3037 3.98992 28.6556 0.7351 30.9091 0.184269L30.4582 0.134105Z" fill="#383434"/>
</g>
<mask id="mask3_0_4303" style="mask-type:luminance" maskUnits="userSpaceOnUse" x="15" y="0" width="46" height="61">
<path d="M50.6889 49.1097C50.6889 49.1097 49.3873 48.5588 49.7876 47.5575C49.7876 47.5575 49.988 46.4057 51.5903 46.8565L55.3859 48.1789C55.5277 47.6122 55.6616 47.0448 55.7885 46.4762L51.8906 45.204C51.8906 45.204 50.5886 44.6532 50.9893 43.6518C50.9893 43.6518 51.1896 42.5 52.7919 42.9505L56.2733 44.1632C56.3982 43.5269 56.518 42.89 56.6335 42.2511L52.7919 40.9974C52.7919 40.9974 51.49 40.4465 51.8906 39.4452C51.8906 39.4452 52.091 38.2934 53.6933 38.7439L57.0432 39.9109C57.152 39.272 57.2601 38.6316 57.3682 37.9901L53.6936 36.791C53.6936 36.791 52.3916 36.2402 52.7923 35.2389C52.7923 35.2389 52.9926 34.0871 54.5949 34.5376L57.7795 35.647C57.8811 35.1547 58.0174 34.5117 58.1766 33.7534L54.5953 32.5844C54.5953 32.5844 53.2929 32.0336 53.6939 31.0322C53.6939 31.0322 53.8943 29.8804 55.4963 30.3312L58.6563 31.4319C58.7783 30.83 58.9055 30.1937 59.0339 29.5325L55.4963 28.3781C55.4963 28.3781 54.1946 27.8273 54.5953 26.8256C54.5953 26.8256 54.7956 25.6738 56.3976 26.1246L59.4738 27.1962C59.5822 26.5984 59.6893 25.9906 59.7932 25.3777L56.0973 24.1715C56.0973 24.1715 54.7956 23.6206 55.1959 22.6193C55.1959 22.6193 55.3963 21.4675 56.9986 21.918L60.1702 23.0229C60.2676 22.373 60.3583 21.7261 60.4408 21.0885L56.9986 19.9651C56.9986 19.9651 55.6969 19.4143 56.0973 18.413C56.0973 18.413 56.2976 17.2612 57.8999 17.7117L60.7101 18.6907C60.9677 15.9255 60.9813 13.539 60.5295 12.1762C59.3184 8.52036 55.4937 6.2358 52.2405 4.25029C48.1387 1.74695 43.3887 0.795137 38.7707 0.18508C34.364 -0.41559 26.1514 0.285409 23.6474 4.69205C23.0497 5.7442 22.3946 7.88247 21.7292 10.6091C25.2371 10.0751 36.8522 8.9728 50.6889 14.8077C50.6889 14.8077 52.5919 15.4087 52.0913 16.7106C52.0913 16.7106 51.8906 17.9126 50.188 17.3116C50.188 17.3116 38.0082 11.616 21.1393 13.1591C20.9981 13.7992 20.8574 14.4581 20.7172 15.1332C24.086 14.6067 35.8023 13.4173 49.7876 19.3146C49.7876 19.3146 51.6906 19.9156 51.1899 21.2176C51.1899 21.2176 50.9893 22.4193 49.2866 21.8186C49.2866 21.8186 37.1205 15.8349 20.2661 17.3631C20.1379 18.011 20.0111 18.6674 19.8855 19.3289C23.3423 18.7975 34.9945 17.6631 48.8863 23.5213C48.8863 23.5213 50.7893 24.1223 50.2886 25.4243C50.2886 25.4243 50.088 26.6259 48.3853 26.0249C48.3853 26.0249 36.2693 20.0655 19.4686 21.56C19.3473 22.2206 19.2278 22.8821 19.11 23.5407C22.718 23.074 34.2585 22.24 47.985 28.0282C47.985 28.0282 49.8879 28.6292 49.3873 29.9312C49.3873 29.9312 49.1866 31.1329 47.484 30.5319C47.484 30.5319 35.4411 24.3161 18.7197 25.7524C18.6006 26.4347 18.4845 27.1091 18.3705 27.7726C21.6991 27.3535 32.7931 26.5638 47.384 31.9339C47.384 31.9339 49.287 32.5349 48.786 33.8369C48.786 33.8369 48.5853 35.0385 46.883 34.4379C46.883 34.4379 35.2848 29.1296 17.9437 30.2895C17.8268 30.9843 17.7142 31.6582 17.6061 32.3058C21.2004 31.9834 32.6883 31.4941 46.4826 36.4409C46.4826 36.4409 48.3856 37.0419 47.8846 38.3439C47.8846 38.3439 47.684 39.5455 45.9817 38.9449C45.9817 38.9449 33.953 33.0275 17.2472 34.4628C17.1261 35.1926 17.0126 35.8716 16.9093 36.4852C20.7049 36.1434 31.963 35.7159 45.5813 40.6475C45.5813 40.6475 47.4843 41.2485 46.9833 42.5505C46.9833 42.5505 46.7827 43.7522 45.0803 43.1515C45.0803 43.1515 33.5524 37.995 16.5261 38.6982C16.4006 39.3387 16.2785 39.9598 16.1669 40.5663C20.3625 40.6685 32.5368 41.3042 44.68 45.1545C44.68 45.1545 46.583 45.7555 46.082 47.0575C46.082 47.0575 45.8813 48.2595 44.179 47.6585C44.179 47.6585 33.5889 43.8311 15.8568 42.443C15.3775 45.8451 15.5206 48.8647 17.7385 52.2654C19.5871 55.1002 22.9248 56.5607 25.9686 57.7854C26.3657 57.9453 26.7628 58.1009 27.1573 58.255C31.2555 59.8567 35.6392 61.0344 40.073 60.8787C45.782 60.6784 51.7909 58.8757 53.8943 53.1668C54.2176 52.2615 54.5066 51.3534 54.7733 50.443L50.6889 49.1097Z" fill="white"/>
</mask>
<g mask="url(#mask3_0_4303)">
<path d="M32.2109 0.0348194C30.3581 0.485646 29.2063 2.08798 28.4049 3.79063C28.1548 4.44147 27.2531 6.44478 28.1046 6.89528C29.2063 7.44611 29.7571 4.9923 29.9574 4.39162C30.5584 2.48864 32.5614 0.184987 34.6146 -0.215352L32.2109 0.0348194Z" fill="#383434"/>
</g>
<mask id="mask4_0_4303" style="mask-type:luminance" maskUnits="userSpaceOnUse" x="15" y="0" width="46" height="61">
<path d="M50.6889 49.1097C50.6889 49.1097 49.3873 48.5588 49.7876 47.5575C49.7876 47.5575 49.988 46.4057 51.5903 46.8565L55.3859 48.1789C55.5277 47.6122 55.6616 47.0448 55.7885 46.4762L51.8906 45.204C51.8906 45.204 50.5886 44.6532 50.9893 43.6518C50.9893 43.6518 51.1896 42.5 52.7919 42.9505L56.2733 44.1632C56.3982 43.5269 56.518 42.89 56.6335 42.2511L52.7919 40.9974C52.7919 40.9974 51.49 40.4465 51.8906 39.4452C51.8906 39.4452 52.091 38.2934 53.6933 38.7439L57.0432 39.9109C57.152 39.272 57.2601 38.6316 57.3682 37.9901L53.6936 36.791C53.6936 36.791 52.3916 36.2402 52.7923 35.2389C52.7923 35.2389 52.9926 34.0871 54.5949 34.5376L57.7795 35.647C57.8811 35.1547 58.0174 34.5117 58.1766 33.7534L54.5953 32.5844C54.5953 32.5844 53.2929 32.0336 53.6939 31.0322C53.6939 31.0322 53.8943 29.8804 55.4963 30.3312L58.6563 31.4319C58.7783 30.83 58.9055 30.1937 59.0339 29.5325L55.4963 28.3781C55.4963 28.3781 54.1946 27.8273 54.5953 26.8256C54.5953 26.8256 54.7956 25.6738 56.3976 26.1246L59.4738 27.1962C59.5822 26.5984 59.6893 25.9906 59.7932 25.3777L56.0973 24.1715C56.0973 24.1715 54.7956 23.6206 55.1959 22.6193C55.1959 22.6193 55.3963 21.4675 56.9986 21.918L60.1702 23.0229C60.2676 22.373 60.3583 21.7261 60.4408 21.0885L56.9986 19.9651C56.9986 19.9651 55.6969 19.4143 56.0973 18.413C56.0973 18.413 56.2976 17.2612 57.8999 17.7117L60.7101 18.6907C60.9677 15.9255 60.9813 13.539 60.5295 12.1762C59.3184 8.52036 55.4937 6.2358 52.2405 4.25029C48.1387 1.74695 43.3887 0.795137 38.7707 0.18508C34.364 -0.41559 26.1514 0.285409 23.6474 4.69205C23.0497 5.7442 22.3946 7.88247 21.7292 10.6091C25.2371 10.0751 36.8522 8.9728 50.6889 14.8077C50.6889 14.8077 52.5919 15.4087 52.0913 16.7106C52.0913 16.7106 51.8906 17.9126 50.188 17.3116C50.188 17.3116 38.0082 11.616 21.1393 13.1591C20.9981 13.7992 20.8574 14.4581 20.7172 15.1332C24.086 14.6067 35.8023 13.4173 49.7876 19.3146C49.7876 19.3146 51.6906 19.9156 51.1899 21.2176C51.1899 21.2176 50.9893 22.4193 49.2866 21.8186C49.2866 21.8186 37.1205 15.8349 20.2661 17.3631C20.1379 18.011 20.0111 18.6674 19.8855 19.3289C23.3423 18.7975 34.9945 17.6631 48.8863 23.5213C48.8863 23.5213 50.7893 24.1223 50.2886 25.4243C50.2886 25.4243 50.088 26.6259 48.3853 26.0249C48.3853 26.0249 36.2693 20.0655 19.4686 21.56C19.3473 22.2206 19.2278 22.8821 19.11 23.5407C22.718 23.074 34.2585 22.24 47.985 28.0282C47.985 28.0282 49.8879 28.6292 49.3873 29.9312C49.3873 29.9312 49.1866 31.1329 47.484 30.5319C47.484 30.5319 35.4411 24.3161 18.7197 25.7524C18.6006 26.4347 18.4845 27.1091 18.3705 27.7726C21.6991 27.3535 32.7931 26.5638 47.384 31.9339C47.384 31.9339 49.287 32.5349 48.786 33.8369C48.786 33.8369 48.5853 35.0385 46.883 34.4379C46.883 34.4379 35.2848 29.1296 17.9437 30.2895C17.8268 30.9843 17.7142 31.6582 17.6061 32.3058C21.2004 31.9834 32.6883 31.4941 46.4826 36.4409C46.4826 36.4409 48.3856 37.0419 47.8846 38.3439C47.8846 38.3439 47.684 39.5455 45.9817 38.9449C45.9817 38.9449 33.953 33.0275 17.2472 34.4628C17.1261 35.1926 17.0126 35.8716 16.9093 36.4852C20.7049 36.1434 31.963 35.7159 45.5813 40.6475C45.5813 40.6475 47.4843 41.2485 46.9833 42.5505C46.9833 42.5505 46.7827 43.7522 45.0803 43.1515C45.0803 43.1515 33.5524 37.995 16.5261 38.6982C16.4006 39.3387 16.2785 39.9598 16.1669 40.5663C20.3625 40.6685 32.5368 41.3042 44.68 45.1545C44.68 45.1545 46.583 45.7555 46.082 47.0575C46.082 47.0575 45.8813 48.2595 44.179 47.6585C44.179 47.6585 33.5889 43.8311 15.8568 42.443C15.3775 45.8451 15.5206 48.8647 17.7385 52.2654C19.5871 55.1002 22.9248 56.5607 25.9686 57.7854C26.3657 57.9453 26.7628 58.1009 27.1573 58.255C31.2555 59.8567 35.6392 61.0344 40.073 60.8787C45.782 60.6784 51.7909 58.8757 53.8943 53.1668C54.2176 52.2615 54.5066 51.3534 54.7733 50.443L50.6889 49.1097Z" fill="white"/>
</mask>
<g mask="url(#mask4_0_4303)">
<path d="M36.4673 -0.266253C34.5643 -0.216089 32.7614 2.1374 31.9604 3.63973C31.6099 4.34105 30.5584 5.99321 31.159 6.7447C32.2105 8.19686 33.2623 5.94337 33.5125 5.24238C34.3138 3.08889 36.5172 -0.0659217 39.1212 -0.115762L36.4673 -0.266253Z" fill="#383434"/>
</g>
<mask id="mask5_0_4303" style="mask-type:luminance" maskUnits="userSpaceOnUse" x="15" y="0" width="46" height="61">
<path d="M50.6889 49.1097C50.6889 49.1097 49.3873 48.5588 49.7876 47.5575C49.7876 47.5575 49.988 46.4057 51.5903 46.8565L55.3859 48.1789C55.5277 47.6122 55.6616 47.0448 55.7885 46.4762L51.8906 45.204C51.8906 45.204 50.5886 44.6532 50.9893 43.6518C50.9893 43.6518 51.1896 42.5 52.7919 42.9505L56.2733 44.1632C56.3982 43.5269 56.518 42.89 56.6335 42.2511L52.7919 40.9974C52.7919 40.9974 51.49 40.4465 51.8906 39.4452C51.8906 39.4452 52.091 38.2934 53.6933 38.7439L57.0432 39.9109C57.152 39.272 57.2601 38.6316 57.3682 37.9901L53.6936 36.791C53.6936 36.791 52.3916 36.2402 52.7923 35.2389C52.7923 35.2389 52.9926 34.0871 54.5949 34.5376L57.7795 35.647C57.8811 35.1547 58.0174 34.5117 58.1766 33.7534L54.5953 32.5844C54.5953 32.5844 53.2929 32.0336 53.6939 31.0322C53.6939 31.0322 53.8943 29.8804 55.4963 30.3312L58.6563 31.4319C58.7783 30.83 58.9055 30.1937 59.0339 29.5325L55.4963 28.3781C55.4963 28.3781 54.1946 27.8273 54.5953 26.8256C54.5953 26.8256 54.7956 25.6738 56.3976 26.1246L59.4738 27.1962C59.5822 26.5984 59.6893 25.9906 59.7932 25.3777L56.0973 24.1715C56.0973 24.1715 54.7956 23.6206 55.1959 22.6193C55.1959 22.6193 55.3963 21.4675 56.9986 21.918L60.1702 23.0229C60.2676 22.373 60.3583 21.7261 60.4408 21.0885L56.9986 19.9651C56.9986 19.9651 55.6969 19.4143 56.0973 18.413C56.0973 18.413 56.2976 17.2612 57.8999 17.7117L60.7101 18.6907C60.9677 15.9255 60.9813 13.539 60.5295 12.1762C59.3184 8.52036 55.4937 6.2358 52.2405 4.25029C48.1387 1.74695 43.3887 0.795137 38.7707 0.18508C34.364 -0.41559 26.1514 0.285409 23.6474 4.69205C23.0497 5.7442 22.3946 7.88247 21.7292 10.6091C25.2371 10.0751 36.8522 8.9728 50.6889 14.8077C50.6889 14.8077 52.5919 15.4087 52.0913 16.7106C52.0913 16.7106 51.8906 17.9126 50.188 17.3116C50.188 17.3116 38.0082 11.616 21.1393 13.1591C20.9981 13.7992 20.8574 14.4581 20.7172 15.1332C24.086 14.6067 35.8023 13.4173 49.7876 19.3146C49.7876 19.3146 51.6906 19.9156 51.1899 21.2176C51.1899 21.2176 50.9893 22.4193 49.2866 21.8186C49.2866 21.8186 37.1205 15.8349 20.2661 17.3631C20.1379 18.011 20.0111 18.6674 19.8855 19.3289C23.3423 18.7975 34.9945 17.6631 48.8863 23.5213C48.8863 23.5213 50.7893 24.1223 50.2886 25.4243C50.2886 25.4243 50.088 26.6259 48.3853 26.0249C48.3853 26.0249 36.2693 20.0655 19.4686 21.56C19.3473 22.2206 19.2278 22.8821 19.11 23.5407C22.718 23.074 34.2585 22.24 47.985 28.0282C47.985 28.0282 49.8879 28.6292 49.3873 29.9312C49.3873 29.9312 49.1866 31.1329 47.484 30.5319C47.484 30.5319 35.4411 24.3161 18.7197 25.7524C18.6006 26.4347 18.4845 27.1091 18.3705 27.7726C21.6991 27.3535 32.7931 26.5638 47.384 31.9339C47.384 31.9339 49.287 32.5349 48.786 33.8369C48.786 33.8369 48.5853 35.0385 46.883 34.4379C46.883 34.4379 35.2848 29.1296 17.9437 30.2895C17.8268 30.9843 17.7142 31.6582 17.6061 32.3058C21.2004 31.9834 32.6883 31.4941 46.4826 36.4409C46.4826 36.4409 48.3856 37.0419 47.8846 38.3439C47.8846 38.3439 47.684 39.5455 45.9817 38.9449C45.9817 38.9449 33.953 33.0275 17.2472 34.4628C17.1261 35.1926 17.0126 35.8716 16.9093 36.4852C20.7049 36.1434 31.963 35.7159 45.5813 40.6475C45.5813 40.6475 47.4843 41.2485 46.9833 42.5505C46.9833 42.5505 46.7827 43.7522 45.0803 43.1515C45.0803 43.1515 33.5524 37.995 16.5261 38.6982C16.4006 39.3387 16.2785 39.9598 16.1669 40.5663C20.3625 40.6685 32.5368 41.3042 44.68 45.1545C44.68 45.1545 46.583 45.7555 46.082 47.0575C46.082 47.0575 45.8813 48.2595 44.179 47.6585C44.179 47.6585 33.5889 43.8311 15.8568 42.443C15.3775 45.8451 15.5206 48.8647 17.7385 52.2654C19.5871 55.1002 22.9248 56.5607 25.9686 57.7854C26.3657 57.9453 26.7628 58.1009 27.1573 58.255C31.2555 59.8567 35.6392 61.0344 40.073 60.8787C45.782 60.6784 51.7909 58.8757 53.8943 53.1668C54.2176 52.2615 54.5066 51.3534 54.7733 50.443L50.6889 49.1097Z" fill="white"/>
</mask>
<g mask="url(#mask5_0_4303)">
<path d="M40.4733 0.0851619C38.4202 0.23533 36.5677 2.58914 35.6159 4.24163C35.2152 4.94296 34.2637 7.04595 35.4155 7.54662C36.7175 8.09745 37.1684 5.99413 37.5189 5.24297C38.5707 2.63898 40.774 1.28683 43.3278 0.585829L40.4733 0.0851619Z" fill="#383434"/>
</g>
<mask id="mask6_0_4303" style="mask-type:luminance" maskUnits="userSpaceOnUse" x="15" y="0" width="46" height="61">
<path d="M50.6889 49.1097C50.6889 49.1097 49.3873 48.5588 49.7876 47.5575C49.7876 47.5575 49.988 46.4057 51.5903 46.8565L55.3859 48.1789C55.5277 47.6122 55.6616 47.0448 55.7885 46.4762L51.8906 45.204C51.8906 45.204 50.5886 44.6532 50.9893 43.6518C50.9893 43.6518 51.1896 42.5 52.7919 42.9505L56.2733 44.1632C56.3982 43.5269 56.518 42.89 56.6335 42.2511L52.7919 40.9974C52.7919 40.9974 51.49 40.4465 51.8906 39.4452C51.8906 39.4452 52.091 38.2934 53.6933 38.7439L57.0432 39.9109C57.152 39.272 57.2601 38.6316 57.3682 37.9901L53.6936 36.791C53.6936 36.791 52.3916 36.2402 52.7923 35.2389C52.7923 35.2389 52.9926 34.0871 54.5949 34.5376L57.7795 35.647C57.8811 35.1547 58.0174 34.5117 58.1766 33.7534L54.5953 32.5844C54.5953 32.5844 53.2929 32.0336 53.6939 31.0322C53.6939 31.0322 53.8943 29.8804 55.4963 30.3312L58.6563 31.4319C58.7783 30.83 58.9055 30.1937 59.0339 29.5325L55.4963 28.3781C55.4963 28.3781 54.1946 27.8273 54.5953 26.8256C54.5953 26.8256 54.7956 25.6738 56.3976 26.1246L59.4738 27.1962C59.5822 26.5984 59.6893 25.9906 59.7932 25.3777L56.0973 24.1715C56.0973 24.1715 54.7956 23.6206 55.1959 22.6193C55.1959 22.6193 55.3963 21.4675 56.9986 21.918L60.1702 23.0229C60.2676 22.373 60.3583 21.7261 60.4408 21.0885L56.9986 19.9651C56.9986 19.9651 55.6969 19.4143 56.0973 18.413C56.0973 18.413 56.2976 17.2612 57.8999 17.7117L60.7101 18.6907C60.9677 15.9255 60.9813 13.539 60.5295 12.1762C59.3184 8.52036 55.4937 6.2358 52.2405 4.25029C48.1387 1.74695 43.3887 0.795137 38.7707 0.18508C34.364 -0.41559 26.1514 0.285409 23.6474 4.69205C23.0497 5.7442 22.3946 7.88247 21.7292 10.6091C25.2371 10.0751 36.8522 8.9728 50.6889 14.8077C50.6889 14.8077 52.5919 15.4087 52.0913 16.7106C52.0913 16.7106 51.8906 17.9126 50.188 17.3116C50.188 17.3116 38.0082 11.616 21.1393 13.1591C20.9981 13.7992 20.8574 14.4581 20.7172 15.1332C24.086 14.6067 35.8023 13.4173 49.7876 19.3146C49.7876 19.3146 51.6906 19.9156 51.1899 21.2176C51.1899 21.2176 50.9893 22.4193 49.2866 21.8186C49.2866 21.8186 37.1205 15.8349 20.2661 17.3631C20.1379 18.011 20.0111 18.6674 19.8855 19.3289C23.3423 18.7975 34.9945 17.6631 48.8863 23.5213C48.8863 23.5213 50.7893 24.1223 50.2886 25.4243C50.2886 25.4243 50.088 26.6259 48.3853 26.0249C48.3853 26.0249 36.2693 20.0655 19.4686 21.56C19.3473 22.2206 19.2278 22.8821 19.11 23.5407C22.718 23.074 34.2585 22.24 47.985 28.0282C47.985 28.0282 49.8879 28.6292 49.3873 29.9312C49.3873 29.9312 49.1866 31.1329 47.484 30.5319C47.484 30.5319 35.4411 24.3161 18.7197 25.7524C18.6006 26.4347 18.4845 27.1091 18.3705 27.7726C21.6991 27.3535 32.7931 26.5638 47.384 31.9339C47.384 31.9339 49.287 32.5349 48.786 33.8369C48.786 33.8369 48.5853 35.0385 46.883 34.4379C46.883 34.4379 35.2848 29.1296 17.9437 30.2895C17.8268 30.9843 17.7142 31.6582 17.6061 32.3058C21.2004 31.9834 32.6883 31.4941 46.4826 36.4409C46.4826 36.4409 48.3856 37.0419 47.8846 38.3439C47.8846 38.3439 47.684 39.5455 45.9817 38.9449C45.9817 38.9449 33.953 33.0275 17.2472 34.4628C17.1261 35.1926 17.0126 35.8716 16.9093 36.4852C20.7049 36.1434 31.963 35.7159 45.5813 40.6475C45.5813 40.6475 47.4843 41.2485 46.9833 42.5505C46.9833 42.5505 46.7827 43.7522 45.0803 43.1515C45.0803 43.1515 33.5524 37.995 16.5261 38.6982C16.4006 39.3387 16.2785 39.9598 16.1669 40.5663C20.3625 40.6685 32.5368 41.3042 44.68 45.1545C44.68 45.1545 46.583 45.7555 46.082 47.0575C46.082 47.0575 45.8813 48.2595 44.179 47.6585C44.179 47.6585 33.5889 43.8311 15.8568 42.443C15.3775 45.8451 15.5206 48.8647 17.7385 52.2654C19.5871 55.1002 22.9248 56.5607 25.9686 57.7854C26.3657 57.9453 26.7628 58.1009 27.1573 58.255C31.2555 59.8567 35.6392 61.0344 40.073 60.8787C45.782 60.6784 51.7909 58.8757 53.8943 53.1668C54.2176 52.2615 54.5066 51.3534 54.7733 50.443L50.6889 49.1097Z" fill="white"/>
</mask>
<g mask="url(#mask6_0_4303)">
<path d="M45.1309 0.835957C44.6299 1.08645 44.0791 1.08645 43.5286 1.33695C42.3266 1.93794 41.0747 3.0396 40.3236 4.14126C39.8226 4.99243 38.8714 6.44491 39.0718 7.49641C39.3721 9.1489 40.7239 8.19741 41.3252 7.34624C42.9276 5.14292 44.7302 1.48744 48.0355 1.73761L45.1309 0.835957Z" fill="#383434"/>
</g>
<mask id="mask7_0_4303" style="mask-type:luminance" maskUnits="userSpaceOnUse" x="15" y="0" width="46" height="61">
<path d="M50.6889 49.1097C50.6889 49.1097 49.3873 48.5588 49.7876 47.5575C49.7876 47.5575 49.988 46.4057 51.5903 46.8565L55.3859 48.1789C55.5277 47.6122 55.6616 47.0448 55.7885 46.4762L51.8906 45.204C51.8906 45.204 50.5886 44.6532 50.9893 43.6518C50.9893 43.6518 51.1896 42.5 52.7919 42.9505L56.2733 44.1632C56.3982 43.5269 56.518 42.89 56.6335 42.2511L52.7919 40.9974C52.7919 40.9974 51.49 40.4465 51.8906 39.4452C51.8906 39.4452 52.091 38.2934 53.6933 38.7439L57.0432 39.9109C57.152 39.272 57.2601 38.6316 57.3682 37.9901L53.6936 36.791C53.6936 36.791 52.3916 36.2402 52.7923 35.2389C52.7923 35.2389 52.9926 34.0871 54.5949 34.5376L57.7795 35.647C57.8811 35.1547 58.0174 34.5117 58.1766 33.7534L54.5953 32.5844C54.5953 32.5844 53.2929 32.0336 53.6939 31.0322C53.6939 31.0322 53.8943 29.8804 55.4963 30.3312L58.6563 31.4319C58.7783 30.83 58.9055 30.1937 59.0339 29.5325L55.4963 28.3781C55.4963 28.3781 54.1946 27.8273 54.5953 26.8256C54.5953 26.8256 54.7956 25.6738 56.3976 26.1246L59.4738 27.1962C59.5822 26.5984 59.6893 25.9906 59.7932 25.3777L56.0973 24.1715C56.0973 24.1715 54.7956 23.6206 55.1959 22.6193C55.1959 22.6193 55.3963 21.4675 56.9986 21.918L60.1702 23.0229C60.2676 22.373 60.3583 21.7261 60.4408 21.0885L56.9986 19.9651C56.9986 19.9651 55.6969 19.4143 56.0973 18.413C56.0973 18.413 56.2976 17.2612 57.8999 17.7117L60.7101 18.6907C60.9677 15.9255 60.9813 13.539 60.5295 12.1762C59.3184 8.52036 55.4937 6.2358 52.2405 4.25029C48.1387 1.74695 43.3887 0.795137 38.7707 0.18508C34.364 -0.41559 26.1514 0.285409 23.6474 4.69205C23.0497 5.7442 22.3946 7.88247 21.7292 10.6091C25.2371 10.0751 36.8522 8.9728 50.6889 14.8077C50.6889 14.8077 52.5919 15.4087 52.0913 16.7106C52.0913 16.7106 51.8906 17.9126 50.188 17.3116C50.188 17.3116 38.0082 11.616 21.1393 13.1591C20.9981 13.7992 20.8574 14.4581 20.7172 15.1332C24.086 14.6067 35.8023 13.4173 49.7876 19.3146C49.7876 19.3146 51.6906 19.9156 51.1899 21.2176C51.1899 21.2176 50.9893 22.4193 49.2866 21.8186C49.2866 21.8186 37.1205 15.8349 20.2661 17.3631C20.1379 18.011 20.0111 18.6674 19.8855 19.3289C23.3423 18.7975 34.9945 17.6631 48.8863 23.5213C48.8863 23.5213 50.7893 24.1223 50.2886 25.4243C50.2886 25.4243 50.088 26.6259 48.3853 26.0249C48.3853 26.0249 36.2693 20.0655 19.4686 21.56C19.3473 22.2206 19.2278 22.8821 19.11 23.5407C22.718 23.074 34.2585 22.24 47.985 28.0282C47.985 28.0282 49.8879 28.6292 49.3873 29.9312C49.3873 29.9312 49.1866 31.1329 47.484 30.5319C47.484 30.5319 35.4411 24.3161 18.7197 25.7524C18.6006 26.4347 18.4845 27.1091 18.3705 27.7726C21.6991 27.3535 32.7931 26.5638 47.384 31.9339C47.384 31.9339 49.287 32.5349 48.786 33.8369C48.786 33.8369 48.5853 35.0385 46.883 34.4379C46.883 34.4379 35.2848 29.1296 17.9437 30.2895C17.8268 30.9843 17.7142 31.6582 17.6061 32.3058C21.2004 31.9834 32.6883 31.4941 46.4826 36.4409C46.4826 36.4409 48.3856 37.0419 47.8846 38.3439C47.8846 38.3439 47.684 39.5455 45.9817 38.9449C45.9817 38.9449 33.953 33.0275 17.2472 34.4628C17.1261 35.1926 17.0126 35.8716 16.9093 36.4852C20.7049 36.1434 31.963 35.7159 45.5813 40.6475C45.5813 40.6475 47.4843 41.2485 46.9833 42.5505C46.9833 42.5505 46.7827 43.7522 45.0803 43.1515C45.0803 43.1515 33.5524 37.995 16.5261 38.6982C16.4006 39.3387 16.2785 39.9598 16.1669 40.5663C20.3625 40.6685 32.5368 41.3042 44.68 45.1545C44.68 45.1545 46.583 45.7555 46.082 47.0575C46.082 47.0575 45.8813 48.2595 44.179 47.6585C44.179 47.6585 33.5889 43.8311 15.8568 42.443C15.3775 45.8451 15.5206 48.8647 17.7385 52.2654C19.5871 55.1002 22.9248 56.5607 25.9686 57.7854C26.3657 57.9453 26.7628 58.1009 27.1573 58.255C31.2555 59.8567 35.6392 61.0344 40.073 60.8787C45.782 60.6784 51.7909 58.8757 53.8943 53.1668C54.2176 52.2615 54.5066 51.3534 54.7733 50.443L50.6889 49.1097Z" fill="white"/>
</mask>
<g mask="url(#mask7_0_4303)">
<path d="M19.391 54.8673C18.2893 53.6155 17.4378 51.8125 17.0375 50.2102C16.8371 49.3089 16.687 48.3072 16.7371 47.356C16.7873 46.6049 17.4883 44.5517 18.2395 45.9537C18.5401 46.5547 18.3398 47.8564 18.3398 48.5079C18.39 49.459 18.49 50.3607 18.6404 51.262C18.9408 53.0145 19.6919 54.3165 20.5434 55.8188L19.391 54.8673Z" fill="#383434"/>
</g>
<mask id="mask8_0_4303" style="mask-type:luminance" maskUnits="userSpaceOnUse" x="15" y="0" width="46" height="61">
<path d="M50.6889 49.1097C50.6889 49.1097 49.3873 48.5588 49.7876 47.5575C49.7876 47.5575 49.988 46.4057 51.5903 46.8565L55.3859 48.1789C55.5277 47.6122 55.6616 47.0448 55.7885 46.4762L51.8906 45.204C51.8906 45.204 50.5886 44.6532 50.9893 43.6518C50.9893 43.6518 51.1896 42.5 52.7919 42.9505L56.2733 44.1632C56.3982 43.5269 56.518 42.89 56.6335 42.2511L52.7919 40.9974C52.7919 40.9974 51.49 40.4465 51.8906 39.4452C51.8906 39.4452 52.091 38.2934 53.6933 38.7439L57.0432 39.9109C57.152 39.272 57.2601 38.6316 57.3682 37.9901L53.6936 36.791C53.6936 36.791 52.3916 36.2402 52.7923 35.2389C52.7923 35.2389 52.9926 34.0871 54.5949 34.5376L57.7795 35.647C57.8811 35.1547 58.0174 34.5117 58.1766 33.7534L54.5953 32.5844C54.5953 32.5844 53.2929 32.0336 53.6939 31.0322C53.6939 31.0322 53.8943 29.8804 55.4963 30.3312L58.6563 31.4319C58.7783 30.83 58.9055 30.1937 59.0339 29.5325L55.4963 28.3781C55.4963 28.3781 54.1946 27.8273 54.5953 26.8256C54.5953 26.8256 54.7956 25.6738 56.3976 26.1246L59.4738 27.1962C59.5822 26.5984 59.6893 25.9906 59.7932 25.3777L56.0973 24.1715C56.0973 24.1715 54.7956 23.6206 55.1959 22.6193C55.1959 22.6193 55.3963 21.4675 56.9986 21.918L60.1702 23.0229C60.2676 22.373 60.3583 21.7261 60.4408 21.0885L56.9986 19.9651C56.9986 19.9651 55.6969 19.4143 56.0973 18.413C56.0973 18.413 56.2976 17.2612 57.8999 17.7117L60.7101 18.6907C60.9677 15.9255 60.9813 13.539 60.5295 12.1762C59.3184 8.52036 55.4937 6.2358 52.2405 4.25029C48.1387 1.74695 43.3887 0.795137 38.7707 0.18508C34.364 -0.41559 26.1514 0.285409 23.6474 4.69205C23.0497 5.7442 22.3946 7.88247 21.7292 10.6091C25.2371 10.0751 36.8522 8.9728 50.6889 14.8077C50.6889 14.8077 52.5919 15.4087 52.0913 16.7106C52.0913 16.7106 51.8906 17.9126 50.188 17.3116C50.188 17.3116 38.0082 11.616 21.1393 13.1591C20.9981 13.7992 20.8574 14.4581 20.7172 15.1332C24.086 14.6067 35.8023 13.4173 49.7876 19.3146C49.7876 19.3146 51.6906 19.9156 51.1899 21.2176C51.1899 21.2176 50.9893 22.4193 49.2866 21.8186C49.2866 21.8186 37.1205 15.8349 20.2661 17.3631C20.1379 18.011 20.0111 18.6674 19.8855 19.3289C23.3423 18.7975 34.9945 17.6631 48.8863 23.5213C48.8863 23.5213 50.7893 24.1223 50.2886 25.4243C50.2886 25.4243 50.088 26.6259 48.3853 26.0249C48.3853 26.0249 36.2693 20.0655 19.4686 21.56C19.3473 22.2206 19.2278 22.8821 19.11 23.5407C22.718 23.074 34.2585 22.24 47.985 28.0282C47.985 28.0282 49.8879 28.6292 49.3873 29.9312C49.3873 29.9312 49.1866 31.1329 47.484 30.5319C47.484 30.5319 35.4411 24.3161 18.7197 25.7524C18.6006 26.4347 18.4845 27.1091 18.3705 27.7726C21.6991 27.3535 32.7931 26.5638 47.384 31.9339C47.384 31.9339 49.287 32.5349 48.786 33.8369C48.786 33.8369 48.5853 35.0385 46.883 34.4379C46.883 34.4379 35.2848 29.1296 17.9437 30.2895C17.8268 30.9843 17.7142 31.6582 17.6061 32.3058C21.2004 31.9834 32.6883 31.4941 46.4826 36.4409C46.4826 36.4409 48.3856 37.0419 47.8846 38.3439C47.8846 38.3439 47.684 39.5455 45.9817 38.9449C45.9817 38.9449 33.953 33.0275 17.2472 34.4628C17.1261 35.1926 17.0126 35.8716 16.9093 36.4852C20.7049 36.1434 31.963 35.7159 45.5813 40.6475C45.5813 40.6475 47.4843 41.2485 46.9833 42.5505C46.9833 42.5505 46.7827 43.7522 45.0803 43.1515C45.0803 43.1515 33.5524 37.995 16.5261 38.6982C16.4006 39.3387 16.2785 39.9598 16.1669 40.5663C20.3625 40.6685 32.5368 41.3042 44.68 45.1545C44.68 45.1545 46.583 45.7555 46.082 47.0575C46.082 47.0575 45.8813 48.2595 44.179 47.6585C44.179 47.6585 33.5889 43.8311 15.8568 42.443C15.3775 45.8451 15.5206 48.8647 17.7385 52.2654C19.5871 55.1002 22.9248 56.5607 25.9686 57.7854C26.3657 57.9453 26.7628 58.1009 27.1573 58.255C31.2555 59.8567 35.6392 61.0344 40.073 60.8787C45.782 60.6784 51.7909 58.8757 53.8943 53.1668C54.2176 52.2615 54.5066 51.3534 54.7733 50.443L50.6889 49.1097Z" fill="white"/>
</mask>
<g mask="url(#mask8_0_4303)">
<path d="M23.798 57.071C22.596 56.0195 21.2943 55.2182 20.6432 53.6158C19.8418 51.7128 19.5415 49.3092 19.792 47.2059C19.9422 45.7035 21.2943 45.7537 21.4448 47.256C21.5448 48.3577 21.4448 49.5095 21.4947 50.661C21.6448 53.265 22.3462 55.0178 24.4993 56.6202C25.3505 57.2713 26.2016 57.8221 26.903 58.5228L23.798 57.071Z" fill="#383434"/>
</g>
<mask id="mask9_0_4303" style="mask-type:luminance" maskUnits="userSpaceOnUse" x="15" y="0" width="46" height="61">
<path d="M50.6889 49.1097C50.6889 49.1097 49.3873 48.5588 49.7876 47.5575C49.7876 47.5575 49.988 46.4057 51.5903 46.8565L55.3859 48.1789C55.5277 47.6122 55.6616 47.0448 55.7885 46.4762L51.8906 45.204C51.8906 45.204 50.5886 44.6532 50.9893 43.6518C50.9893 43.6518 51.1896 42.5 52.7919 42.9505L56.2733 44.1632C56.3982 43.5269 56.518 42.89 56.6335 42.2511L52.7919 40.9974C52.7919 40.9974 51.49 40.4465 51.8906 39.4452C51.8906 39.4452 52.091 38.2934 53.6933 38.7439L57.0432 39.9109C57.152 39.272 57.2601 38.6316 57.3682 37.9901L53.6936 36.791C53.6936 36.791 52.3916 36.2402 52.7923 35.2389C52.7923 35.2389 52.9926 34.0871 54.5949 34.5376L57.7795 35.647C57.8811 35.1547 58.0174 34.5117 58.1766 33.7534L54.5953 32.5844C54.5953 32.5844 53.2929 32.0336 53.6939 31.0322C53.6939 31.0322 53.8943 29.8804 55.4963 30.3312L58.6563 31.4319C58.7783 30.83 58.9055 30.1937 59.0339 29.5325L55.4963 28.3781C55.4963 28.3781 54.1946 27.8273 54.5953 26.8256C54.5953 26.8256 54.7956 25.6738 56.3976 26.1246L59.4738 27.1962C59.5822 26.5984 59.6893 25.9906 59.7932 25.3777L56.0973 24.1715C56.0973 24.1715 54.7956 23.6206 55.1959 22.6193C55.1959 22.6193 55.3963 21.4675 56.9986 21.918L60.1702 23.0229C60.2676 22.373 60.3583 21.7261 60.4408 21.0885L56.9986 19.9651C56.9986 19.9651 55.6969 19.4143 56.0973 18.413C56.0973 18.413 56.2976 17.2612 57.8999 17.7117L60.7101 18.6907C60.9677 15.9255 60.9813 13.539 60.5295 12.1762C59.3184 8.52036 55.4937 6.2358 52.2405 4.25029C48.1387 1.74695 43.3887 0.795137 38.7707 0.18508C34.364 -0.41559 26.1514 0.285409 23.6474 4.69205C23.0497 5.7442 22.3946 7.88247 21.7292 10.6091C25.2371 10.0751 36.8522 8.9728 50.6889 14.8077C50.6889 14.8077 52.5919 15.4087 52.0913 16.7106C52.0913 16.7106 51.8906 17.9126 50.188 17.3116C50.188 17.3116 38.0082 11.616 21.1393 13.1591C20.9981 13.7992 20.8574 14.4581 20.7172 15.1332C24.086 14.6067 35.8023 13.4173 49.7876 19.3146C49.7876 19.3146 51.6906 19.9156 51.1899 21.2176C51.1899 21.2176 50.9893 22.4193 49.2866 21.8186C49.2866 21.8186 37.1205 15.8349 20.2661 17.3631C20.1379 18.011 20.0111 18.6674 19.8855 19.3289C23.3423 18.7975 34.9945 17.6631 48.8863 23.5213C48.8863 23.5213 50.7893 24.1223 50.2886 25.4243C50.2886 25.4243 50.088 26.6259 48.3853 26.0249C48.3853 26.0249 36.2693 20.0655 19.4686 21.56C19.3473 22.2206 19.2278 22.8821 19.11 23.5407C22.718 23.074 34.2585 22.24 47.985 28.0282C47.985 28.0282 49.8879 28.6292 49.3873 29.9312C49.3873 29.9312 49.1866 31.1329 47.484 30.5319C47.484 30.5319 35.4411 24.3161 18.7197 25.7524C18.6006 26.4347 18.4845 27.1091 18.3705 27.7726C21.6991 27.3535 32.7931 26.5638 47.384 31.9339C47.384 31.9339 49.287 32.5349 48.786 33.8369C48.786 33.8369 48.5853 35.0385 46.883 34.4379C46.883 34.4379 35.2848 29.1296 17.9437 30.2895C17.8268 30.9843 17.7142 31.6582 17.6061 32.3058C21.2004 31.9834 32.6883 31.4941 46.4826 36.4409C46.4826 36.4409 48.3856 37.0419 47.8846 38.3439C47.8846 38.3439 47.684 39.5455 45.9817 38.9449C45.9817 38.9449 33.953 33.0275 17.2472 34.4628C17.1261 35.1926 17.0126 35.8716 16.9093 36.4852C20.7049 36.1434 31.963 35.7159 45.5813 40.6475C45.5813 40.6475 47.4843 41.2485 46.9833 42.5505C46.9833 42.5505 46.7827 43.7522 45.0803 43.1515C45.0803 43.1515 33.5524 37.995 16.5261 38.6982C16.4006 39.3387 16.2785 39.9598 16.1669 40.5663C20.3625 40.6685 32.5368 41.3042 44.68 45.1545C44.68 45.1545 46.583 45.7555 46.082 47.0575C46.082 47.0575 45.8813 48.2595 44.179 47.6585C44.179 47.6585 33.5889 43.8311 15.8568 42.443C15.3775 45.8451 15.5206 48.8647 17.7385 52.2654C19.5871 55.1002 22.9248 56.5607 25.9686 57.7854C26.3657 57.9453 26.7628 58.1009 27.1573 58.255C31.2555 59.8567 35.6392 61.0344 40.073 60.8787C45.782 60.6784 51.7909 58.8757 53.8943 53.1668C54.2176 52.2615 54.5066 51.3534 54.7733 50.443L50.6889 49.1097Z" fill="white"/>
</mask>
<g mask="url(#mask9_0_4303)">
<path d="M31.4598 59.8757C29.8575 58.774 28.3551 57.8229 27.003 56.3205C25.4007 54.5677 24.8997 51.9136 24.8997 49.5601C24.8997 48.8089 25.2 46.7558 24.2987 46.4053C22.9465 45.9046 22.9967 48.5086 23.097 49.1594C23.3973 51.7132 23.2973 53.8162 24.9498 55.8196C26.1515 57.2216 28.405 58.6239 29.9073 59.6255L31.4598 59.8757Z" fill="#383434"/>
</g>
<mask id="mask10_0_4303" style="mask-type:luminance" maskUnits="userSpaceOnUse" x="15" y="0" width="46" height="61">
<path d="M50.6889 49.1097C50.6889 49.1097 49.3873 48.5588 49.7876 47.5575C49.7876 47.5575 49.988 46.4057 51.5903 46.8565L55.3859 48.1789C55.5277 47.6122 55.6616 47.0448 55.7885 46.4762L51.8906 45.204C51.8906 45.204 50.5886 44.6532 50.9893 43.6518C50.9893 43.6518 51.1896 42.5 52.7919 42.9505L56.2733 44.1632C56.3982 43.5269 56.518 42.89 56.6335 42.2511L52.7919 40.9974C52.7919 40.9974 51.49 40.4465 51.8906 39.4452C51.8906 39.4452 52.091 38.2934 53.6933 38.7439L57.0432 39.9109C57.152 39.272 57.2601 38.6316 57.3682 37.9901L53.6936 36.791C53.6936 36.791 52.3916 36.2402 52.7923 35.2389C52.7923 35.2389 52.9926 34.0871 54.5949 34.5376L57.7795 35.647C57.8811 35.1547 58.0174 34.5117 58.1766 33.7534L54.5953 32.5844C54.5953 32.5844 53.2929 32.0336 53.6939 31.0322C53.6939 31.0322 53.8943 29.8804 55.4963 30.3312L58.6563 31.4319C58.7783 30.83 58.9055 30.1937 59.0339 29.5325L55.4963 28.3781C55.4963 28.3781 54.1946 27.8273 54.5953 26.8256C54.5953 26.8256 54.7956 25.6738 56.3976 26.1246L59.4738 27.1962C59.5822 26.5984 59.6893 25.9906 59.7932 25.3777L56.0973 24.1715C56.0973 24.1715 54.7956 23.6206 55.1959 22.6193C55.1959 22.6193 55.3963 21.4675 56.9986 21.918L60.1702 23.0229C60.2676 22.373 60.3583 21.7261 60.4408 21.0885L56.9986 19.9651C56.9986 19.9651 55.6969 19.4143 56.0973 18.413C56.0973 18.413 56.2976 17.2612 57.8999 17.7117L60.7101 18.6907C60.9677 15.9255 60.9813 13.539 60.5295 12.1762C59.3184 8.52036 55.4937 6.2358 52.2405 4.25029C48.1387 1.74695 43.3887 0.795137 38.7707 0.18508C34.364 -0.41559 26.1514 0.285409 23.6474 4.69205C23.0497 5.7442 22.3946 7.88247 21.7292 10.6091C25.2371 10.0751 36.8522 8.9728 50.6889 14.8077C50.6889 14.8077 52.5919 15.4087 52.0913 16.7106C52.0913 16.7106 51.8906 17.9126 50.188 17.3116C50.188 17.3116 38.0082 11.616 21.1393 13.1591C20.9981 13.7992 20.8574 14.4581 20.7172 15.1332C24.086 14.6067 35.8023 13.4173 49.7876 19.3146C49.7876 19.3146 51.6906 19.9156 51.1899 21.2176C51.1899 21.2176 50.9893 22.4193 49.2866 21.8186C49.2866 21.8186 37.1205 15.8349 20.2661 17.3631C20.1379 18.011 20.0111 18.6674 19.8855 19.3289C23.3423 18.7975 34.9945 17.6631 48.8863 23.5213C48.8863 23.5213 50.7893 24.1223 50.2886 25.4243C50.2886 25.4243 50.088 26.6259 48.3853 26.0249C48.3853 26.0249 36.2693 20.0655 19.4686 21.56C19.3473 22.2206 19.2278 22.8821 19.11 23.5407C22.718 23.074 34.2585 22.24 47.985 28.0282C47.985 28.0282 49.8879 28.6292 49.3873 29.9312C49.3873 29.9312 49.1866 31.1329 47.484 30.5319C47.484 30.5319 35.4411 24.3161 18.7197 25.7524C18.6006 26.4347 18.4845 27.1091 18.3705 27.7726C21.6991 27.3535 32.7931 26.5638 47.384 31.9339C47.384 31.9339 49.287 32.5349 48.786 33.8369C48.786 33.8369 48.5853 35.0385 46.883 34.4379C46.883 34.4379 35.2848 29.1296 17.9437 30.2895C17.8268 30.9843 17.7142 31.6582 17.6061 32.3058C21.2004 31.9834 32.6883 31.4941 46.4826 36.4409C46.4826 36.4409 48.3856 37.0419 47.8846 38.3439C47.8846 38.3439 47.684 39.5455 45.9817 38.9449C45.9817 38.9449 33.953 33.0275 17.2472 34.4628C17.1261 35.1926 17.0126 35.8716 16.9093 36.4852C20.7049 36.1434 31.963 35.7159 45.5813 40.6475C45.5813 40.6475 47.4843 41.2485 46.9833 42.5505C46.9833 42.5505 46.7827 43.7522 45.0803 43.1515C45.0803 43.1515 33.5524 37.995 16.5261 38.6982C16.4006 39.3387 16.2785 39.9598 16.1669 40.5663C20.3625 40.6685 32.5368 41.3042 44.68 45.1545C44.68 45.1545 46.583 45.7555 46.082 47.0575C46.082 47.0575 45.8813 48.2595 44.179 47.6585C44.179 47.6585 33.5889 43.8311 15.8568 42.443C15.3775 45.8451 15.5206 48.8647 17.7385 52.2654C19.5871 55.1002 22.9248 56.5607 25.9686 57.7854C26.3657 57.9453 26.7628 58.1009 27.1573 58.255C31.2555 59.8567 35.6392 61.0344 40.073 60.8787C45.782 60.6784 51.7909 58.8757 53.8943 53.1668C54.2176 52.2615 54.5066 51.3534 54.7733 50.443L50.6889 49.1097Z" fill="white"/>
</mask>
<g mask="url(#mask10_0_4303)">
<path d="M34.965 60.627C31.5099 58.9244 27.7039 56.2705 26.7524 52.2141C26.5019 51.2124 26.5019 50.0609 26.5521 49.0091C26.5521 48.5583 26.5521 47.8074 26.9026 47.4569C27.4032 46.9061 28.0042 47.1566 28.3046 47.7572C28.7052 48.6586 28.4049 50.1609 28.4547 51.1622C28.5551 52.2639 28.8554 53.4157 29.3561 54.4174C30.9587 57.522 34.464 59.325 37.3185 60.8772L34.965 60.627Z" fill="#383434"/>
</g>
<mask id="mask11_0_4303" style="mask-type:luminance" maskUnits="userSpaceOnUse" x="15" y="0" width="46" height="61">
<path d="M50.6889 49.1097C50.6889 49.1097 49.3873 48.5588 49.7876 47.5575C49.7876 47.5575 49.988 46.4057 51.5903 46.8565L55.3859 48.1789C55.5277 47.6122 55.6616 47.0448 55.7885 46.4762L51.8906 45.204C51.8906 45.204 50.5886 44.6532 50.9893 43.6518C50.9893 43.6518 51.1896 42.5 52.7919 42.9505L56.2733 44.1632C56.3982 43.5269 56.518 42.89 56.6335 42.2511L52.7919 40.9974C52.7919 40.9974 51.49 40.4465 51.8906 39.4452C51.8906 39.4452 52.091 38.2934 53.6933 38.7439L57.0432 39.9109C57.152 39.272 57.2601 38.6316 57.3682 37.9901L53.6936 36.791C53.6936 36.791 52.3916 36.2402 52.7923 35.2389C52.7923 35.2389 52.9926 34.0871 54.5949 34.5376L57.7795 35.647C57.8811 35.1547 58.0174 34.5117 58.1766 33.7534L54.5953 32.5844C54.5953 32.5844 53.2929 32.0336 53.6939 31.0322C53.6939 31.0322 53.8943 29.8804 55.4963 30.3312L58.6563 31.4319C58.7783 30.83 58.9055 30.1937 59.0339 29.5325L55.4963 28.3781C55.4963 28.3781 54.1946 27.8273 54.5953 26.8256C54.5953 26.8256 54.7956 25.6738 56.3976 26.1246L59.4738 27.1962C59.5822 26.5984 59.6893 25.9906 59.7932 25.3777L56.0973 24.1715C56.0973 24.1715 54.7956 23.6206 55.1959 22.6193C55.1959 22.6193 55.3963 21.4675 56.9986 21.918L60.1702 23.0229C60.2676 22.373 60.3583 21.7261 60.4408 21.0885L56.9986 19.9651C56.9986 19.9651 55.6969 19.4143 56.0973 18.413C56.0973 18.413 56.2976 17.2612 57.8999 17.7117L60.7101 18.6907C60.9677 15.9255 60.9813 13.539 60.5295 12.1762C59.3184 8.52036 55.4937 6.2358 52.2405 4.25029C48.1387 1.74695 43.3887 0.795137 38.7707 0.18508C34.364 -0.41559 26.1514 0.285409 23.6474 4.69205C23.0497 5.7442 22.3946 7.88247 21.7292 10.6091C25.2371 10.0751 36.8522 8.9728 50.6889 14.8077C50.6889 14.8077 52.5919 15.4087 52.0913 16.7106C52.0913 16.7106 51.8906 17.9126 50.188 17.3116C50.188 17.3116 38.0082 11.616 21.1393 13.1591C20.9981 13.7992 20.8574 14.4581 20.7172 15.1332C24.086 14.6067 35.8023 13.4173 49.7876 19.3146C49.7876 19.3146 51.6906 19.9156 51.1899 21.2176C51.1899 21.2176 50.9893 22.4193 49.2866 21.8186C49.2866 21.8186 37.1205 15.8349 20.2661 17.3631C20.1379 18.011 20.0111 18.6674 19.8855 19.3289C23.3423 18.7975 34.9945 17.6631 48.8863 23.5213C48.8863 23.5213 50.7893 24.1223 50.2886 25.4243C50.2886 25.4243 50.088 26.6259 48.3853 26.0249C48.3853 26.0249 36.2693 20.0655 19.4686 21.56C19.3473 22.2206 19.2278 22.8821 19.11 23.5407C22.718 23.074 34.2585 22.24 47.985 28.0282C47.985 28.0282 49.8879 28.6292 49.3873 29.9312C49.3873 29.9312 49.1866 31.1329 47.484 30.5319C47.484 30.5319 35.4411 24.3161 18.7197 25.7524C18.6006 26.4347 18.4845 27.1091 18.3705 27.7726C21.6991 27.3535 32.7931 26.5638 47.384 31.9339C47.384 31.9339 49.287 32.5349 48.786 33.8369C48.786 33.8369 48.5853 35.0385 46.883 34.4379C46.883 34.4379 35.2848 29.1296 17.9437 30.2895C17.8268 30.9843 17.7142 31.6582 17.6061 32.3058C21.2004 31.9834 32.6883 31.4941 46.4826 36.4409C46.4826 36.4409 48.3856 37.0419 47.8846 38.3439C47.8846 38.3439 47.684 39.5455 45.9817 38.9449C45.9817 38.9449 33.953 33.0275 17.2472 34.4628C17.1261 35.1926 17.0126 35.8716 16.9093 36.4852C20.7049 36.1434 31.963 35.7159 45.5813 40.6475C45.5813 40.6475 47.4843 41.2485 46.9833 42.5505C46.9833 42.5505 46.7827 43.7522 45.0803 43.1515C45.0803 43.1515 33.5524 37.995 16.5261 38.6982C16.4006 39.3387 16.2785 39.9598 16.1669 40.5663C20.3625 40.6685 32.5368 41.3042 44.68 45.1545C44.68 45.1545 46.583 45.7555 46.082 47.0575C46.082 47.0575 45.8813 48.2595 44.179 47.6585C44.179 47.6585 33.5889 43.8311 15.8568 42.443C15.3775 45.8451 15.5206 48.8647 17.7385 52.2654C19.5871 55.1002 22.9248 56.5607 25.9686 57.7854C26.3657 57.9453 26.7628 58.1009 27.1573 58.255C31.2555 59.8567 35.6392 61.0344 40.073 60.8787C45.782 60.6784 51.7909 58.8757 53.8943 53.1668C54.2176 52.2615 54.5066 51.3534 54.7733 50.443L50.6889 49.1097Z" fill="white"/>
</mask>
<g mask="url(#mask11_0_4303)">
<path d="M42.0757 61.0276C40.3233 60.6771 38.4199 59.7757 36.8678 58.9246C34.9648 57.8731 32.2106 56.0701 31.3595 54.0169C30.8585 52.8651 30.0073 48.6086 31.6598 48.0578C33.6628 47.3565 33.112 52.1641 33.4625 53.2156C34.2136 55.4691 36.2668 56.8212 38.1196 58.0727C39.7718 59.2246 41.2744 60.0259 43.0771 60.8272L42.0757 61.0276Z" fill="#383434"/>
</g>
<path d="M28.1458 22.6255C29.5459 15.533 30.7336 9.4745 30.7336 9.4745H28.5552C28.0312 10.9885 26.8755 16.4741 25.6561 22.6255C24.935 24.2838 22.4333 25.5515 22.4333 25.5515L22.2838 27.4898C24.3502 28.1163 24.1058 30.5996 24.1058 30.5996C22.7559 37.6581 21.6446 43.7266 21.6446 43.7266L23.823 44.1775C24.2023 42.4557 25.3302 36.8325 26.5677 30.5999C27.5849 28.0642 30.007 27.8108 30.007 27.8108L30.554 25.9253C28.7601 25.2499 28.1458 22.6255 28.1458 22.6255Z" fill="#A0A0A0"/>
<path d="M28.1124 26.497C28.1124 27.7126 27.1062 28.698 25.8648 28.698C24.6236 28.698 23.6174 27.7126 23.6174 26.497C23.6174 25.2811 24.6236 24.2956 25.8648 24.2956C27.1059 24.2956 28.1124 25.2811 28.1124 26.497Z" fill="#777777"/>
<path d="M28.7131 26.7972C28.7131 28.0128 27.7069 28.9986 26.4657 28.9986C25.2243 28.9986 24.2184 28.0131 24.2184 26.7972C24.2184 25.5816 25.2246 24.5961 26.4657 24.5961C27.7069 24.5961 28.7131 25.5816 28.7131 26.7972Z" fill="#A0A0A0"/>
<path d="M33.7757 82.877C33.7757 82.877 26.5388 80.585 26.5864 82.0317L25.9667 101.811C25.9667 101.811 31.2526 103.364 32.3488 103.793C33.0637 104.079 33.1589 104.079 33.8262 103.936V82.8709L33.7757 82.877Z" fill="#6B6B6B"/>
<path d="M39.7841 82.8223C39.6411 82.0601 39.498 82.2501 38.6876 82.298L33.8263 82.8715V103.936C34.303 103.841 40.9278 102.166 41.2615 101.499C41.5 101.165 39.9747 83.5372 39.7841 82.8223Z" fill="#464A4C"/>
<path d="M27.4905 82.2419L26.9513 101.19L32.9923 102.969V83.552C32.9923 83.552 29.6482 82.4422 27.4905 82.2419Z" fill="#F3FAFF"/>
<mask id="mask12_0_4303" style="mask-type:luminance" maskUnits="userSpaceOnUse" x="21" y="87" width="11" height="8">
<path d="M28.6607 87.1509L31.4159 87.9869V94.86L28.5229 94.024L23.5398 94.4878L21.6385 87.3678L28.6607 87.1509Z" fill="white"/>
</mask>
<g mask="url(#mask12_0_4303)">
<path d="M28.6606 87.1509L31.4157 87.9869V94.86L28.5227 94.024L28.6606 87.1509Z" fill="#383434"/>
</g>
<mask id="mask13_0_4303" style="mask-type:luminance" maskUnits="userSpaceOnUse" x="21" y="87" width="11" height="8">
<path d="M28.6607 87.1509L31.4159 87.9869V94.86L28.5229 94.024L23.5398 94.4878L21.6385 87.3678L28.6607 87.1509Z" fill="white"/>
</mask>
<g mask="url(#mask13_0_4303)">
<path d="M31.3539 86.8416C30.0536 87.151 28.7843 87.6465 27.5153 88.1109C26.8962 88.3274 26.0913 88.5443 25.7197 89.1016C25.3789 89.6281 25.3482 90.4327 25.3482 91.0518C25.2864 92.6619 26.8512 94.0548 28.5231 94.0241C29.9778 93.993 31.4594 93.7982 32.6672 93.0551C32.9456 92.8697 33.7372 92.3939 33.9845 92.2392L31.3539 86.8416Z" fill="#A0A0A0"/>
<path d="M33.6195 87.1656C32.3191 87.475 31.0498 87.9705 29.7808 88.4349C29.1617 88.6514 28.3568 88.8683 27.9853 89.4256C27.6445 89.9521 27.6138 90.7567 27.6138 91.3758C27.552 92.9859 28.4187 93.9766 30.0906 93.9455C31.5453 93.9144 32.9693 92.8616 34.1771 92.1186C34.4555 91.9331 34.7962 91.7474 35.0438 91.5923L33.6195 87.1656Z" fill="#777777"/>
</g>
<defs>
<linearGradient id="paint0_linear_0_4303" x1="36.7236" y1="26.5466" x2="55.3458" y2="33.3246" gradientUnits="userSpaceOnUse">
<stop stop-color="white"/>
<stop offset="0.1341" stop-color="white" stop-opacity="0.8659"/>
<stop offset="1" stop-color="white" stop-opacity="0"/>
</linearGradient>
</defs>
</svg>
