<svg width="98" height="98" viewBox="0 0 98 98" fill="none" xmlns="http://www.w3.org/2000/svg">
<path d="M28.1396 7.80154C24.8474 9.42619 22.9159 12.971 23.3324 16.6227C23.3868 17.0995 23.7908 17.4511 24.2594 17.4511C24.295 17.4511 24.3306 17.4492 24.3666 17.4452C24.8794 17.3868 25.2476 16.9238 25.1893 16.411C24.8618 13.5405 26.3796 10.7538 28.9663 9.47692C29.4293 9.24876 29.6192 8.68851 29.3906 8.22588C29.1625 7.76268 28.6015 7.57166 28.1396 7.80154Z" fill="black" fill-opacity="0.15"/>
<path d="M73.6547 38.4135C73.1916 38.642 73.0018 39.2023 73.2299 39.6649C76.5242 46.339 77.0221 53.8973 74.6314 60.9468C74.4658 61.4358 74.7277 61.966 75.2163 62.132C75.3159 62.1653 75.4171 62.1817 75.5165 62.1817C75.9062 62.1817 76.2693 61.9363 76.4015 61.5472C78.9518 54.0246 78.4207 45.9598 74.9055 38.8382C74.6779 38.3756 74.1177 38.1863 73.6547 38.4135Z" fill="black" fill-opacity="0.15"/>
<path d="M15.657 40.9532C12.8765 49.1561 13.2645 57.9145 16.7214 65.7922L10.1541 69.9985C7.96097 71.4044 7.32148 74.3153 8.72659 76.5088C10.1353 78.7092 13.0507 79.3367 15.2369 77.9363L21.6442 73.833C25.6771 78.7644 31.0107 82.4883 37.1943 84.5848C43.3376 86.6671 49.8267 86.9891 56.0799 85.5143L58.6677 92.6608C59.5522 95.1018 62.2474 96.3766 64.7039 95.4871C67.1478 94.6015 68.4185 91.905 67.5302 89.4509L64.8748 82.118C72.4099 77.9666 78.0449 71.2499 80.8259 63.048C83.5113 55.1257 83.234 46.6872 80.0982 39.0223L82.3543 37.9087L86.0997 45.4964C86.2622 45.8258 86.5933 46.017 86.9382 46.017C87.077 46.017 87.2179 45.986 87.3507 45.9208L89.1848 45.0156C95.8086 41.7458 98.5373 33.6962 95.2677 27.0718C91.9979 20.448 83.9479 17.7188 77.3245 20.9889L75.491 21.8941C75.0284 22.1223 74.8387 22.6825 75.0672 23.1455L78.8127 30.7331L76.2404 32.0027C72.7755 27.1304 68.1255 23.2722 62.661 20.7625L63.6795 17.7586L65.2083 18.2767C66.7179 18.7905 68.3584 17.9818 68.8712 16.4697L69.7856 13.7733V13.7729C70.2966 12.2647 69.4854 10.6214 67.9775 10.1104L58.0506 6.74488C56.5437 6.23535 54.8995 7.04558 54.3877 8.55328L53.4743 11.249C52.9625 12.7569 53.7737 14.4002 55.282 14.912L56.8113 15.4303L55.7928 18.4341C49.811 17.0837 43.7635 17.4051 38.1876 19.1181L36.9081 16.5259C43.0942 13.1237 45.6579 13.0236 44.9198 11.5291L44.0146 9.6956C40.7454 3.07179 32.6939 0.341764 26.0718 3.61271C19.4319 6.8892 16.7107 14.9152 19.9886 21.5559L20.8937 23.3894C21.1219 23.8522 21.6829 24.0411 22.1451 23.8131L29.7321 20.0681L30.8537 22.3401C23.956 26.3778 18.4186 32.8077 15.657 40.9532ZM14.2289 76.3624C12.9276 77.1962 11.1596 76.8449 10.3003 75.5011C9.4526 74.1775 9.83752 72.4204 11.162 71.5724L17.5271 67.4953C18.3911 69.2088 19.387 70.8277 20.4971 72.3482L14.2289 76.3624ZM65.7729 90.0874C66.3091 91.5643 65.5455 93.1945 64.0671 93.7298C62.5906 94.2654 60.9608 93.503 60.425 92.0244L57.8939 85.0344C59.6994 84.5029 61.4718 83.8131 63.1991 82.9787L65.7729 90.0874ZM77.1562 23.156L78.1521 22.6643C83.8669 19.8457 90.7715 22.1854 93.5925 27.8999C96.4123 33.613 94.0714 40.5199 88.3577 43.3398L87.3618 43.8312L77.1562 23.156ZM79.6395 32.4084L81.5274 36.2331L79.3448 37.3105C78.8029 36.1642 78.2568 35.0927 77.2927 33.5668L79.6395 32.4084ZM55.882 13.1422C55.3495 12.9612 55.0632 12.3812 55.2437 11.8489L56.1571 9.15315C56.3397 8.61568 56.9257 8.33489 57.4504 8.51481L67.3773 11.8803C67.9092 12.0604 68.1957 12.6404 68.0151 13.1729L67.1007 15.8696C66.9183 16.4094 66.3324 16.6869 65.8081 16.507C65.714 16.4748 55.7853 13.1095 55.882 13.1422ZM61.9092 17.1589L60.9384 20.0229C60.3954 19.8082 59.8456 19.6053 59.2887 19.4164C58.7305 19.2271 58.1707 19.0533 57.6098 18.8942L58.581 16.0304C58.9451 16.1538 62.0993 17.2234 61.9092 17.1589ZM22.1555 21.7243L21.6637 20.7284C18.8438 15.0148 21.1848 8.10903 26.8985 5.28808C32.5886 2.48111 39.5196 4.81148 42.3394 10.5232L42.8308 11.5187L22.1555 21.7243ZM36.3999 19.7186C35.0622 20.2107 33.7581 20.7864 32.4922 21.4386L31.4075 19.241L35.2323 17.353L36.3999 19.7186ZM58.6882 21.1865C75.7209 26.9603 84.832 45.412 79.0558 62.4477C73.296 79.4398 54.7866 88.5764 37.7945 82.8149C20.7622 77.0409 11.6509 58.5894 17.4272 41.5536C23.2055 24.5085 41.7491 15.443 58.6882 21.1865Z" fill="black" fill-opacity="0.15"/>
<path d="M39.8368 76.7905C53.4778 81.4145 68.3881 74.1024 73.032 60.4054C77.666 46.7355 70.3152 31.8445 56.6463 27.2102C50.0238 24.9652 42.924 25.4328 36.6547 28.5273C30.3854 31.6213 25.6967 36.9729 23.4511 43.5953C18.8059 57.2991 26.1321 72.1438 39.8368 76.7905ZM24.9427 45.0881L28.7666 46.3847C28.8662 46.418 28.9674 46.4345 29.0668 46.4345C29.4565 46.4345 29.8196 46.1891 29.9518 45.7999C30.1174 45.3109 29.8556 44.7807 29.3669 44.6148L25.5428 43.3182C27.6224 37.8654 31.5227 33.414 36.6541 30.6367L38.4422 34.2591C38.6706 34.7221 39.2324 34.911 39.6933 34.6829C40.1563 34.4547 40.3461 33.8945 40.1176 33.4318L38.3314 29.8131C43.5641 27.4709 49.3465 26.9891 55.1489 28.7164L53.8575 32.5259C53.6919 33.0146 53.9538 33.5446 54.4428 33.7107C54.5424 33.744 54.643 33.7605 54.7426 33.7605C55.1323 33.7605 55.4954 33.5151 55.6276 33.1254L56.9233 29.3032C62.5303 31.4451 66.9152 35.4753 69.5944 40.4187L65.9835 42.2006C65.5205 42.4291 65.3306 42.9893 65.5591 43.452C65.7881 43.9171 66.3506 44.1037 66.8102 43.8763L70.4214 42.0943C72.7162 47.2273 73.2493 53.1591 71.5394 58.9126L67.7165 57.6164C67.2288 57.4535 66.6972 57.7131 66.5313 58.2013C66.3657 58.6904 66.6276 59.2206 67.1162 59.3865L70.9403 60.6831C68.8603 66.1359 64.9604 70.5872 59.8292 73.3646L58.0411 69.7422C57.8129 69.2796 57.2513 69.0893 56.7901 69.3184C56.327 69.5466 56.1372 70.1068 56.3657 70.5694L58.1534 74.1916C52.8277 76.5754 46.9223 76.9651 41.3292 75.2993L42.6256 71.4754C42.7912 70.9863 42.5293 70.4561 42.0407 70.2902C41.5526 70.1269 41.022 70.3868 40.8555 70.8751L39.5589 74.699C34.1059 72.6194 29.6551 68.7191 26.8778 63.5879L30.4996 61.8004C30.9623 61.5722 31.1519 61.012 30.9234 60.5493C30.6953 60.0867 30.1346 59.8955 29.672 60.125L26.0506 61.9125C23.6662 56.587 23.2773 50.6818 24.9427 45.0881Z" fill="black" fill-opacity="0.15"/>
<path d="M84.9078 81.9804C92.3663 79.8713 96.709 72.1031 94.5999 64.6449C94.4594 64.1481 93.941 63.8608 93.4464 63.9999C92.9496 64.1404 92.6609 64.6568 92.8014 65.1533C94.6295 71.6167 90.8649 78.354 84.3996 80.1822C83.9027 80.3226 83.6145 80.8391 83.7546 81.3356C83.8926 81.824 84.4012 82.1221 84.9078 81.9804Z" fill="black" fill-opacity="0.15"/>
<path d="M81.9845 71.6416C81.4876 71.7821 81.1989 72.2985 81.3394 72.795C81.4776 73.2837 81.9862 73.5817 82.4928 73.44C85.2416 72.6625 86.8368 69.811 86.0595 67.0607C85.919 66.5638 85.4013 66.2746 84.9061 66.4156C84.4092 66.5561 84.1206 67.0725 84.2611 67.569C84.756 69.3198 83.7349 71.1466 81.9845 71.6416Z" fill="black" fill-opacity="0.15"/>
<path d="M3.6482 43.276C4.12442 43.0781 4.35028 42.5314 4.15237 42.0547C1.57489 35.8506 4.51968 28.7171 10.7233 26.1398C11.1996 25.9419 11.4254 25.3952 11.2275 24.9184C11.0296 24.4426 10.4826 24.2167 10.0061 24.4143C2.84947 27.388 -0.547995 35.6136 2.42684 42.7717C2.62361 43.245 3.16835 43.4758 3.6482 43.276Z" fill="black" fill-opacity="0.15"/>
<path d="M10.623 39.3663C10.8196 39.8395 11.3644 40.0703 11.8444 39.8705C12.3206 39.6726 12.5465 39.1259 12.3486 38.6491C11.6497 36.9668 12.4422 35.038 14.1292 34.3365C14.6054 34.1386 14.8313 33.592 14.6334 33.1152C14.4359 32.639 13.8892 32.4125 13.412 32.611C10.781 33.7041 9.52935 36.7349 10.623 39.3663Z" fill="black" fill-opacity="0.15"/>
<path d="M46.7297 56.4601C47.5321 56.7317 48.4015 56.7935 49.2791 56.5937L51.4029 61.3247C51.615 61.7965 52.1683 62.0057 52.6379 61.7942C53.1087 61.5829 53.3191 61.0301 53.1074 60.5593L50.9788 55.8172C51.775 55.2485 52.3802 54.4574 52.7008 53.5121V53.5125C53.1045 52.3213 53.0201 51.0443 52.4637 49.9165C52.0476 49.0734 51.4041 48.3899 50.6082 47.9291L54.3391 36.9246C54.5047 36.4356 54.2428 35.9054 53.7542 35.7394C53.2655 35.5756 52.7349 35.8357 52.569 36.3244L48.8379 47.3298C46.671 47.0492 44.5192 48.3154 43.7825 50.4888C42.9466 52.9526 44.2638 55.6237 46.7297 56.4601ZM45.5524 51.0885C46.3586 48.7061 49.6707 48.4798 50.7879 50.7432C51.1237 51.4235 51.1744 52.1941 50.9307 52.912V52.9124C50.43 54.392 48.8245 55.1955 47.3298 54.6904C45.8429 54.1854 45.0473 52.5755 45.5524 51.0885Z" fill="black" fill-opacity="0.15"/>
</svg>
