<svg width="159" height="135" viewBox="0 0 159 135" fill="none" xmlns="http://www.w3.org/2000/svg">
<path d="M56.8746 70.1401L133.626 94.8793C136.81 95.8273 140.15 93.9616 141.012 90.7525L158.843 24.3923C159.749 21.023 156.581 16.101 153.14 15.5292L73.2596 1.98384C70.2471 1.48333 67.3501 3.36249 66.5789 6.31722L50.3328 62.5134C49.529 65.5929 53.8242 69.2321 56.8746 70.1401Z" fill="#182970"/>
<path d="M54.5496 68.2368L131.301 92.9759C134.485 93.924 137.825 92.0583 138.687 88.8492L156.518 22.489C157.424 19.1197 155.226 15.7043 151.784 15.1324L70.9346 0.0805382C67.9222 -0.419966 65.0251 1.45918 64.2539 4.41392L50.5213 61.0869C49.7176 64.1663 51.4992 67.3288 54.5496 68.2368Z" fill="url(#paint0_linear_0_4102)"/>
<path d="M54.1752 71.4926L131.68 96.5725C134.434 97.3961 135.073 101.005 132.771 102.725L91.8301 133.311C89.5313 135.028 86.4701 135.331 83.8798 134.096L1.51367 94.8542C-0.468402 93.9093 -0.513988 91.1046 1.43638 90.0959L47.4338 72.1236C49.5143 71.0475 51.9313 70.8213 54.1752 71.4926Z" fill="url(#paint1_linear_0_4102)"/>
<path d="M54.1942 71.3816L131.699 96.4615C134.453 97.2851 135.092 100.894 132.79 102.614L91.8491 133.2C89.5503 134.917 86.4891 135.22 83.8988 133.985L1.53257 94.7432C-0.449497 93.7983 -0.495083 90.9935 1.45529 89.9848L47.4527 72.0125C49.5332 70.9365 51.9503 70.7103 54.1942 71.3816Z" fill="url(#paint2_linear_0_4102)"/>
<path d="M54.1942 68.3263L131.699 93.4062C134.453 94.2298 135.092 97.8385 132.79 99.5584L91.8491 130.145C89.5503 131.862 86.4891 132.164 83.8988 130.929L1.53257 91.6879C-0.449497 90.743 -0.495083 87.9382 1.45529 86.9295L47.4527 68.9572C49.5332 67.8812 51.9503 67.655 54.1942 68.3263Z" fill="url(#paint3_linear_0_4102)"/>
<path d="M133.246 94.378C134.449 95.8238 134.37 98.1466 132.657 99.4265L91.7159 130.013C89.4171 131.73 86.3559 132.032 83.7656 130.798L1.39942 91.556C1.17066 91.4469 0.974149 91.308 0.797215 91.1551C1.00454 91.3626 1.24085 91.5498 1.53208 91.6886L83.8983 130.93C86.4886 132.165 89.5498 131.863 91.8485 130.145L132.79 99.5591C134.56 98.2369 134.577 95.8091 133.246 94.378Z" fill="white"/>
<path d="M47.8015 75.6112C49.1666 76.1066 49.8389 76.35 51.1673 76.8299C51.5549 76.9699 52.1298 76.9644 52.4546 76.8169C53.5687 76.3114 54.1289 76.0526 55.2586 75.5191C55.5883 75.3635 55.5457 75.1252 55.1599 74.9878C53.8377 74.517 53.1678 74.2775 51.8068 73.7891C51.4097 73.6466 50.8156 73.657 50.4836 73.811C49.3456 74.339 48.783 74.5935 47.6669 75.0887C47.3415 75.2333 47.4033 75.4667 47.8015 75.6112Z" fill="#182970"/>
<path d="M60.9872 77.0479C59.7258 76.605 59.0882 76.3802 57.7944 75.9224C57.4166 75.7888 56.8421 75.8079 56.5131 75.9642C55.3862 76.4995 54.8267 76.7597 53.7138 77.2686C53.3891 77.417 53.4359 77.6476 53.8159 77.7842C55.1173 78.2527 55.7592 78.4832 57.0302 78.9385C57.4009 79.0712 57.9614 79.0557 58.2843 78.9032C59.3917 78.3803 59.9471 78.1141 61.0621 77.5697C61.3876 77.411 61.3547 77.177 60.9872 77.0479Z" fill="#182970"/>
<path d="M66.5664 78.9934C65.3538 78.5739 64.7422 78.3614 63.5042 77.9296C63.1431 77.8037 62.5856 77.8314 62.2614 77.9911C61.1497 78.5383 60.5957 78.8062 59.4904 79.3333C59.1681 79.4871 59.2038 79.7168 59.5681 79.8468C60.8169 80.2924 61.4344 80.5121 62.6588 80.9468C63.0158 81.0736 63.5641 81.0482 63.8839 80.8893C64.9808 80.3452 65.5295 80.0697 66.6263 79.5106C66.9465 79.3475 66.9197 79.1157 66.5664 78.9934Z" fill="#182970"/>
<path d="M71.9518 80.8431C70.7762 80.4423 70.1848 80.24 68.9904 79.8294C68.6422 79.7098 68.1002 79.7459 67.7813 79.91C66.6888 80.4728 66.1418 80.7505 65.0477 81.2996C64.7285 81.4598 64.7563 81.6905 65.1087 81.8149C66.3159 82.2419 66.9142 82.4528 68.1038 82.8712C68.4509 82.9933 68.9878 82.9577 69.3038 82.7919C70.3874 82.2232 70.9279 81.9369 72.004 81.3596C72.3177 81.1912 72.2951 80.9601 71.9518 80.8431Z" fill="#182970"/>
<path d="M70.4866 83.7071C71.664 84.1194 72.2488 84.3239 73.414 84.73C73.7542 84.8485 74.2824 84.8033 74.5942 84.6297C75.6634 84.0341 76.1951 83.7355 77.2485 83.1375C77.5559 82.9631 77.5326 82.7307 77.1971 82.6179C76.0467 82.2313 75.4692 82.0364 74.3064 81.6426C73.9673 81.5276 73.439 81.572 73.1265 81.7417C72.0552 82.3232 71.5165 82.6121 70.4359 83.1861C70.1205 83.3536 70.1434 83.5869 70.4866 83.7071Z" fill="#182970"/>
<path d="M75.7541 85.5444C76.9122 85.9463 77.4889 86.146 78.6412 86.544C78.9775 86.6601 79.5 86.6061 79.8075 86.4241C80.8612 85.7996 81.3838 85.4878 82.4143 84.8675C82.715 84.6865 82.6884 84.4512 82.3566 84.341C81.2194 83.9637 80.6502 83.7743 79.507 83.3924C79.1735 83.281 78.6559 83.3328 78.3502 83.5086C77.3015 84.1112 76.7718 84.4125 75.7058 85.0141C75.3951 85.1896 75.4164 85.427 75.7541 85.5444Z" fill="#182970"/>
<path d="M80.9599 87.3426C82.1101 87.7383 82.6842 87.9354 83.8347 88.3294C84.1704 88.4445 84.6901 88.3824 84.9932 88.1915C86.0326 87.5369 86.5461 87.2114 87.554 86.5674C87.8482 86.3794 87.8155 86.1398 87.4839 86.0311C86.3476 85.6585 85.7806 85.4721 84.6452 85.0975C84.3143 84.9882 83.8046 85.0468 83.5055 85.2294C82.4798 85.8547 81.9593 86.1693 80.9086 86.8001C80.6022 86.9841 80.6246 87.2273 80.9599 87.3426Z" fill="#182970"/>
<path d="M86.1548 89.1231C87.308 89.5166 87.8855 89.7132 89.045 90.1074C89.3835 90.2224 89.9029 90.1529 90.202 89.9531C91.2284 89.268 91.734 88.9286 92.7212 88.2604C93.009 88.0654 92.9683 87.8204 92.6331 87.7116C91.4862 87.3391 90.9156 87.1533 89.7759 86.7814C89.4435 86.6728 88.9392 86.7375 88.6465 86.927C87.6429 87.5761 87.1312 87.9046 86.0946 88.5655C85.7926 88.7582 85.8186 89.0082 86.1548 89.1231Z" fill="#182970"/>
<path d="M97.8591 89.4024C96.6891 89.0251 96.1088 88.8377 94.9529 88.4636C94.6155 88.3545 94.1133 88.4242 93.8264 88.6206C92.8436 89.294 92.3393 89.6364 91.3155 90.328C91.0171 90.5297 91.0484 90.7875 91.3889 90.9029C92.5564 91.2984 93.1422 91.4966 94.3225 91.8951C94.6668 92.0113 95.1891 91.9355 95.4856 91.7268C96.5015 91.0114 97.0004 90.6581 97.9691 89.9659C98.252 89.7639 98.2005 89.5124 97.8591 89.4024Z" fill="#182970"/>
<path d="M103.214 91.1256C102.01 90.7391 101.413 90.5475 100.229 90.1668C99.884 90.0557 99.3797 90.1291 99.0979 90.3326C98.1325 91.0298 97.6348 91.386 96.6206 92.1078C96.3248 92.3183 96.3638 92.585 96.7116 92.702C97.9045 93.1038 98.5051 93.3057 99.7166 93.7127C100.07 93.8313 100.599 93.7503 100.894 93.5331C101.903 92.7882 102.397 92.4214 103.352 91.7062C103.63 91.4973 103.565 91.2383 103.214 91.1256Z" fill="#182970"/>
<path d="M108.754 92.9001C107.503 92.4996 106.885 92.3017 105.661 91.9095C105.303 91.7951 104.794 91.871 104.516 92.0811C103.564 92.8011 103.071 93.1707 102.062 93.9217C101.768 94.1407 101.817 94.417 102.175 94.537C103.404 94.9491 104.025 95.1567 105.279 95.5762C105.645 95.6985 106.184 95.6136 106.478 95.3882C107.486 94.6154 107.978 94.2359 108.922 93.499C109.198 93.284 109.119 93.0168 108.754 92.9001Z" fill="#182970"/>
<path d="M107.828 96.4276C109.105 96.8541 109.75 97.0695 111.058 97.5056C111.44 97.633 111.994 97.5457 112.289 97.3129C113.301 96.5143 113.793 96.1234 114.733 95.3672C115.008 95.1466 114.914 94.8708 114.532 94.7484C113.222 94.3292 112.576 94.1227 111.3 93.7144C110.927 93.5953 110.409 93.6722 110.133 93.8884C109.19 94.6296 108.698 95.0116 107.691 95.7901C107.397 96.017 107.455 96.3033 107.828 96.4276Z" fill="#182970"/>
<path d="M120.602 96.6924C119.221 96.2498 118.542 96.0322 117.202 95.6033C116.81 95.478 116.278 95.5542 116.003 95.7759C115.062 96.5358 114.57 96.929 113.557 97.7328C113.261 97.9672 113.332 98.2639 113.722 98.3938C115.057 98.8388 115.734 99.064 117.106 99.5209C117.507 99.6543 118.08 99.5666 118.378 99.327C119.401 98.5056 119.897 98.1046 120.841 97.332C121.116 97.1065 121.005 96.8215 120.602 96.6924Z" fill="#182970"/>
<path d="M55.7989 79.511C55.0284 79.2322 54.6403 79.0915 53.8594 78.8082C53.3507 78.6238 53.0952 78.5309 52.5818 78.3445C50.2303 77.4901 49.0307 77.0528 46.5664 76.1519C46.1681 76.0063 45.5827 76.0005 45.262 76.138C44.1623 76.6093 43.6171 76.8382 42.5329 77.2873C42.2165 77.4183 42.2841 77.6455 42.6806 77.7953C45.1359 78.722 46.333 79.174 48.6825 80.061C49.1954 80.2546 49.4508 80.351 49.9592 80.5428C50.74 80.8376 51.1281 80.984 51.8989 81.275C52.2701 81.415 52.8276 81.4127 53.1466 81.2693C54.2391 80.778 54.7873 80.5291 55.8877 80.0223C56.2086 79.8745 56.17 79.6454 55.7989 79.511Z" fill="#182970"/>
<path d="M61.4355 81.5431C60.2085 81.1022 59.5904 80.8795 58.3395 80.4282C57.9747 80.2966 57.417 80.3112 57.0964 80.4605C55.9968 80.9725 55.4488 81.2242 54.3561 81.7215C54.0371 81.8665 54.0766 82.0956 54.4423 82.2334C55.6949 82.7059 56.3144 82.9396 57.5445 83.4032C57.903 83.5384 58.451 83.5252 58.7696 83.3732C59.8615 82.8527 60.4084 82.5898 61.5037 82.0573C61.8232 81.9021 61.7931 81.6716 61.4355 81.5431Z" fill="#182970"/>
<path d="M66.8911 83.4983C65.6991 83.0731 65.0995 82.8588 63.8895 82.4253C63.5366 82.2989 62.9905 82.3238 62.6715 82.481C61.5776 83.0193 61.031 83.2853 59.9398 83.8126C59.6214 83.9665 59.652 84.1992 60.0058 84.3325C61.2198 84.7896 61.8217 85.0162 63.019 85.4666C63.3686 85.5981 63.9077 85.5737 64.2251 85.4123C65.3134 84.8594 65.8581 84.5808 66.9455 84.0195C67.2627 83.8557 67.2393 83.6226 66.8911 83.4983Z" fill="#182970"/>
<path d="M65.4186 86.3669C66.6043 86.8124 67.1935 87.0336 68.3678 87.474C68.7103 87.6025 69.2434 87.5675 69.5597 87.396C70.6427 86.8078 71.1843 86.5124 72.2622 85.9198C72.5767 85.747 72.5558 85.5092 72.2149 85.3886C71.0466 84.9749 70.4601 84.767 69.2801 84.3475C68.9361 84.2252 68.3996 84.2602 68.0831 84.4259C66.9976 84.9936 66.4535 85.2756 65.3662 85.8359C65.0489 85.9993 65.0729 86.2371 65.4186 86.3669Z" fill="#182970"/>
<path d="M70.7258 88.3584C71.8929 88.7955 72.4741 89.013 73.6354 89.4469C73.9743 89.5735 74.5036 89.5283 74.8182 89.346C75.8956 88.7209 76.4337 88.4077 77.5019 87.7819C77.8134 87.5993 77.7926 87.3556 77.4552 87.2371C76.3001 86.8313 75.7217 86.6277 74.5607 86.2182C74.2218 86.0987 73.6929 86.1436 73.3791 86.3184C72.3031 86.9179 71.7622 87.2171 70.6803 87.8129C70.3648 87.9867 70.385 88.2309 70.7258 88.3584Z" fill="#182970"/>
<path d="M75.9722 90.319C77.1309 90.7511 77.7094 90.9666 78.8677 91.3974C79.2059 91.5232 79.7339 91.4683 80.047 91.2749C81.1196 90.6118 81.6544 90.28 82.7131 89.6198C83.0222 89.4272 82.9985 89.1762 82.662 89.0589C81.5088 88.6568 80.933 88.4557 79.78 88.052C79.4439 87.9344 78.9195 87.9884 78.6084 88.1729C77.5425 88.8061 77.0051 89.1232 75.9288 89.7562C75.6146 89.941 75.6343 90.1929 75.9722 90.319Z" fill="#182970"/>
<path d="M81.2037 92.2664C82.3639 92.697 82.9449 92.9122 84.1103 93.3435C84.4507 93.4695 84.9802 93.4054 85.2921 93.2007C86.3612 92.499 86.8935 92.1487 87.9446 91.4536C88.2514 91.2509 88.2234 90.9917 87.8841 90.8743C86.7221 90.472 86.1434 90.2713 84.9879 89.8696C84.6506 89.7525 84.1285 89.815 83.8201 90.0098C82.7631 90.6774 82.229 91.0131 81.1571 91.6843C80.8447 91.8801 80.8652 92.1408 81.2037 92.2664Z" fill="#182970"/>
<path d="M93.1701 92.6969C91.9882 92.2904 91.4016 92.0882 90.232 91.6845C89.8908 91.5668 89.3682 91.637 89.0619 91.842C88.0119 92.5445 87.48 92.8988 86.4112 93.6086C86.0994 93.8158 86.1227 94.086 86.4648 94.2122C87.6371 94.6449 88.2249 94.8615 89.4077 95.2966C89.7528 95.4235 90.2866 95.3513 90.5983 95.1354C91.6665 94.3953 92.1981 94.0264 93.244 93.2965C93.5492 93.0837 93.5147 92.8156 93.1701 92.6969Z" fill="#182970"/>
<path d="M98.5701 94.5503C97.358 94.1357 96.7571 93.9298 95.5631 93.5202C95.2152 93.4008 94.6879 93.4776 94.3828 93.6926C93.3374 94.4298 92.806 94.8026 91.7374 95.5507C91.4258 95.769 91.4537 96.0496 91.802 96.1773C92.9959 96.6153 93.5962 96.8352 94.8065 97.2776C95.1591 97.4065 95.701 97.3272 96.0134 97.1003C97.0846 96.3227 97.617 95.9357 98.6616 95.172C98.9665 94.9492 98.9237 94.6711 98.5701 94.5503Z" fill="#182970"/>
<path d="M104.132 96.4482C102.878 96.0214 102.258 95.8101 101.029 95.3906C100.67 95.2682 100.135 95.3504 99.8306 95.5753C98.7855 96.346 98.2528 96.7368 97.1804 97.5222C96.8673 97.7512 96.9017 98.0429 97.2591 98.1732C98.4846 98.62 99.1021 98.8447 100.35 99.2979C100.713 99.43 101.266 99.3446 101.581 99.1072C102.66 98.2937 103.196 97.8893 104.244 97.0933C104.55 96.861 104.497 96.5726 104.132 96.4482Z" fill="#182970"/>
<path d="M102.882 100.216C104.15 100.675 104.789 100.906 106.084 101.374C106.462 101.51 107.029 101.42 107.348 101.172C108.44 100.325 108.982 99.9045 110.04 99.0784C110.348 98.8374 110.285 98.5384 109.904 98.4091C108.598 97.9662 107.954 97.7475 106.678 97.314C106.306 97.1875 105.76 97.274 105.454 97.5081C104.404 98.3107 103.868 98.7188 102.787 99.5396C102.471 99.7791 102.512 100.082 102.882 100.216Z" fill="#182970"/>
<path d="M115.937 100.453C114.569 99.9899 113.894 99.7615 112.562 99.3103C112.172 99.1786 111.611 99.2677 111.302 99.5105C110.241 100.343 109.698 100.767 108.602 101.621C108.282 101.87 108.331 102.184 108.716 102.323C110.035 102.797 110.702 103.037 112.054 103.522C112.449 103.663 113.036 103.57 113.36 103.314C114.473 102.436 115.025 102 116.098 101.147C116.412 100.898 116.337 100.588 115.937 100.453Z" fill="#182970"/>
<path d="M44.8269 79.5703C43.5026 79.0639 42.8332 78.808 41.4761 78.2896C41.0801 78.1384 40.5031 78.1188 40.1897 78.2456C39.116 78.6803 38.5823 78.8935 37.5176 79.317C37.2069 79.4405 37.2758 79.6674 37.6692 79.8238C39.0178 80.3599 39.6832 80.6252 41.001 81.1514C41.3855 81.305 41.9486 81.3247 42.2618 81.1956C43.3344 80.7531 43.8722 80.5302 44.953 80.0773C45.2683 79.945 45.2132 79.7181 44.8269 79.5703Z" fill="#182970"/>
<path d="M50.684 81.8128C49.4116 81.3254 48.7694 81.0796 47.4698 80.5821C47.0902 80.4368 46.5251 80.4279 46.2094 80.5616C45.127 81.0202 44.5882 81.2459 43.514 81.6939C43.2007 81.8247 43.2544 82.0534 43.6326 82.2049C44.9275 82.7238 45.5678 82.9808 46.837 83.4914C47.2072 83.6403 47.7608 83.6498 48.0753 83.5124C49.1537 83.0416 49.6947 82.8045 50.7806 82.3241C51.0974 82.184 51.0551 81.9549 50.684 81.8128Z" fill="#182970"/>
<path d="M56.3289 83.9742C55.0986 83.5027 54.4789 83.2653 53.2266 82.7854C52.8613 82.6454 52.3064 82.6472 51.9894 82.7892C50.9029 83.2759 50.3615 83.5164 49.2825 83.9936C48.9677 84.133 49.0097 84.365 49.3748 84.5122C50.6254 85.0166 51.2443 85.2668 52.474 85.7643C52.8327 85.9095 53.3779 85.9084 53.6932 85.7616C54.7734 85.2585 55.3156 85.0052 56.4028 84.4935C56.7202 84.3444 56.6876 84.1116 56.3289 83.9742Z" fill="#182970"/>
<path d="M61.8053 86.0735C60.6074 85.6147 60.0052 85.3839 58.7907 84.9185C58.4364 84.7828 57.8908 84.7955 57.5735 84.9469C56.4864 85.4656 55.9441 85.7226 54.8637 86.2329C54.5485 86.3818 54.5819 86.619 54.9361 86.7626C56.1511 87.2554 56.7539 87.5001 57.953 87.9874C58.3031 88.1296 58.8405 88.1176 59.1555 87.9604C60.2352 87.422 60.7773 87.1509 61.8633 86.6047C62.1801 86.4452 62.1549 86.2075 61.8053 86.0735Z" fill="#182970"/>
<path d="M60.3578 88.9651C61.5463 89.4488 62.137 89.6895 63.3146 90.1693C63.6581 90.3092 64.19 90.2865 64.5046 90.1183C65.582 89.5417 66.1233 89.2515 67.2061 88.6683C67.5221 88.4982 67.5013 88.254 67.1585 88.1228C65.9831 87.6733 65.3936 87.4475 64.207 86.9932C63.861 86.8608 63.3229 86.8844 63.0062 87.0461C61.9209 87.5999 61.3788 87.8749 60.2993 88.4213C59.9845 88.5808 60.0113 88.8242 60.3578 88.9651Z" fill="#182970"/>
<path d="M65.6795 91.1335C66.8502 91.6108 67.4333 91.8486 68.5979 92.3235C68.9377 92.4621 69.4665 92.429 69.78 92.2491C70.855 91.6328 71.3951 91.3226 72.4745 90.7005C72.7895 90.5189 72.7705 90.2669 72.4311 90.1375C71.2689 89.694 70.6869 89.4718 69.5186 89.0254C69.1778 88.895 68.6452 88.9295 68.3292 89.1021C67.247 89.6935 66.706 89.9877 65.6292 90.5726C65.3149 90.7432 65.3379 90.9941 65.6795 91.1335Z" fill="#182970"/>
<path d="M70.9409 93.2783C72.1029 93.752 72.6826 93.9884 73.8436 94.4614C74.1823 94.5994 74.7102 94.5561 75.0232 94.3643C76.0959 93.7069 76.635 93.3762 77.7117 92.7139C78.026 92.5208 78.0061 92.2597 77.6678 92.1312C76.5084 91.6904 75.9294 91.4702 74.7696 91.0283C74.4314 90.8995 73.9018 90.9442 73.587 91.1282C72.508 91.7588 71.9682 92.0733 70.894 92.6983C70.5805 92.8806 70.6021 93.1402 70.9409 93.2783Z" fill="#182970"/>
<path d="M76.1832 95.4153C77.3452 95.888 77.9266 96.1245 79.0923 96.5979C79.4327 96.7363 79.9618 96.6833 80.2744 96.4794C81.3467 95.7804 81.8857 95.4288 82.9611 94.7261C83.275 94.5211 83.2532 94.2504 82.9128 94.1216C81.747 93.6806 81.1657 93.4603 80.0048 93.0199C79.666 92.8914 79.1372 92.946 78.8229 93.1417C77.7468 93.8125 77.2075 94.1476 76.1351 94.8138C75.8224 95.0082 75.8442 95.2773 76.1832 95.4153Z" fill="#182970"/>
<path d="M88.2108 96.1205C87.0284 95.6757 86.4406 95.4542 85.2685 95.0117C84.9264 94.8826 84.3956 94.9465 84.0816 95.154C83.0062 95.8655 82.4669 96.2215 81.3945 96.9291C81.0816 97.1357 81.1052 97.4149 81.4468 97.5533C82.6179 98.028 83.205 98.2657 84.3851 98.7426C84.7294 98.8817 85.2626 98.82 85.5758 98.6039C86.65 97.8637 87.1907 97.4913 88.2674 96.7482C88.5817 96.5314 88.5559 96.2504 88.2108 96.1205Z" fill="#182970"/>
<path d="M93.6045 98.1416C92.396 97.6897 91.796 97.465 90.6031 97.0174C90.2553 96.887 89.719 96.9589 89.4045 97.1782C88.3271 97.9299 87.7862 98.3066 86.7109 99.0556C86.3972 99.2742 86.4245 99.5642 86.7711 99.7039C87.9604 100.183 88.5577 100.424 89.7607 100.907C90.1114 101.048 90.6518 100.978 90.967 100.75C92.0471 99.9691 92.5907 99.5764 93.6727 98.7938C93.9886 98.5654 93.9569 98.2733 93.6045 98.1416Z" fill="#182970"/>
<path d="M99.1382 100.205C97.8937 99.7431 97.2771 99.5137 96.0534 99.0576C95.6967 98.9247 95.1525 99.004 94.8363 99.2347C93.7527 100.026 93.208 100.422 92.1262 101.212C91.8107 101.442 91.8421 101.743 92.1968 101.885C93.413 102.372 94.0251 102.616 95.2601 103.108C95.62 103.251 96.1707 103.175 96.4892 102.935C97.5796 102.116 98.1287 101.704 99.2207 100.883C99.5394 100.643 99.5013 100.34 99.1382 100.205Z" fill="#182970"/>
<path d="M110.805 104.504C108.374 103.615 107.188 103.179 104.857 102.32C104.485 102.183 104.299 102.114 103.929 101.978C103.017 101.641 102.564 101.474 101.665 101.141C101.296 101.005 100.741 101.09 100.421 101.332C99.3264 102.16 98.7756 102.577 97.682 103.404C97.3629 103.646 97.3997 103.958 97.7651 104.103C98.6558 104.457 99.1036 104.634 100.006 104.99C100.372 105.135 100.556 105.208 100.924 105.353C103.228 106.262 104.399 106.722 106.792 107.657C107.179 107.808 107.761 107.721 108.091 107.461C109.221 106.571 109.791 106.123 110.921 105.234C111.251 104.974 111.198 104.647 110.805 104.504Z" fill="#182970"/>
<path d="M39.8087 81.6391C38.493 81.1065 37.8287 80.8383 36.483 80.2965C36.0902 80.1383 35.5198 80.1089 35.2105 80.2309C34.1506 80.6491 33.6219 80.8569 32.5641 81.2745C32.2557 81.3964 32.3233 81.6277 32.714 81.7908C34.0523 82.3497 34.7141 82.6272 36.0249 83.179C36.4075 83.34 36.9669 83.3672 37.2768 83.2402C38.3393 82.8051 38.8712 82.5879 39.9382 82.1509C40.2497 82.0236 40.1926 81.7945 39.8087 81.6391Z" fill="#182970"/>
<path d="M45.6383 84.0091C44.3699 83.4912 43.7304 83.2306 42.4369 82.7049C42.0591 82.5513 41.4991 82.5317 41.1873 82.6608C40.1189 83.1034 39.5864 83.3232 38.5232 83.7635C38.2129 83.892 38.2679 84.1256 38.6446 84.2851C39.9349 84.8316 40.5737 85.1033 41.8404 85.6439C42.2097 85.8015 42.7594 85.8201 43.0702 85.6855C44.1344 85.2242 44.6686 84.9933 45.7404 84.5282C46.0531 84.3927 46.008 84.1601 45.6383 84.0091Z" fill="#182970"/>
<path d="M51.2731 86.3187C50.0438 85.8129 49.4247 85.5586 48.1744 85.0463C47.8097 84.8969 47.2592 84.8872 46.9461 85.0248C45.8738 85.4963 45.3397 85.7305 44.2754 86.1978C43.9647 86.3342 44.0103 86.5716 44.3751 86.7281C45.6248 87.2643 46.2441 87.531 47.475 88.0625C47.8338 88.2174 48.375 88.2271 48.6849 88.0837C49.7473 87.5922 50.2816 87.3454 51.3545 86.8485C51.6675 86.7034 51.6316 86.4661 51.2731 86.3187Z" fill="#182970"/>
<path d="M56.7527 88.5807C55.5533 88.0844 54.9503 87.8353 53.7353 87.3339C53.3808 87.1877 52.8382 87.1884 52.5251 87.3355C51.4526 87.8396 50.9185 88.09 49.8568 88.5883C49.5468 88.7337 49.5854 88.9765 49.9402 89.1304C51.1575 89.6584 51.7616 89.9212 52.9641 90.4454C53.3151 90.5984 53.8476 90.5984 54.1565 90.4453C55.2147 89.9204 55.7477 89.6562 56.8191 89.1242C57.1315 88.9688 57.1029 88.7256 56.7527 88.5807Z" fill="#182970"/>
<path d="M55.3762 91.4983C56.5686 92.02 57.1617 92.28 58.3436 92.799C58.6883 92.9505 59.215 92.941 59.5219 92.7773C60.5741 92.2166 61.1052 91.9336 62.1734 91.3639C62.485 91.1977 62.4606 90.9471 62.1167 90.8043C60.9387 90.3149 60.3474 90.0695 59.1583 89.5765C58.8118 89.4328 58.2761 89.4441 57.9639 89.6016C56.893 90.1415 56.3604 90.4095 55.3033 90.9419C54.9949 91.0973 55.0284 91.3462 55.3762 91.4983Z" fill="#182970"/>
<path d="M60.7182 93.8443C61.8936 94.3618 62.4791 94.6199 63.6483 95.1357C63.9896 95.2863 64.5117 95.2673 64.8168 95.0926C65.8623 94.4941 66.3914 94.1916 67.456 93.5824C67.7666 93.4046 67.7438 93.1454 67.4037 93.0039C66.2384 92.519 65.6548 92.2762 64.4834 91.7891C64.1417 91.6469 63.6113 91.6688 63.2998 91.8374C62.2324 92.4153 61.7017 92.7024 60.6508 93.271C60.3443 93.437 60.3753 93.6934 60.7182 93.8443Z" fill="#182970"/>
<path d="M66.0004 96.1737C67.1666 96.6888 67.7487 96.9461 68.9132 97.4609C69.2531 97.6111 69.7728 97.583 70.0762 97.3969C71.1157 96.7594 71.6429 96.4366 72.7042 95.7867C73.014 95.597 72.9912 95.3285 72.6521 95.1876C71.4907 94.7044 70.9106 94.463 69.7482 93.9792C69.4092 93.8381 68.8814 93.8701 68.5712 94.0504C67.5073 94.6682 66.9789 94.975 65.9345 95.5817C65.63 95.7588 65.6606 96.0234 66.0004 96.1737Z" fill="#182970"/>
<path d="M71.2599 98.498C72.4247 99.0128 73.0074 99.2704 74.1746 99.7859C74.5156 99.9365 75.0349 99.8994 75.3371 99.7018C76.3721 99.0248 76.8982 98.6816 77.9582 97.9905C78.2674 97.7887 78.2433 97.5103 77.9026 97.3691C76.737 96.8853 76.1555 96.6438 74.9933 96.1607C74.6542 96.0198 74.1274 96.0618 73.8177 96.254C72.757 96.9127 72.2299 97.2398 71.1916 97.8856C70.8885 98.0741 70.9201 98.3478 71.2599 98.498Z" fill="#182970"/>
<path d="M83.1933 99.5572C82.0139 99.0701 81.4272 98.8274 80.2562 98.3424C79.9147 98.2009 79.3865 98.2525 79.0775 98.4567C78.0175 99.1566 77.4914 99.5041 76.4568 100.189C76.1551 100.389 76.1887 100.673 76.5306 100.823C77.7022 101.34 78.289 101.599 79.4673 102.117C79.8113 102.269 80.3327 102.223 80.6342 102.014C81.6677 101.298 82.1942 100.934 83.2551 100.202C83.5647 99.9884 83.5375 99.6994 83.1933 99.5572Z" fill="#182970"/>
<path d="M88.5631 101.77C87.362 101.277 86.7653 101.032 85.5771 100.543C85.2307 100.4 84.6983 100.46 84.3884 100.676C83.3265 101.417 82.7997 101.785 81.7664 102.509C81.4648 102.721 81.5025 103.014 81.848 103.166C83.0339 103.686 83.6291 103.947 84.8263 104.471C85.1754 104.623 85.7022 104.57 86.0043 104.35C87.0396 103.595 87.5682 103.212 88.6341 102.44C88.9451 102.214 88.9135 101.914 88.5631 101.77Z" fill="#182970"/>
<path d="M94.0525 104.013C92.8206 103.511 92.2096 103.262 90.9957 102.766C90.6418 102.621 90.1019 102.689 89.7902 102.917C88.7229 103.698 88.1936 104.085 87.1571 104.848C86.8546 105.07 86.8966 105.374 87.2489 105.527C88.4569 106.054 89.0646 106.318 90.2882 106.848C90.6449 107.003 91.1795 106.943 91.4836 106.712C92.526 105.921 93.059 105.518 94.1347 104.707C94.4484 104.47 94.4116 104.159 94.0525 104.013Z" fill="#182970"/>
<path d="M99.6993 106.299C98.4281 105.787 97.7992 105.533 96.5506 105.027C96.1864 104.88 95.6362 104.955 95.3216 105.194C94.2432 106.013 93.7087 106.419 92.6644 107.218C92.3595 107.451 92.4068 107.765 92.768 107.921C94.0059 108.455 94.6293 108.723 95.8871 109.263C96.2542 109.42 96.7996 109.354 97.1076 109.113C98.1626 108.287 98.7032 107.866 99.7942 107.019C100.113 106.772 100.07 106.449 99.6993 106.299Z" fill="#182970"/>
<path d="M105.542 108.643C104.223 108.117 103.571 107.856 102.28 107.339C101.903 107.187 101.339 107.268 101.019 107.518C99.9237 108.372 99.3809 108.797 98.3226 109.63C98.0137 109.873 98.0664 110.197 98.4389 110.355C99.7144 110.899 100.358 111.173 101.658 111.723C102.038 111.884 102.598 111.813 102.911 111.563C103.986 110.705 104.537 110.268 105.651 109.387C105.976 109.13 105.927 108.796 105.542 108.643Z" fill="#182970"/>
<path d="M34.842 83.6626C33.532 83.1052 32.8708 82.8252 31.5336 82.2615C31.1435 82.097 30.5759 82.0628 30.267 82.1859C29.2084 82.6076 28.6789 82.8199 27.6162 83.252C27.3061 83.378 27.3716 83.6173 27.7618 83.7855C29.0986 84.3618 29.7602 84.6487 31.0723 85.2207C31.4553 85.3877 32.0145 85.4172 32.3235 85.2876C33.3828 84.8438 33.9125 84.6245 34.9725 84.1874C35.2817 84.0598 35.2243 83.8252 34.842 83.6626Z" fill="#182970"/>
<path d="M40.6569 86.1541C39.3897 85.6069 38.7509 85.3322 37.461 84.7796C37.0844 84.6182 36.5274 84.5917 36.2179 84.7205C35.1582 85.1624 34.6288 85.3838 33.5712 85.8314C33.2622 85.962 33.319 86.2028 33.697 86.369C34.9905 86.9378 35.6316 87.2212 36.9042 87.7865C37.2753 87.9513 37.8233 87.9752 38.1299 87.8401C39.1806 87.3772 39.7077 87.1469 40.7657 86.6862C41.0744 86.5518 41.0265 86.3136 40.6569 86.1541Z" fill="#182970"/>
<path d="M46.2952 88.6041C45.0633 88.0652 44.4432 87.7949 43.1928 87.2517C42.8278 87.0931 42.2804 87.0748 41.9721 87.2108C40.9151 87.677 40.3888 87.9098 39.3404 88.3773C39.0344 88.5137 39.0852 88.7577 39.4523 88.9218C40.7096 89.4845 41.3331 89.7649 42.5731 90.3248C42.9346 90.488 43.4721 90.5057 43.7752 90.3639C44.8135 89.8779 45.3365 89.6348 46.3885 89.1466C46.6956 89.0043 46.6542 88.7612 46.2952 88.6041Z" fill="#182970"/>
<path d="M51.7905 91.023C50.5865 90.4906 49.9814 90.2238 48.7627 89.6879C48.4074 89.5318 47.8689 89.5219 47.5625 89.6662C46.5119 90.1605 45.9902 90.4067 44.9546 90.898C44.6526 91.0415 44.6998 91.2895 45.0578 91.4522C46.2853 92.0101 46.8949 92.2883 48.109 92.8441C48.4633 93.0064 48.9903 93.0167 49.2889 92.8673C50.3125 92.3552 50.8299 92.0975 51.8737 91.5786C52.1779 91.4272 52.1421 91.1785 51.7905 91.023Z" fill="#182970"/>
<path d="M78.3322 102.902C77.1535 102.375 76.5662 102.111 75.3936 101.585C75.3806 101.579 75.3638 101.578 75.3498 101.573C75.3377 101.567 75.3323 101.558 75.3192 101.552C74.4041 101.141 73.9476 100.936 73.0352 100.526C71.8666 100.001 71.2832 99.739 70.1167 99.2147C69.1767 98.7921 68.7069 98.581 67.7668 98.1585C66.6006 97.6343 66.0174 97.3723 64.8493 96.8479C63.9078 96.4252 63.4369 96.2139 62.493 95.7908C61.3216 95.2657 60.7349 95.0031 59.5575 94.4767C57.431 93.526 56.3634 93.0499 54.2067 92.0926C53.8585 91.9379 53.3279 91.9373 53.024 92.0906C51.9826 92.6164 51.4664 92.8773 50.4462 93.3954C50.1487 93.5466 50.1941 93.7998 50.5455 93.9615C52.7207 94.9626 53.7982 95.4615 55.9443 96.4585C57.1325 97.0106 57.7244 97.2864 58.9068 97.8378C59.8595 98.2823 60.3347 98.5042 61.2848 98.9485C62.4636 99.4997 63.0515 99.7751 64.228 100.326C65.1762 100.771 65.6499 100.993 66.5977 101.437C67.7734 101.989 68.3612 102.265 69.5386 102.817C70.4576 103.248 70.9171 103.464 71.8383 103.896C71.8513 103.902 71.8679 103.904 71.8816 103.909C71.8942 103.916 71.8997 103.925 71.9129 103.931C73.0929 104.484 73.6835 104.761 74.8686 105.316C75.2143 105.478 75.7151 105.453 75.9914 105.258C76.9375 104.591 77.4268 104.248 78.4253 103.551C78.717 103.348 78.6762 103.057 78.3322 102.902Z" fill="#182970"/>
<path d="M83.692 105.296C82.4954 104.763 81.9001 104.498 80.7141 103.968C80.3684 103.814 79.8497 103.856 79.5586 104.062C78.5607 104.766 78.0721 105.113 77.1281 105.787C76.8527 105.984 76.9141 106.273 77.2614 106.435C78.452 106.992 79.0489 107.27 80.2487 107.829C80.5985 107.992 81.1007 107.961 81.3743 107.757C82.3122 107.058 82.7989 106.698 83.7956 105.966C84.0861 105.752 84.0408 105.451 83.692 105.296Z" fill="#182970"/>
<path d="M89.1489 107.714C87.9269 107.175 87.3201 106.906 86.1132 106.371C85.7611 106.215 85.2376 106.265 84.9468 106.481C83.9499 107.221 83.4633 107.584 82.5268 108.29C82.2534 108.496 82.3213 108.793 82.6734 108.956C83.8815 109.517 84.4882 109.798 85.7088 110.362C86.0647 110.526 86.5709 110.49 86.8436 110.277C87.7776 109.548 88.2646 109.173 89.2642 108.406C89.5555 108.182 89.505 107.871 89.1489 107.714Z" fill="#182970"/>
<path d="M94.7359 110.166C93.4808 109.619 92.8592 109.346 91.6234 108.804C91.2629 108.645 90.732 108.702 90.4399 108.928C89.4393 109.702 88.9518 110.081 88.0178 110.816C87.7453 111.03 87.8193 111.335 88.1788 111.5C89.411 112.067 90.0305 112.351 91.279 112.921C91.6431 113.087 92.1561 113.046 92.4295 112.825C93.3655 112.069 93.8556 111.678 94.8637 110.879C95.1579 110.646 95.1017 110.326 94.7359 110.166Z" fill="#182970"/>
<path d="M100.489 112.661C99.1942 112.103 98.553 111.826 97.2813 111.275C96.91 111.113 96.3679 111.176 96.073 111.411C95.0623 112.216 94.5711 112.61 93.6335 113.371C93.3601 113.594 93.4406 113.906 93.8094 114.074C95.0723 114.647 95.7084 114.935 96.9911 115.512C97.3655 115.681 97.8888 115.636 98.1646 115.408C99.1099 114.628 99.6065 114.223 100.63 113.395C100.929 113.154 100.867 112.824 100.489 112.661Z" fill="#182970"/>
<path d="M47.7191 75.1643C49.0843 75.6597 49.7566 75.9031 51.085 76.383C51.4726 76.5231 52.0475 76.5176 52.3723 76.3701C53.4863 75.8645 54.0466 75.6057 55.1763 75.0722C55.506 74.9167 55.4634 74.6784 55.0775 74.541C53.7554 74.0701 53.0855 73.8306 51.7245 73.3422C51.3273 73.1997 50.7332 73.2101 50.4013 73.3641C49.2632 73.8922 48.7006 74.1467 47.5846 74.6418C47.2591 74.7863 47.321 75.0197 47.7191 75.1643Z" fill="url(#paint4_linear_0_4102)"/>
<path d="M60.9048 76.602C59.6434 76.1591 59.0058 75.9344 57.7121 75.4765C57.3342 75.343 56.7597 75.3621 56.4307 75.5182C55.3038 76.0536 54.7444 76.3138 53.6314 76.8227C53.3067 76.9711 53.3535 77.2016 53.7336 77.3383C55.0349 77.8068 55.6769 78.0372 56.9478 78.4925C57.3185 78.6253 57.879 78.6097 58.2019 78.4572C59.3093 77.9343 59.8647 77.6682 60.9798 77.1238C61.3053 76.9652 61.2724 76.7311 60.9048 76.602Z" fill="url(#paint5_linear_0_4102)"/>
<path d="M66.484 78.5465C65.2715 78.127 64.6598 77.9146 63.4219 77.4828C63.0607 77.3568 62.5033 77.3845 62.179 77.5442C61.0674 78.0914 60.5134 78.3593 59.408 78.8865C59.0858 79.0402 59.1214 79.2699 59.4857 79.4C60.7345 79.8456 61.3521 80.0653 62.5764 80.5C62.9335 80.6267 63.4817 80.6013 63.8015 80.4425C64.8984 79.8984 65.4471 79.6229 66.5439 79.0638C66.8641 78.9007 66.8373 78.6688 66.484 78.5465Z" fill="url(#paint6_linear_0_4102)"/>
<path d="M71.8695 80.3962C70.6938 79.9955 70.1025 79.7932 68.908 79.3826C68.5598 79.263 68.0178 79.299 67.6989 79.4632C66.6065 80.026 66.0594 80.3037 64.9653 80.8527C64.6461 81.0129 64.6739 81.2435 65.0263 81.3681C66.2335 81.795 66.8318 82.006 68.0214 82.4244C68.3685 82.5465 68.9054 82.5109 69.2214 82.345C70.305 81.7764 70.8455 81.49 71.9217 80.9128C72.2354 80.7444 72.2128 80.5132 71.8695 80.3962Z" fill="url(#paint7_linear_0_4102)"/>
<path d="M70.4037 83.2602C71.5811 83.6726 72.1659 83.8769 73.3311 84.283C73.6713 84.4016 74.1995 84.3564 74.5113 84.1828C75.5805 83.5872 76.1122 83.2886 77.1656 82.6906C77.473 82.5162 77.4497 82.2838 77.1142 82.171C75.9638 81.7843 75.3863 81.5895 74.2235 81.1957C73.8844 81.0808 73.3561 81.1251 73.0436 81.2948C71.9723 81.8763 71.4336 82.1652 70.353 82.7393C70.0376 82.9066 70.0606 83.1398 70.4037 83.2602Z" fill="url(#paint8_linear_0_4102)"/>
<path d="M75.6713 85.0985C76.8294 85.5005 77.406 85.7001 78.5584 86.0981C78.8947 86.2143 79.4172 86.1603 79.7246 85.9782C80.7784 85.3537 81.301 85.042 82.3315 84.4216C82.6322 84.2407 82.6055 84.0053 82.2738 83.8951C81.1366 83.5178 80.5674 83.3284 79.4242 82.9465C79.0906 82.8351 78.5731 82.8869 78.2673 83.0627C77.2187 83.6653 76.689 83.9666 75.623 84.5682C75.3123 84.7437 75.3335 84.9811 75.6713 85.0985Z" fill="url(#paint9_linear_0_4102)"/>
<path d="M80.8771 86.8967C82.0273 87.2925 82.6013 87.4895 83.7519 87.8836C84.0876 87.9986 84.6073 87.9365 84.9104 87.7456C85.9497 87.091 86.4633 86.7656 87.4712 86.1215C87.7653 85.9336 87.7327 85.6939 87.4011 85.5852C86.2647 85.2126 85.6978 85.0262 84.5623 84.6516C84.2315 84.5423 83.7218 84.601 83.4227 84.7835C82.397 85.4088 81.8764 85.7234 80.8257 86.3542C80.5193 86.5382 80.5417 86.7814 80.8771 86.8967Z" fill="url(#paint10_linear_0_4102)"/>
<path d="M86.072 88.6772C87.2252 89.0707 87.8027 89.2674 88.9622 89.6615C89.3006 89.7765 89.8201 89.707 90.1192 89.5072C91.1456 88.8221 91.6512 88.4827 92.6384 87.8145C92.9262 87.6195 92.8855 87.3745 92.5503 87.2657C91.4034 86.8932 90.8327 86.7074 89.6931 86.3355C89.3607 86.227 88.8563 86.2917 88.5636 86.4811C87.5601 87.1302 87.0483 87.4587 86.0118 88.1196C85.7098 88.3123 85.7357 88.5623 86.072 88.6772Z" fill="url(#paint11_linear_0_4102)"/>
<path d="M97.7763 88.9565C96.6063 88.5792 96.026 88.3919 94.87 88.0178C94.5327 87.9086 94.0305 87.9783 93.7435 88.1747C92.7607 88.8482 92.2565 89.1905 91.2326 89.8821C90.9342 90.0838 90.9655 90.3417 91.306 90.457C92.4735 90.8526 93.0594 91.0507 94.2397 91.4492C94.5839 91.5655 95.1062 91.4896 95.4028 91.281C96.4186 90.5655 96.9175 90.2122 97.8863 89.52C98.1692 89.3181 98.1177 89.0666 97.7763 88.9565Z" fill="url(#paint12_linear_0_4102)"/>
<path d="M103.132 90.6788C101.927 90.2923 101.331 90.1007 100.147 89.7199C99.8016 89.6089 99.2973 89.6822 99.0156 89.8857C98.0501 90.5829 97.5524 90.9391 96.5382 91.6609C96.2424 91.8715 96.2814 92.1381 96.6292 92.2551C97.8222 92.6569 98.4227 92.8588 99.6342 93.2658C99.9876 93.3844 100.517 93.3034 100.811 93.0862C101.821 92.3413 102.315 91.9746 103.269 91.2593C103.548 91.0505 103.483 90.7915 103.132 90.6788Z" fill="url(#paint13_linear_0_4102)"/>
<path d="M108.672 92.4542C107.42 92.0537 106.802 91.8558 105.578 91.4636C105.221 91.3492 104.712 91.4251 104.434 91.6352C103.482 92.3553 102.989 92.7248 101.98 93.4758C101.686 93.6949 101.734 93.9711 102.093 94.0912C103.322 94.5032 103.942 94.7108 105.197 95.1304C105.562 95.2527 106.102 95.1679 106.396 94.9424C107.404 94.1696 107.895 93.7901 108.84 93.0532C109.115 92.8382 109.037 92.571 108.672 92.4542Z" fill="url(#paint14_linear_0_4102)"/>
<path d="M107.746 95.9818C109.023 96.4082 109.669 96.6236 110.976 97.0598C111.358 97.1871 111.912 97.0999 112.207 96.867C113.219 96.0685 113.711 95.6775 114.652 94.9213C114.926 94.7007 114.832 94.4248 114.45 94.3026C113.14 93.8834 112.494 93.6769 111.218 93.2686C110.846 93.1494 110.327 93.2263 110.052 93.4425C109.108 94.1837 108.617 94.5657 107.609 95.3442C107.315 95.5711 107.374 95.8574 107.746 95.9818Z" fill="url(#paint15_linear_0_4102)"/>
<path d="M120.52 96.2465C119.139 95.804 118.459 95.5863 117.12 95.1575C116.728 95.0321 116.196 95.1083 115.921 95.33C114.98 96.09 114.487 96.4833 113.474 97.2869C113.178 97.5213 113.249 97.818 113.639 97.948C114.975 98.3929 115.651 98.6181 117.024 99.075C117.425 99.2084 117.997 99.1207 118.296 98.8811C119.318 98.0597 119.814 97.6587 120.758 96.8861C121.034 96.6607 120.923 96.3756 120.52 96.2465Z" fill="url(#paint16_linear_0_4102)"/>
<path d="M55.7165 79.0632C54.946 78.7844 54.558 78.6437 53.777 78.3604C53.2683 78.1759 53.0128 78.0831 52.4994 77.8966C50.1479 77.0423 48.9483 76.605 46.484 75.7041C46.0857 75.5585 45.5003 75.5527 45.1796 75.6902C44.0799 76.1614 43.5347 76.3904 42.4505 76.8395C42.1341 76.9705 42.2017 77.1977 42.5982 77.3475C45.0535 78.2742 46.2506 78.7262 48.6001 79.6131C49.113 79.8067 49.3684 79.9031 49.8769 80.0951C50.6576 80.3898 51.0458 80.5363 51.8165 80.8272C52.1877 80.9673 52.7453 80.965 53.0643 80.8215C54.1567 80.3303 54.705 80.0814 55.8053 79.5745C56.1263 79.4267 56.0877 79.1975 55.7165 79.0632Z" fill="url(#paint17_linear_0_4102)"/>
<path d="M61.3526 81.0973C60.1257 80.6563 59.5075 80.4336 58.2567 79.9823C57.8918 79.8507 57.3342 79.8653 57.0136 80.0147C55.9139 80.5266 55.366 80.7783 54.2732 81.2756C53.9542 81.4206 53.9938 81.6497 54.3595 81.7876C55.612 82.26 56.2315 82.4937 57.4616 82.9573C57.8201 83.0926 58.3682 83.0793 58.6867 82.9274C59.7786 82.4068 60.3255 82.1439 61.4208 81.6115C61.7403 81.4563 61.7101 81.2257 61.3526 81.0973Z" fill="url(#paint18_linear_0_4102)"/>
<path d="M66.8087 83.0515C65.6167 82.6263 65.0171 82.412 63.8071 81.9785C63.4543 81.8521 62.9081 81.877 62.5891 82.0341C61.4952 82.5724 60.9487 82.8385 59.8574 83.3657C59.5391 83.5196 59.5696 83.7523 59.9234 83.8856C61.1374 84.3428 61.7394 84.5694 62.9365 85.0197C63.2861 85.1513 63.8252 85.1269 64.1426 84.9655C65.231 84.4125 65.7757 84.134 66.863 83.5727C67.1803 83.4089 67.1569 83.1756 66.8087 83.0515Z" fill="url(#paint19_linear_0_4102)"/>
<path d="M65.3357 85.921C66.5214 86.3665 67.1106 86.5878 68.2848 87.0281C68.6273 87.1566 69.1605 87.1216 69.4768 86.9501C70.5598 86.362 71.1013 86.0666 72.1792 85.474C72.4938 85.3011 72.4729 85.0633 72.132 84.9427C70.9636 84.5291 70.3772 84.3211 69.1972 83.9016C68.8532 83.7793 68.3167 83.8143 68.0001 83.98C66.9147 84.5477 66.3705 84.8297 65.2833 85.39C64.9661 85.5535 64.99 85.7912 65.3357 85.921Z" fill="url(#paint20_linear_0_4102)"/>
<path d="M70.6429 87.9135C71.81 88.3506 72.3912 88.5681 73.5525 89.0021C73.8915 89.1286 74.4208 89.0834 74.7353 88.9011C75.8127 88.276 76.3508 87.9628 77.419 87.337C77.7306 87.1544 77.7097 86.9107 77.3723 86.7922C76.2172 86.3864 75.6388 86.1829 74.4778 85.7733C74.139 85.6538 73.61 85.6987 73.2962 85.8735C72.2202 86.4731 71.6793 86.7722 70.5974 87.368C70.2819 87.5417 70.3022 87.7859 70.6429 87.9135Z" fill="url(#paint21_linear_0_4102)"/>
<path d="M75.8898 89.8731C77.0486 90.3053 77.627 90.5207 78.7854 90.9516C79.1236 91.0773 79.6516 91.0224 79.9646 90.829C81.0372 90.1659 81.572 89.8341 82.6307 89.1739C82.9399 88.9813 82.9161 88.7303 82.5797 88.613C81.4264 88.211 80.8506 88.0098 79.6976 87.6061C79.3616 87.4885 78.8371 87.5425 78.526 87.7271C77.4601 88.3603 76.9227 88.6774 75.8464 89.3104C75.5322 89.4951 75.5519 89.7471 75.8898 89.8731Z" fill="url(#paint22_linear_0_4102)"/>
<path d="M81.1209 91.8196C82.281 92.2502 82.8621 92.4654 84.0274 92.8968C84.3679 93.0227 84.8973 92.9587 85.2093 92.7539C86.2783 92.0522 86.8106 91.7019 87.8617 91.0067C88.1685 90.804 88.1405 90.5449 87.8013 90.4274C86.6393 90.0252 86.0606 89.8245 84.905 89.4228C84.5677 89.3056 84.0456 89.3682 83.7372 89.5629C82.6802 90.2305 82.1461 90.5662 81.0743 91.2374C80.7618 91.4332 80.7823 91.6939 81.1209 91.8196Z" fill="url(#paint23_linear_0_4102)"/>
<path d="M93.0877 92.251C91.9059 91.8445 91.3192 91.6423 90.1496 91.2387C89.8084 91.1209 89.2858 91.1911 88.9795 91.3961C87.9295 92.0986 87.3976 92.453 86.3288 93.1627C86.017 93.3699 86.0403 93.6401 86.3824 93.7663C87.5547 94.199 88.1426 94.4156 89.3253 94.8507C89.6704 94.9777 90.2042 94.9054 90.516 94.6895C91.5842 93.9494 92.1157 93.5806 93.1617 92.8506C93.4669 92.6377 93.4324 92.3696 93.0877 92.251Z" fill="url(#paint24_linear_0_4102)"/>
<path d="M98.4872 94.1025C97.2751 93.6878 96.6742 93.482 95.4802 93.0724C95.1323 92.953 94.605 93.0298 94.2999 93.2448C93.2545 93.982 92.7232 94.3547 91.6546 95.1028C91.3429 95.3212 91.3708 95.6018 91.7192 95.7295C92.9131 96.1674 93.5133 96.3873 94.7236 96.8298C95.0763 96.9587 95.6181 96.8794 95.9305 96.6525C97.0017 95.8749 97.5341 95.4878 98.5788 94.7241C98.8836 94.5014 98.8408 94.2234 98.4872 94.1025Z" fill="url(#paint25_linear_0_4102)"/>
<path d="M104.049 96.0003C102.795 95.5736 102.175 95.3622 100.946 94.9427C100.587 94.8203 100.052 94.9026 99.7477 95.1274C98.7026 95.8982 98.1698 96.2889 97.0975 97.0743C96.7844 97.3034 96.8188 97.5951 97.1762 97.7254C98.4018 98.1722 99.0193 98.3969 100.267 98.85C100.631 98.9822 101.183 98.8968 101.498 98.6594C102.577 97.8458 103.113 97.4414 104.161 96.6454C104.467 96.4132 104.414 96.1249 104.049 96.0003Z" fill="url(#paint26_linear_0_4102)"/>
<path d="M102.8 99.7701C104.067 100.229 104.707 100.46 106.001 100.928C106.379 101.064 106.947 100.974 107.265 100.726C108.358 99.8793 108.9 99.4585 109.957 98.6325C110.266 98.3915 110.203 98.0925 109.822 97.9632C108.516 97.5203 107.872 97.3016 106.596 96.8681C106.224 96.7417 105.678 96.8281 105.372 97.0622C104.322 97.8647 103.786 98.2729 102.704 99.0937C102.389 99.3333 102.43 99.6361 102.8 99.7701Z" fill="url(#paint27_linear_0_4102)"/>
<path d="M115.855 100.005C114.487 99.5421 113.812 99.3137 112.48 98.8625C112.091 98.7308 111.529 98.8199 111.22 99.0626C110.159 99.8947 109.616 100.319 108.52 101.173C108.2 101.422 108.249 101.736 108.635 101.875C109.953 102.35 110.621 102.589 111.973 103.074C112.367 103.215 112.954 103.122 113.278 102.866C114.392 101.988 114.943 101.552 116.016 100.699C116.33 100.45 116.255 100.14 115.855 100.005Z" fill="url(#paint28_linear_0_4102)"/>
<path d="M44.7446 79.1245C43.4203 78.618 42.7508 78.3621 41.3937 77.8437C40.9977 77.6925 40.4207 77.6729 40.1074 77.7997C39.0337 78.2344 38.5 78.4477 37.4352 78.8711C37.1245 78.9946 37.1935 79.2215 37.5869 79.3779C38.9354 79.914 39.6008 80.1793 40.9186 80.7055C41.3031 80.859 41.8663 80.8788 42.1794 80.7497C43.252 80.3071 43.7898 80.0843 44.8706 79.6313C45.1859 79.4992 45.1308 79.2722 44.7446 79.1245Z" fill="url(#paint29_linear_0_4102)"/>
<path d="M50.6016 81.3649C49.3292 80.8776 48.6871 80.6317 47.3874 80.1342C47.0078 79.989 46.4427 79.98 46.127 80.1138C45.0446 80.5724 44.5058 80.7981 43.4316 81.2461C43.1184 81.3769 43.1721 81.6055 43.5503 81.757C44.8451 82.276 45.4854 82.533 46.7546 83.0436C47.1248 83.1924 47.6785 83.2019 47.9929 83.0644C49.0714 82.5937 49.6123 82.3565 50.6982 81.8761C51.015 81.736 50.9727 81.507 50.6016 81.3649Z" fill="url(#paint30_linear_0_4102)"/>
<path d="M56.2465 83.5283C55.0162 83.0568 54.3965 82.8194 53.1442 82.3395C52.7789 82.1996 52.224 82.2013 51.907 82.3433C50.8205 82.83 50.2792 83.0705 49.2001 83.5477C48.8853 83.6871 48.9274 83.9191 49.2924 84.0663C50.543 84.5708 51.162 84.8209 52.3916 85.3185C52.7504 85.4636 53.2955 85.4625 53.6108 85.3158C54.691 84.8126 55.2332 84.5594 56.3204 84.0477C56.6378 83.8985 56.6052 83.6658 56.2465 83.5283Z" fill="url(#paint31_linear_0_4102)"/>
<path d="M61.7229 85.6277C60.525 85.1688 59.9228 84.938 58.7083 84.4727C58.3541 84.3369 57.8085 84.3496 57.4911 84.501C56.4041 85.0197 55.8617 85.2767 54.7813 85.787C54.4661 85.936 54.4996 86.1731 54.8537 86.3168C56.0688 86.8095 56.6715 87.0542 57.8706 87.5415C58.2208 87.6838 58.7581 87.6717 59.0731 87.5146C60.1528 86.9761 60.6949 86.705 61.7809 86.1588C62.0977 85.9993 62.0727 85.7617 61.7229 85.6277Z" fill="url(#paint32_linear_0_4102)"/>
<path d="M60.2754 88.5193C61.4638 89.0029 62.0546 89.2436 63.2321 89.7234C63.5757 89.8633 64.1076 89.8406 64.4221 89.6724C65.4996 89.0958 66.0408 88.8056 67.1237 88.2225C67.4397 88.0523 67.4189 87.8081 67.076 87.6769C65.9007 87.2274 65.3112 87.0016 64.1246 86.5474C63.7785 86.4149 63.2404 86.4386 62.9238 86.6002C61.8384 87.154 61.2963 87.429 60.2168 87.9754C59.9021 88.1349 59.929 88.3783 60.2754 88.5193Z" fill="url(#paint33_linear_0_4102)"/>
<path d="M65.5973 90.6876C66.768 91.1649 67.3511 91.4027 68.5157 91.8777C68.8555 92.0162 69.3843 91.9831 69.6978 91.8033C70.7728 91.187 71.3129 90.8767 72.3923 90.2546C72.7073 90.0731 72.6883 89.821 72.3489 89.6916C71.1867 89.2482 70.6047 89.0259 69.4364 88.5795C69.0956 88.4492 68.5629 88.4837 68.247 88.6562C67.1648 89.2476 66.6238 89.5418 65.547 90.1267C65.2326 90.2974 65.2557 90.5483 65.5973 90.6876Z" fill="url(#paint34_linear_0_4102)"/>
<path d="M70.8585 92.8334C72.0205 93.3071 72.6002 93.5435 73.7612 94.0165C74.1 94.1545 74.6279 94.1112 74.9408 93.9194C76.0135 93.262 76.5526 92.9313 77.6293 92.269C77.9437 92.0759 77.9237 91.8149 77.5854 91.6863C76.426 91.2456 75.847 91.0253 74.6873 90.5834C74.3491 90.4546 73.8195 90.4993 73.5047 90.6833C72.4256 91.3139 71.8859 91.6284 70.8116 92.2534C70.4981 92.4357 70.5197 92.6953 70.8585 92.8334Z" fill="url(#paint35_linear_0_4102)"/>
<path d="M76.1009 94.9674C77.2628 95.4402 77.8442 95.6766 79.01 96.1501C79.3504 96.2885 79.8794 96.2355 80.1921 96.0315C81.2643 95.3327 81.8033 94.981 82.8787 94.2782C83.1927 94.0732 83.1709 93.8025 82.8305 93.6738C81.6646 93.2327 81.0834 93.0125 79.9225 92.5721C79.5836 92.4436 79.0548 92.4982 78.7406 92.6939C77.6645 93.3647 77.1251 93.6998 76.0528 94.366C75.74 94.5603 75.7619 94.8295 76.1009 94.9674Z" fill="url(#paint36_linear_0_4102)"/>
<path d="M88.1284 95.6736C86.946 95.2288 86.3583 95.0073 85.1861 94.5649C84.844 94.4358 84.3132 94.4996 83.9992 94.7071C82.9238 95.4185 82.3845 95.7746 81.3121 96.4823C80.9993 96.6888 81.0229 96.968 81.3644 97.1065C82.5356 97.5811 83.1227 97.8189 84.3027 98.2958C84.647 98.4349 85.1802 98.3731 85.4935 98.1571C86.5676 97.4168 87.1083 97.0445 88.185 96.3013C88.4995 96.0846 88.4736 95.8035 88.1284 95.6736Z" fill="url(#paint37_linear_0_4102)"/>
<path d="M93.5217 97.6956C92.3131 97.2437 91.7132 97.0191 90.5202 96.5715C90.1724 96.4411 89.6361 96.513 89.3217 96.7323C88.2442 97.4841 87.7034 97.8607 86.628 98.6097C86.3144 98.8283 86.3417 99.1183 86.6883 99.2581C87.8776 99.7374 88.4748 99.9777 89.6779 100.461C90.0286 100.602 90.569 100.532 90.8841 100.304C91.9642 99.5232 92.5078 99.1305 93.5898 98.348C93.9057 98.1196 93.874 97.8273 93.5217 97.6956Z" fill="url(#paint38_linear_0_4102)"/>
<path d="M99.0558 99.7582C97.8113 99.2961 97.1947 99.0668 95.9711 98.6108C95.6143 98.4778 95.0702 98.5572 94.754 98.7879C93.6704 99.5788 93.1257 99.9756 92.0438 100.765C91.7283 100.995 91.7597 101.296 92.1144 101.438C93.3306 101.925 93.9428 102.169 95.1777 102.661C95.5376 102.805 96.0883 102.728 96.4068 102.489C97.4972 101.669 98.0464 101.257 99.1383 100.436C99.4571 100.197 99.419 99.893 99.0558 99.7582Z" fill="url(#paint39_linear_0_4102)"/>
<path d="M110.722 104.058C108.292 103.169 107.105 102.733 104.775 101.874C104.402 101.737 104.217 101.668 103.847 101.532C102.934 101.195 102.482 101.028 101.583 100.695C101.214 100.559 100.658 100.644 100.339 100.886C99.244 101.715 98.6932 102.131 97.5997 102.958C97.2806 103.2 97.3173 103.512 97.6827 103.657C98.5734 104.011 99.0212 104.188 99.9235 104.545C100.29 104.689 100.473 104.762 100.842 104.907C103.145 105.816 104.316 106.276 106.71 107.211C107.097 107.362 107.679 107.275 108.009 107.015C109.139 106.125 109.709 105.677 110.839 104.788C111.169 104.528 111.115 104.201 110.722 104.058Z" fill="url(#paint40_linear_0_4102)"/>
<path d="M39.7265 81.1912C38.4107 80.6586 37.7465 80.3904 36.4007 79.8486C36.008 79.6905 35.4375 79.661 35.1282 79.7831C34.0683 80.2013 33.5397 80.4091 32.4819 80.8266C32.1734 80.9485 32.2411 81.1799 32.6318 81.343C33.9701 81.9019 34.6318 82.1794 35.9426 82.7312C36.3252 82.8922 36.8846 82.9194 37.1946 82.7924C38.257 82.3573 38.7889 82.1401 39.856 81.7031C40.1675 81.5756 40.1104 81.3465 39.7265 81.1912Z" fill="url(#paint41_linear_0_4102)"/>
<path d="M45.5559 83.5603C44.2875 83.0424 43.648 82.7818 42.3545 82.2561C41.9768 82.1025 41.4167 82.0829 41.105 82.212C40.0366 82.6546 39.504 82.8744 38.4408 83.3147C38.1306 83.4431 38.1856 83.6767 38.5623 83.8362C39.8525 84.3828 40.4913 84.6545 41.758 85.195C42.1273 85.3527 42.677 85.3713 42.9878 85.2367C44.0521 84.7754 44.5862 84.5444 45.658 84.0794C45.9706 83.9437 45.9256 83.7113 45.5559 83.5603Z" fill="url(#paint42_linear_0_4102)"/>
<path d="M51.1907 85.8728C49.9614 85.367 49.3423 85.1127 48.0921 84.6005C47.7274 84.451 47.1768 84.4413 46.8638 84.5789C45.7915 85.0504 45.2573 85.2846 44.193 85.7519C43.8824 85.8883 43.928 86.1258 44.2927 86.2823C45.5425 86.8185 46.1617 87.0852 47.3926 87.6166C47.7514 87.7716 48.2927 87.7813 48.6025 87.6378C49.665 87.1462 50.1992 86.8996 51.2721 86.4026C51.5852 86.2576 51.5493 86.0203 51.1907 85.8728Z" fill="url(#paint43_linear_0_4102)"/>
<path d="M56.6703 88.1339C55.4709 87.6376 54.8679 87.3884 53.6529 86.8871C53.2984 86.7409 52.7559 86.7415 52.4427 86.8886C51.3702 87.3928 50.8362 87.6432 49.7744 88.1414C49.4644 88.2869 49.503 88.5296 49.8578 88.6835C51.0751 89.2115 51.6793 89.4743 52.8817 89.9986C53.2327 90.1516 53.7653 90.1516 54.0741 89.9984C55.1324 89.4736 55.6653 89.2094 56.7367 88.6773C57.0492 88.5221 57.0206 88.2788 56.6703 88.1339Z" fill="url(#paint44_linear_0_4102)"/>
<path d="M55.2938 91.0514C56.4863 91.5731 57.0794 91.8332 58.2612 92.3522C58.6059 92.5036 59.1326 92.494 59.4395 92.3304C60.4917 91.7697 61.0228 91.4867 62.091 90.917C62.4027 90.7508 62.3782 90.5002 62.0344 90.3574C60.8563 89.868 60.265 89.6226 59.076 89.1297C58.7295 88.9859 58.1937 88.9972 57.8815 89.1548C56.8106 89.6946 56.278 89.9627 55.221 90.495C54.9125 90.6503 54.946 90.8992 55.2938 91.0514Z" fill="url(#paint45_linear_0_4102)"/>
<path d="M60.6358 93.3965C61.8113 93.9139 62.3968 94.1721 63.566 94.6879C63.9072 94.8384 64.4294 94.8195 64.7344 94.6448C65.78 94.0462 66.3091 93.7437 67.3737 93.1345C67.6843 92.9567 67.6614 92.6976 67.3214 92.5561C66.156 92.0711 65.5725 91.8284 64.401 91.3412C64.0594 91.1991 63.529 91.221 63.2175 91.3896C62.15 91.9675 61.6193 92.2545 60.5684 92.8232C60.2619 92.9893 60.2929 93.2456 60.6358 93.3965Z" fill="url(#paint46_linear_0_4102)"/>
<path d="M65.9181 95.7269C67.0843 96.2421 67.6663 96.4994 68.8309 97.0141C69.1707 97.1643 69.6904 97.1362 69.9938 96.9502C71.0333 96.3126 71.5606 95.9898 72.6219 95.34C72.9317 95.1503 72.9088 94.8818 72.5698 94.7407C71.4083 94.2576 70.8282 94.0161 69.6658 93.5323C69.3268 93.3913 68.7991 93.4232 68.4888 93.6035C67.4249 94.2213 66.8965 94.5281 65.8522 95.1349C65.5476 95.312 65.5782 95.5767 65.9181 95.7269Z" fill="url(#paint47_linear_0_4102)"/>
<path d="M71.177 98.0492C72.3418 98.564 72.9245 98.8216 74.0917 99.3371C74.4327 99.4877 74.952 99.4505 75.2542 99.253C76.2892 98.576 76.8153 98.2328 77.8753 97.5417C78.1845 97.3399 78.1604 97.0615 77.8197 96.9202C76.6542 96.4365 76.0726 96.195 74.9104 95.7119C74.5713 95.571 74.0445 95.613 73.7348 95.8052C72.6741 96.4639 72.147 96.791 71.1087 97.4368C70.8057 97.6253 70.8371 97.899 71.177 98.0492Z" fill="url(#paint48_linear_0_4102)"/>
<path d="M83.1104 99.1124C81.9311 98.6253 81.3443 98.3825 80.1734 97.8975C79.8318 97.756 79.3036 97.8075 78.9946 98.0118C77.9347 98.7117 77.4085 99.0592 76.374 99.7446C76.0722 99.9445 76.1059 100.228 76.4477 100.378C77.6193 100.895 78.2061 101.154 79.3845 101.672C79.7284 101.824 80.2498 101.778 80.5513 101.569C81.5849 100.853 82.1114 100.489 83.1722 99.7573C83.4818 99.5435 83.4547 99.2545 83.1104 99.1124Z" fill="url(#paint49_linear_0_4102)"/>
<path d="M88.4809 101.325C87.2797 100.832 86.683 100.586 85.4948 100.097C85.1484 99.9542 84.616 100.014 84.3061 100.231C83.2443 100.971 82.7175 101.339 81.6841 102.064C81.3825 102.275 81.4202 102.568 81.7658 102.72C82.9516 103.241 83.5469 103.501 84.744 104.025C85.0931 104.178 85.6199 104.125 85.922 103.904C86.9574 103.15 87.4859 102.766 88.5519 101.994C88.863 101.769 88.8314 101.468 88.4809 101.325Z" fill="url(#paint50_linear_0_4102)"/>
<path d="M93.9696 103.567C92.7377 103.065 92.1267 102.816 90.9129 102.32C90.5589 102.175 90.0191 102.243 89.7074 102.471C88.6401 103.252 88.1107 103.639 87.0742 104.402C86.7717 104.625 86.8138 104.928 87.1661 105.081C88.374 105.608 88.9817 105.872 90.2053 106.402C90.562 106.557 91.0966 106.497 91.4007 106.266C92.4431 105.475 92.9762 105.072 94.0518 104.261C94.3655 104.024 94.3286 103.713 93.9696 103.567Z" fill="url(#paint51_linear_0_4102)"/>
<path d="M99.6163 105.854C98.3451 105.341 97.7162 105.087 96.4676 104.581C96.1035 104.434 95.5533 104.509 95.2386 104.748C94.1603 105.567 93.6257 105.973 92.5814 106.772C92.2765 107.006 92.3238 107.319 92.685 107.475C93.9229 108.009 94.5463 108.277 95.8041 108.817C96.1712 108.974 96.7167 108.908 97.0246 108.667C98.0796 107.841 98.6202 107.42 99.7112 106.573C100.03 106.326 99.9871 106.003 99.6163 105.854Z" fill="url(#paint52_linear_0_4102)"/>
<path d="M105.46 108.194C104.141 107.668 103.489 107.408 102.198 106.89C101.821 106.739 101.257 106.82 100.937 107.069C99.8418 107.924 99.2991 108.348 98.2407 109.181C97.9318 109.424 97.9845 109.748 98.3571 109.907C99.6325 110.451 100.276 110.724 101.576 111.274C101.956 111.435 102.516 111.364 102.829 111.114C103.904 110.256 104.456 109.819 105.569 108.938C105.894 108.681 105.845 108.347 105.46 108.194Z" fill="url(#paint53_linear_0_4102)"/>
<path d="M34.7591 83.2158C33.4491 82.6584 32.7879 82.3783 31.4507 81.8146C31.0606 81.6501 30.4931 81.616 30.1841 81.739C29.1255 82.1608 28.596 82.373 27.5333 82.8051C27.2232 82.9311 27.2888 83.1704 27.6789 83.3386C29.0157 83.9149 29.6774 84.2018 30.9895 84.7739C31.3724 84.9408 31.9317 84.9703 32.2407 84.8408C33.3 84.397 33.8296 84.1777 34.8897 83.7406C35.1989 83.613 35.1414 83.3783 34.7591 83.2158Z" fill="url(#paint54_linear_0_4102)"/>
<path d="M40.5745 85.7071C39.3074 85.1599 38.6685 84.8852 37.3786 84.3327C37.002 84.1713 36.445 84.1449 36.1355 84.2737C35.0758 84.7156 34.5465 84.937 33.4888 85.3845C33.1799 85.5151 33.2366 85.7559 33.6146 85.9221C34.9081 86.491 35.5493 86.7744 36.8218 87.3396C37.1929 87.5045 37.7409 87.5283 38.0475 87.3932C39.0982 86.9303 39.6253 86.7 40.6833 86.2393C40.9921 86.1048 40.9441 85.8667 40.5745 85.7071Z" fill="url(#paint55_linear_0_4102)"/>
<path d="M46.2123 88.1583C44.9804 87.6194 44.3603 87.349 43.1099 86.8058C42.745 86.6472 42.1975 86.6289 41.8892 86.7649C40.8323 87.2311 40.3059 87.464 39.2576 87.9316C38.9515 88.0679 39.0023 88.3119 39.3694 88.4761C40.6267 89.0387 41.2503 89.3192 42.4902 89.879C42.8517 90.0423 43.3892 90.0599 43.6923 89.9181C44.7305 89.4321 45.2537 89.189 46.3057 88.7008C46.6127 88.5585 46.5713 88.3154 46.2123 88.1583Z" fill="url(#paint56_linear_0_4102)"/>
<path d="M51.7081 90.5771C50.5041 90.0447 49.899 89.7778 48.6803 89.242C48.325 89.0859 47.7865 89.0761 47.4801 89.2203C46.4295 89.7146 45.9078 89.9608 44.8722 90.4521C44.5703 90.5956 44.6174 90.8436 44.9754 91.0063C46.203 91.5642 46.8125 91.8424 48.0266 92.3982C48.381 92.5605 48.908 92.5708 49.2064 92.4214C50.23 91.9092 50.7474 91.6516 51.7912 91.1327C52.0956 90.9812 52.0599 90.7325 51.7081 90.5771Z" fill="url(#paint57_linear_0_4102)"/>
<path d="M78.2499 102.456C77.0711 101.928 76.4839 101.665 75.3113 101.138C75.2982 101.132 75.2814 101.131 75.2674 101.126C75.2553 101.12 75.2499 101.111 75.2369 101.105C74.3217 100.694 73.8652 100.489 72.9528 100.079C71.7842 99.5543 71.2008 99.2922 70.0344 98.7678C69.0943 98.3453 68.6245 98.1341 67.6845 97.7116C66.5183 97.1874 65.9351 96.9255 64.7669 96.401C63.8255 95.9784 63.3545 95.767 62.4107 95.344C61.2392 94.8189 60.6525 94.5563 59.4751 94.0299C57.3487 93.0792 56.281 92.603 54.1243 91.6457C53.7761 91.4911 53.2455 91.4904 52.9416 91.6438C51.9003 92.1695 51.384 92.4305 50.3638 92.9486C50.0663 93.0997 50.1117 93.353 50.4632 93.5146C52.6383 94.5157 53.7158 95.0147 55.862 96.0117C57.0502 96.5639 57.642 96.8395 58.8244 97.391C59.7772 97.8355 60.2523 98.0575 61.2024 98.5018C62.3812 99.053 62.9691 99.3284 64.1456 99.8797C65.0938 100.324 65.5675 100.546 66.5154 100.991C67.691 101.542 68.2788 101.818 69.4562 102.37C70.3752 102.802 70.8348 103.017 71.7559 103.449C71.7689 103.455 71.7855 103.457 71.7992 103.463C71.8119 103.469 71.8173 103.478 71.8306 103.484C73.0106 104.038 73.6011 104.314 74.7862 104.869C75.1319 105.031 75.6328 105.006 75.909 104.812C76.8551 104.144 77.3444 103.801 78.3429 103.104C78.6345 102.901 78.5938 102.61 78.2499 102.456Z" fill="url(#paint58_linear_0_4102)"/>
<path d="M83.6096 104.849C82.413 104.316 81.8177 104.051 80.6317 103.521C80.286 103.367 79.7673 103.41 79.4762 103.615C78.4783 104.32 77.9897 104.666 77.0457 105.34C76.7704 105.537 76.8317 105.826 77.1791 105.989C78.3696 106.545 78.9666 106.824 80.1663 107.382C80.5161 107.545 81.0184 107.514 81.292 107.31C82.2298 106.611 82.7166 106.252 83.7132 105.519C84.0039 105.305 83.9586 105.004 83.6096 104.849Z" fill="url(#paint59_linear_0_4102)"/>
<path d="M89.066 107.267C87.844 106.728 87.2372 106.46 86.0303 105.924C85.6782 105.768 85.1548 105.818 84.8639 106.034C83.867 106.774 83.3804 107.137 82.444 107.843C82.1706 108.049 82.2384 108.346 82.5905 108.51C83.7987 109.07 84.4053 109.351 85.6259 109.915C85.9818 110.079 86.488 110.043 86.7608 109.83C87.6948 109.101 88.1817 108.726 89.1813 107.959C89.4728 107.735 89.4222 107.424 89.066 107.267Z" fill="url(#paint60_linear_0_4102)"/>
<path d="M94.6535 109.72C93.3984 109.173 92.7768 108.901 91.541 108.358C91.1805 108.2 90.6496 108.256 90.3576 108.482C89.3569 109.256 88.8694 109.635 87.9354 110.37C87.6629 110.584 87.7369 110.889 88.0964 111.054C89.3286 111.621 89.9481 111.905 91.1966 112.475C91.5608 112.641 92.0738 112.6 92.3471 112.379C93.2831 111.623 93.7732 111.232 94.7813 110.434C95.0754 110.201 95.0193 109.88 94.6535 109.72Z" fill="url(#paint61_linear_0_4102)"/>
<path d="M100.406 112.213C99.1113 111.656 98.4702 111.378 97.1984 110.827C96.8271 110.666 96.2851 110.728 95.9901 110.963C94.9794 111.768 94.4882 112.162 93.5506 112.924C93.2773 113.146 93.3577 113.459 93.7264 113.626C94.9894 114.199 95.6254 114.487 96.9081 115.064C97.2825 115.233 97.8059 115.188 98.0816 114.961C99.027 114.18 99.5236 113.775 100.547 112.947C100.846 112.706 100.784 112.376 100.406 112.213Z" fill="url(#paint62_linear_0_4102)"/>
<path d="M71.6618 11.0427C66.5753 31.6478 63.4703 41.6275 58.3774 61.3813L71.6618 11.0427Z" fill="#182970"/>
<path d="M71.6618 11.0427C66.5753 31.6478 63.4703 41.6275 58.3774 61.3813" stroke="#D0D2D3" stroke-width="2.3945" stroke-miterlimit="10"/>
<path d="M81.1618 15.6947C78.3507 15.1429 76.946 14.8669 74.138 14.3148C73.9489 14.2776 73.8373 14.0764 73.8898 13.8679C73.9422 13.6593 74.1396 13.5188 74.3287 13.5559C77.1376 14.1062 78.5424 14.3813 81.3533 14.9315C81.5424 14.9685 81.654 15.1704 81.6014 15.3804C81.549 15.5902 81.3508 15.7318 81.1618 15.6947Z" fill="#F5B419"/>
<path d="M69.0702 13.3184C68.3289 13.1725 67.9585 13.0996 67.2175 12.9537C67.1051 12.9315 67.0387 12.8128 67.0693 12.6894C67.0998 12.567 67.115 12.5059 67.1453 12.3835C67.1762 12.2602 67.293 12.1772 67.4054 12.1992C68.1468 12.3446 68.5176 12.4173 69.2592 12.5628C69.3714 12.5848 69.438 12.7039 69.4072 12.8275C69.3764 12.9501 69.3611 13.0114 69.3305 13.134C69.2994 13.2574 69.1823 13.3405 69.0702 13.3184Z" fill="#A8AFC9"/>
<path d="M68.3078 16.3347C67.5679 16.1859 67.1982 16.1115 66.4591 15.9626C66.3469 15.94 66.281 15.8212 66.3121 15.6985C66.3431 15.5767 66.3586 15.5158 66.3893 15.394C66.4207 15.2712 66.5374 15.189 66.6498 15.2114C67.3895 15.3595 67.7592 15.4334 68.4994 15.5813C68.6116 15.6037 68.6775 15.7228 68.646 15.8462C68.615 15.9685 68.5995 16.0296 68.5685 16.1518C68.5373 16.2749 68.4197 16.3572 68.3078 16.3347Z" fill="#A8AFC9"/>
<path d="M67.5348 19.3445C66.7963 19.1911 66.4276 19.1144 65.69 18.9611C65.5781 18.9377 65.5125 18.8189 65.5443 18.6966C65.5755 18.5753 65.5913 18.5147 65.6225 18.3933C65.654 18.271 65.7712 18.1898 65.8831 18.2129C66.621 18.3651 66.9901 18.4412 67.7288 18.5932C67.8407 18.6162 67.9063 18.7356 67.8745 18.8585C67.8429 18.9804 67.8275 19.0413 67.7957 19.1632C67.7641 19.2862 67.6466 19.3677 67.5348 19.3445Z" fill="#A8AFC9"/>
<path d="M66.7539 22.343C66.0169 22.1837 65.6487 22.1042 64.9128 21.9449C64.8012 21.9208 64.7361 21.8015 64.7681 21.6798C64.7998 21.5591 64.8155 21.4987 64.8472 21.3778C64.879 21.256 64.9961 21.1758 65.108 21.1998C65.8443 21.3574 66.2125 21.4362 66.9501 21.5939C67.0617 21.6178 67.1268 21.7376 67.0947 21.8601C67.0627 21.9817 67.047 22.0424 67.015 22.1641C66.9828 22.2866 66.8655 22.3671 66.7539 22.343Z" fill="#A8AFC9"/>
<path d="M65.9653 25.3347C65.2297 25.1686 64.8623 25.0855 64.128 24.9194C64.0165 24.8942 63.9522 24.7744 63.9842 24.6531C64.0161 24.5328 64.0321 24.4726 64.064 24.3522C64.0962 24.2309 64.2132 24.152 64.3247 24.1769C65.0594 24.3412 65.4269 24.4234 66.163 24.5876C66.2742 24.6125 66.339 24.7328 66.3068 24.8551C66.2745 24.9763 66.2586 25.0369 66.2266 25.1582C66.1942 25.2805 66.0765 25.3599 65.9653 25.3347Z" fill="#A8AFC9"/>
<path d="M65.1713 28.318C64.4369 28.1441 64.0703 28.0571 63.3377 27.8832C63.2265 27.8568 63.1625 27.7364 63.1947 27.6155C63.2268 27.4957 63.243 27.4357 63.2749 27.3157C63.3073 27.1948 63.4246 27.1172 63.5357 27.1433C64.2687 27.3152 64.6354 27.4011 65.3701 27.573C65.4813 27.5991 65.5458 27.72 65.5133 27.842C65.4808 27.9629 65.4649 28.0234 65.4324 28.1443C65.4 28.2662 65.2825 28.3443 65.1713 28.318Z" fill="#A8AFC9"/>
<path d="M64.3739 31.2924C63.6408 31.1101 63.275 31.0189 62.5438 30.8365C62.433 30.8089 62.3692 30.6877 62.4017 30.5672C62.434 30.4477 62.4499 30.3879 62.4823 30.2684C62.5147 30.1478 62.6318 30.0716 62.7427 30.0989C63.4742 30.2792 63.8404 30.3692 64.5737 30.5494C64.6848 30.5767 64.7488 30.6985 64.7162 30.8201C64.6838 30.9408 64.6676 31.001 64.6351 31.1216C64.6024 31.2432 64.4851 31.3201 64.3739 31.2924Z" fill="#A8AFC9"/>
<path d="M63.5725 34.2592C62.8409 34.068 62.4756 33.9723 61.7463 33.7811C61.6356 33.7521 61.5719 33.63 61.6045 33.51C61.6369 33.3909 61.653 33.3313 61.6854 33.2121C61.718 33.092 61.8348 33.0171 61.9456 33.0457C62.6755 33.2348 63.0408 33.3293 63.7729 33.5183C63.8837 33.5469 63.9476 33.6695 63.9149 33.7907C63.8823 33.9109 63.8661 33.9711 63.8336 34.0914C63.8009 34.2126 63.6833 34.2881 63.5725 34.2592Z" fill="#A8AFC9"/>
<path d="M62.7718 37.2189C62.0413 37.0185 61.6769 36.9184 60.949 36.7181C60.8385 36.6877 60.7752 36.5649 60.8078 36.4451C60.8402 36.3264 60.8563 36.2669 60.8887 36.148C60.9213 36.0282 61.038 35.9547 61.1485 35.9848C61.8768 36.1829 62.2416 36.2819 62.9722 36.4799C63.0829 36.5098 63.1465 36.6333 63.1138 36.7542C63.0814 36.8742 63.0649 36.9343 63.0326 37.0541C62.9998 37.175 62.8825 37.2492 62.7718 37.2189Z" fill="#A8AFC9"/>
<path d="M61.9708 40.17C61.2416 39.9607 60.8777 39.856 60.1513 39.6466C60.0412 39.6148 59.9779 39.4912 60.0105 39.3716C60.0428 39.2531 60.059 39.1938 60.0912 39.0752C60.1239 38.9557 60.2402 38.8836 60.3506 38.915C61.0774 39.1221 61.4414 39.2257 62.1709 39.4328C62.2813 39.4642 62.3448 39.5885 62.3121 39.7091C62.2798 39.8288 62.2636 39.8887 62.2309 40.0083C62.1982 40.1289 62.0813 40.2017 61.9708 40.17Z" fill="#A8AFC9"/>
<path d="M61.1727 43.1129C60.4445 42.8947 60.0814 42.7856 59.3565 42.5674C59.2465 42.5342 59.1832 42.4097 59.2159 42.2904C59.2479 42.1722 59.2641 42.1129 59.2963 41.9947C59.3287 41.8755 59.445 41.8046 59.555 41.8374C60.2803 42.0534 60.6436 42.1615 61.372 42.3774C61.4823 42.4101 61.5458 42.5353 61.5131 42.6557C61.4808 42.775 61.4646 42.8348 61.4322 42.9541C61.3995 43.0745 61.2827 43.146 61.1727 43.1129Z" fill="#A8AFC9"/>
<path d="M60.377 46.0508C59.6502 45.8243 59.2875 45.711 58.5641 45.4844C58.4544 45.45 58.3912 45.3246 58.4236 45.2056C58.4556 45.0876 58.4715 45.0285 58.5036 44.9105C58.5359 44.7914 58.6519 44.7218 58.7616 44.7558C59.4855 44.9805 59.8482 45.0926 60.5752 45.3171C60.6852 45.3511 60.7489 45.4772 60.7162 45.5971C60.6841 45.7162 60.6679 45.7758 60.6358 45.8949C60.6035 46.015 60.487 46.0851 60.377 46.0508Z" fill="#A8AFC9"/>
<path d="M59.5876 48.9822C58.8619 48.7481 58.5001 48.631 57.7782 48.3967C57.6686 48.3612 57.6055 48.235 57.6375 48.1162C57.6693 47.9984 57.6852 47.9393 57.717 47.8215C57.749 47.7027 57.8647 47.6341 57.9743 47.6693C58.6966 47.9018 59.0585 48.018 59.7845 48.2504C59.8944 48.2855 59.9578 48.4123 59.9257 48.5321C59.8939 48.6509 59.8776 48.7103 59.8458 48.8291C59.8137 48.9488 59.6975 49.0178 59.5876 48.9822Z" fill="#A8AFC9"/>
<path d="M58.8044 51.9057C58.0802 51.6648 57.7188 51.5443 56.9983 51.3033C56.889 51.2667 56.8259 51.1398 56.8574 51.0211C56.8889 50.9034 56.9047 50.8444 56.9363 50.7268C56.9679 50.6081 57.0832 50.5406 57.1925 50.5769C57.9134 50.8164 58.2748 50.936 58.9996 51.1754C59.1092 51.2117 59.1728 51.339 59.1409 51.4586C59.1094 51.577 59.0935 51.6363 59.062 51.7548C59.0299 51.8743 58.9142 51.9422 58.8044 51.9057Z" fill="#A8AFC9"/>
<path d="M58.0298 54.8235C57.3064 54.577 56.9456 54.4536 56.2265 54.207C56.1176 54.1695 56.0542 54.042 56.0855 53.9235C56.1167 53.8059 56.1324 53.747 56.1633 53.6295C56.1949 53.5109 56.3094 53.4442 56.4187 53.4814C57.1381 53.7269 57.4989 53.8495 58.2224 54.0948C58.3319 54.1319 58.3957 54.2598 58.3641 54.379C58.3329 54.4973 58.3172 54.5564 58.2859 54.6747C58.2546 54.7939 58.1391 54.8608 58.0298 54.8235Z" fill="#A8AFC9"/>
<path d="M57.2645 57.7331C56.5424 57.4822 56.1825 57.3568 55.4647 57.1058C55.3557 57.0677 55.2924 56.9398 55.3233 56.8213C55.3541 56.7039 55.3694 56.6451 55.4001 56.5275C55.4312 56.409 55.5452 56.343 55.6541 56.381C56.3723 56.631 56.7324 56.7561 57.4549 57.006C57.5643 57.0438 57.6282 57.1721 57.5971 57.291C57.5663 57.4091 57.5509 57.468 57.5199 57.586C57.4888 57.705 57.374 57.7711 57.2645 57.7331Z" fill="#A8AFC9"/>
<path d="M84.2485 19.5314C81.4348 18.9692 80.0292 18.6879 77.2203 18.1248C77.0313 18.087 76.9202 17.884 76.9737 17.674C77.0271 17.464 77.2253 17.323 77.4146 17.3607C80.2234 17.9203 81.6292 18.2 84.4425 18.759C84.6316 18.7967 84.7431 19.0011 84.6899 19.2135C84.6367 19.4262 84.4379 19.5693 84.2485 19.5314Z" fill="#F5B419"/>
<path d="M108.337 24.3218C106.286 23.9161 105.259 23.7128 103.208 23.3061C103.028 23.2705 102.921 23.0717 102.97 22.865C102.973 22.8486 102.975 22.8404 102.979 22.824C103.028 22.6172 103.216 22.4776 103.395 22.5132C105.446 22.9177 106.472 23.1199 108.522 23.5238C108.703 23.5592 108.81 23.758 108.762 23.9661C108.758 23.9826 108.756 23.9909 108.752 24.0075C108.704 24.2157 108.517 24.3575 108.337 24.3218Z" fill="#F5B419"/>
<path d="M92.6794 21.215C89.8611 20.6538 88.4529 20.3732 85.6382 19.811C85.4486 19.7731 85.3373 19.5679 85.3906 19.3553C85.444 19.1425 85.6422 18.9995 85.8318 19.037C88.646 19.5959 90.0541 19.8752 92.8712 20.4331C93.0606 20.4707 93.1726 20.6771 93.1199 20.8922C93.0674 21.1074 92.8689 21.2527 92.6794 21.215Z" fill="#A8AFC9"/>
<path d="M101.715 23.0087C98.8942 22.4492 97.4842 22.1692 94.6653 21.6084C94.4755 21.5706 94.3633 21.363 94.416 21.1476C94.4685 20.932 94.6666 20.7867 94.8563 20.8244C97.6742 21.382 99.0836 21.6607 101.903 22.2172C102.093 22.2547 102.205 22.463 102.154 22.6808C102.102 22.8985 101.904 23.0463 101.715 23.0087Z" fill="white"/>
<path d="M91.9066 24.3654C89.0845 23.7884 87.6746 23.4994 84.8578 22.921C84.668 22.882 84.5571 22.6746 84.611 22.4601C84.665 22.2458 84.864 22.1021 85.0536 22.1407C87.8698 22.7146 89.2795 23.0013 92.1005 23.5738C92.2903 23.6124 92.4022 23.8218 92.3488 24.0397C92.2957 24.2573 92.0964 24.4042 91.9066 24.3654Z" fill="white"/>
<path d="M100.956 26.2125C98.1308 25.6381 96.7183 25.3503 93.8951 24.7739C93.7052 24.735 93.5933 24.5242 93.6465 24.3058C93.6995 24.0875 93.8985 23.9406 94.0885 23.9791C96.9106 24.5512 98.3223 24.8368 101.147 25.4069C101.337 25.4452 101.449 25.6577 101.397 25.8793C101.345 26.101 101.147 26.2512 100.956 26.2125Z" fill="#F5B419"/>
<path d="M109.686 27.9797C106.86 27.4083 105.446 27.1218 102.621 26.548C102.431 26.5094 102.318 26.2956 102.37 26.0735C102.422 25.8514 102.62 25.7014 102.81 25.7398C105.635 26.3095 107.047 26.5939 109.872 27.1614C110.062 27.1995 110.175 27.4145 110.124 27.6397C110.073 27.8648 109.876 28.0182 109.686 27.9797Z" fill="#22FF32"/>
<path d="M116.856 26.0028C114.037 25.4471 112.627 25.1687 109.806 24.6112C109.616 24.5736 109.503 24.3626 109.553 24.1428C109.604 23.9231 109.801 23.7743 109.991 23.8117C112.81 24.3667 114.219 24.6437 117.037 25.197C117.227 25.2343 117.342 25.4453 117.292 25.667C117.242 25.8887 117.046 26.0402 116.856 26.0028Z" fill="#22FF32"/>
<path d="M83.4668 22.6347C80.6512 22.056 79.2452 21.7662 76.4374 21.1865C76.2483 21.1475 76.138 20.9432 76.192 20.7326C76.2459 20.5221 76.4449 20.3815 76.6338 20.4202C79.4417 20.9953 80.8478 21.2826 83.663 21.8568C83.8523 21.8954 83.9633 22.102 83.9093 22.3161C83.8555 22.5301 83.6561 22.6736 83.4668 22.6347Z" fill="#F5B419"/>
<path d="M82.6781 25.7598C79.8607 25.1597 78.4544 24.8591 75.6474 24.2576C75.4584 24.2171 75.3486 24.0113 75.4031 23.8003C75.4576 23.5894 75.6567 23.4496 75.8459 23.4897C78.6528 24.0855 80.0592 24.3831 82.8763 24.9775C83.0657 25.0175 83.1764 25.2263 83.1219 25.4417C83.0674 25.6569 82.8675 25.8003 82.6781 25.7598Z" fill="#F5B419"/>
<path d="M91.7707 27.6869C88.9443 27.0893 87.5322 26.7899 84.7125 26.1902C84.5228 26.1498 84.412 25.9398 84.4663 25.7237C84.5206 25.5076 84.7205 25.3637 84.91 25.4036C87.7293 25.9975 89.1408 26.2941 91.9663 26.8861C92.1567 26.926 92.2684 27.1387 92.2146 27.3591C92.1607 27.5794 91.9611 27.7271 91.7707 27.6869Z" fill="#22FF32"/>
<path d="M78.0171 28.0373C75.2048 27.4104 73.8016 27.0966 71.0043 26.4684C70.8159 26.4261 70.7069 26.2208 70.7617 26.0122C70.8163 25.8037 71.0151 25.6671 71.2037 25.709C74.0018 26.3303 75.4047 26.6407 78.2171 27.2607C78.4062 27.3025 78.5164 27.5115 78.4612 27.7251C78.4063 27.939 78.2064 28.0794 78.0171 28.0373Z" fill="#F5B419"/>
<path d="M76.5948 33.5398C73.7812 32.8597 72.3786 32.5191 69.5853 31.8373C69.3971 31.7914 69.2887 31.5836 69.3441 31.3755C69.3994 31.1673 69.5984 31.034 69.7867 31.0794C72.5803 31.7532 73.9829 32.0898 76.7965 32.7619C76.9856 32.8071 77.0953 33.0193 77.0399 33.2336C76.9844 33.4478 76.7839 33.5856 76.5948 33.5398Z" fill="#F5B419"/>
<path d="M69.1218 62.2725C66.2975 61.3271 64.8955 60.853 62.1199 59.9032C61.9332 59.8392 61.8233 59.6223 61.8759 59.4208C61.9283 59.2194 62.124 59.1066 62.3111 59.1704C65.0868 60.1169 66.489 60.5895 69.313 61.5316C69.5028 61.595 69.6156 61.8139 69.563 62.0178C69.5105 62.2217 69.3119 62.3361 69.1218 62.2725Z" fill="#F5B419"/>
<path d="M79.6717 37.5696C76.8466 36.8589 75.4385 36.5028 72.634 35.7894C72.445 35.7414 72.336 35.5295 72.3918 35.3186C72.4472 35.1076 72.6473 34.9738 72.836 35.0212C75.6407 35.7262 77.0489 36.0783 79.8732 36.7806C80.0632 36.8279 80.1734 37.0443 80.118 37.2615C80.0627 37.4789 79.8617 37.6175 79.6717 37.5696Z" fill="#F5B419"/>
<path d="M88.5783 39.7967C85.7357 39.0908 84.3168 38.7367 81.4877 38.0269C81.2972 37.9791 81.1869 37.7616 81.2422 37.5434C81.2977 37.3252 81.4983 37.1853 81.6888 37.2325C84.5174 37.9341 85.9357 38.2842 88.7771 38.9818C88.9684 39.0288 89.08 39.2507 89.0255 39.4752C88.9706 39.6994 88.7695 39.8442 88.5783 39.7967Z" fill="#A8AFC9"/>
<path d="M97.5273 42.0053C94.6762 41.3059 93.2511 40.9547 90.4062 40.25C90.2147 40.2026 90.1027 39.9794 90.1572 39.7543C90.2118 39.529 90.413 39.3832 90.6043 39.43C93.448 40.1266 94.8723 40.4737 97.7221 41.1653C97.9141 41.2118 98.0272 41.4391 97.9737 41.6704C97.9201 41.9015 97.7193 42.0524 97.5273 42.0053Z" fill="#22FF32"/>
<path d="M106.489 44.1895C103.638 43.4982 102.212 43.1508 99.3596 42.453C99.1678 42.4061 99.0543 42.1776 99.1078 41.9456C99.161 41.7134 99.3619 41.5615 99.5535 41.6079C102.404 42.2978 103.83 42.6415 106.68 43.3249C106.872 43.371 106.986 43.6034 106.933 43.8414C106.881 44.0792 106.681 44.2361 106.489 44.1895Z" fill="#30B7F2"/>
<path d="M85.6995 51.5697C82.8404 50.7457 81.4141 50.3318 78.5745 49.5018C78.3832 49.446 78.2719 49.224 78.3269 49.0084C78.3817 48.7928 78.5828 48.6613 78.7741 48.7167C81.6129 49.5388 83.0387 49.9487 85.8967 50.7651C86.0893 50.8201 86.2021 51.0465 86.1478 51.268C86.0936 51.4896 85.8923 51.6253 85.6995 51.5697Z" fill="#A8AFC9"/>
<path d="M94.7079 54.1472C91.836 53.3326 90.4006 52.9231 87.5377 52.1007C87.3452 52.0454 87.2316 51.8184 87.2857 51.596C87.3396 51.3736 87.5416 51.2364 87.734 51.2911C90.5957 52.1058 92.0301 52.5115 94.9008 53.3186C95.0941 53.3729 95.209 53.6043 95.1559 53.8324C95.103 54.0606 94.9015 54.2021 94.7079 54.1472Z" fill="#22FF32"/>
<path d="M103.736 56.6896C100.864 55.887 99.4265 55.483 96.5534 54.6706C96.3601 54.6159 96.245 54.3842 96.2979 54.1551C96.3507 53.9262 96.552 53.783 96.7453 53.8371C99.6168 54.6419 101.054 55.0422 103.924 55.8377C104.118 55.8913 104.233 56.1272 104.181 56.3618C104.13 56.5963 103.929 56.7437 103.736 56.6896Z" fill="#30B7F2"/>
<path d="M112.496 59.1205C109.637 58.3317 108.203 57.9342 105.332 57.1339C105.139 57.08 105.023 56.8439 105.075 56.6087C105.126 56.3736 105.326 56.2246 105.52 56.278C108.389 57.071 109.822 57.465 112.68 58.2468C112.872 58.2994 112.988 58.5395 112.937 58.78C112.887 59.0205 112.688 59.1735 112.496 59.1205Z" fill="#A8AFC9"/>
<path d="M121.443 61.5734C118.61 60.8015 117.186 60.4118 114.331 59.6263C114.139 59.5735 114.023 59.3332 114.074 59.092C114.124 58.8507 114.323 58.6959 114.515 58.7483C117.368 59.5269 118.791 59.9132 121.624 60.6784C121.815 60.73 121.93 60.974 121.88 61.2204C121.83 61.4667 121.634 61.6253 121.443 61.5734Z" fill="#22FF32"/>
<path d="M130.288 63.9682C127.494 63.2155 126.087 62.835 123.261 62.0666C123.071 62.015 122.956 61.7709 123.006 61.5239C123.055 61.2769 123.252 61.1162 123.442 61.1675C126.268 61.9292 127.674 62.3066 130.469 63.0533C130.657 63.1035 130.77 63.3511 130.72 63.603C130.671 63.8549 130.476 64.019 130.288 63.9682Z" fill="#30B7F2"/>
<path d="M88.4442 55.7268C85.5734 54.8777 84.1403 54.4509 81.2862 53.5947C81.0938 53.537 80.9811 53.3128 81.0355 53.0961C81.0895 52.8795 81.2911 52.7487 81.4833 52.8059C84.3366 53.655 85.7689 54.0781 88.6386 54.9202C88.8316 54.9768 88.946 55.2052 88.8926 55.4272C88.8392 55.6493 88.6374 55.7839 88.4442 55.7268Z" fill="#A8AFC9"/>
<path d="M97.4834 58.3784C94.6041 57.5406 93.1642 57.1191 90.2902 56.272C90.0968 56.2149 89.9818 55.9863 90.035 55.7635C90.0882 55.5406 90.2901 55.4043 90.4835 55.4609C93.356 56.3009 94.7953 56.7189 97.673 57.5499C97.867 57.6058 97.9825 57.8385 97.9305 58.0665C97.8783 58.2945 97.6774 58.4348 97.4834 58.3784Z" fill="#22FF32"/>
<path d="M87.6928 58.8427C84.8164 57.9677 83.3809 57.528 80.5227 56.6454C80.3302 56.586 80.2169 56.362 80.2706 56.1473C80.3246 55.9327 80.5259 55.8052 80.7182 55.8642C83.5754 56.7404 85.0103 57.1769 87.8854 58.0455C88.0787 58.104 88.1937 58.3316 88.1408 58.551C88.0879 58.7704 87.8861 58.9015 87.6928 58.8427Z" fill="#A8AFC9"/>
<path d="M96.7499 61.5742C93.8645 60.7116 92.4214 60.2774 89.542 59.4048C89.3482 59.346 89.2327 59.1182 89.2854 58.898C89.3382 58.6779 89.5399 58.5452 89.7337 58.6036C92.6115 59.47 94.0539 59.901 96.9376 60.7576C97.1319 60.8153 97.2483 61.0466 97.1967 61.2714C97.1449 61.4961 96.9443 61.6323 96.7499 61.5742Z" fill="#22FF32"/>
<path d="M106.526 60.9893C103.652 60.1655 102.213 59.7505 99.3332 58.9153C99.1395 58.8591 99.0235 58.6262 99.0752 58.3975C99.1272 58.1686 99.3282 58.0266 99.5217 58.0824C102.4 58.9107 103.839 59.3224 106.711 60.1396C106.904 60.1947 107.021 60.4314 106.97 60.6653C106.919 60.8992 106.72 61.0449 106.526 60.9893Z" fill="#30B7F2"/>
<path d="M115.282 63.4834C112.427 62.6758 110.994 62.2683 108.123 61.4472C107.93 61.3918 107.813 61.1552 107.864 60.9209C107.914 60.6864 108.114 60.539 108.307 60.5939C111.177 61.4085 112.609 61.8127 115.463 62.6141C115.655 62.6681 115.771 62.9084 115.721 63.1476C115.672 63.3868 115.474 63.5377 115.282 63.4834Z" fill="#A8AFC9"/>
<path d="M124.202 65.992C121.382 65.2035 119.963 64.8052 117.114 64.0012C116.922 63.9471 116.806 63.7069 116.855 63.4671C116.905 63.2271 117.103 63.0742 117.294 63.128C120.142 63.9257 121.561 64.3212 124.381 65.1038C124.571 65.1563 124.686 65.4 124.637 65.6444C124.588 65.889 124.392 66.0451 124.202 65.992Z" fill="#22FF32"/>
<path d="M132.995 68.436C130.222 67.6694 128.824 67.2813 126.012 66.4972C125.823 66.4443 125.708 66.2012 125.757 65.9561C125.807 65.7109 126.002 65.5526 126.191 65.6051C129.003 66.3835 130.401 66.7688 133.175 67.53C133.361 67.5812 133.473 67.8277 133.424 68.0771C133.375 68.3263 133.182 68.4876 132.995 68.436Z" fill="#30B7F2"/>
<path d="M115.437 46.3474C112.595 45.666 111.171 45.323 108.321 44.6336C108.129 44.5872 108.015 44.3537 108.067 44.115C108.119 43.8761 108.319 43.7183 108.51 43.7642C111.359 44.4459 112.783 44.7851 115.623 45.4593C115.814 45.5047 115.929 45.7418 115.878 45.9862C115.826 46.2305 115.628 46.3932 115.437 46.3474Z" fill="white"/>
<path d="M124.342 48.4707C121.517 47.8007 120.101 47.4631 117.262 46.7838C117.07 46.7381 116.956 46.4999 117.007 46.2546C117.058 46.0093 117.256 45.8458 117.448 45.891C120.285 46.563 121.702 46.8969 124.525 47.5599C124.715 47.6046 124.829 47.846 124.779 48.0967C124.728 48.3473 124.532 48.5157 124.342 48.4707Z" fill="#30B7F2"/>
<path d="M133.177 50.5552C130.379 49.8982 128.974 49.5669 126.155 48.8995C125.965 48.8545 125.851 48.6119 125.901 48.3606C125.952 48.109 126.148 47.9398 126.338 47.9844C129.157 48.645 130.563 48.9729 133.36 49.6233C133.548 49.667 133.661 49.9126 133.611 50.169C133.56 50.4254 133.365 50.5993 133.177 50.5552Z" fill="white"/>
<path d="M85.6923 35.7249C82.8596 35.0486 81.4459 34.7095 78.6273 34.0302C78.4377 33.9845 78.3278 33.771 78.3834 33.5557C78.4388 33.3405 78.6394 33.2014 78.8288 33.2465C81.6471 33.9179 83.0604 34.253 85.8922 34.9215C86.0831 34.9665 86.194 35.1843 86.1391 35.4055C86.0843 35.6267 85.8831 35.7705 85.6923 35.7249Z" fill="#A8AFC9"/>
<path d="M94.8392 37.8961C91.9955 37.225 90.5744 36.8881 87.7384 36.2129C87.5478 36.1675 87.4365 35.9484 87.4912 35.7262C87.5461 35.504 87.7471 35.3589 87.9377 35.4038C90.7727 36.0713 92.193 36.4043 95.0355 37.0677C95.2267 37.1123 95.3392 37.3354 95.2852 37.5634C95.2311 37.7915 95.0304 37.9412 94.8392 37.8961Z" fill="#22FF32"/>
<path d="M77.9114 43.508C75.083 42.733 73.6738 42.3444 70.871 41.5661C70.6823 41.5137 70.5735 41.2991 70.6289 41.0893C70.6845 40.8794 70.8843 40.7499 71.073 40.8018C73.8761 41.5715 75.2851 41.9559 78.113 42.7224C78.3032 42.7741 78.4137 42.9933 78.3581 43.2095C78.3029 43.4258 78.102 43.5601 77.9114 43.508Z" fill="#F5B419"/>
<path d="M73.5058 60.6847C70.6634 59.7561 69.2501 59.2901 66.4481 58.3564C66.2593 58.2935 66.1487 58.0753 66.202 57.8713C66.2554 57.6672 66.4533 57.5514 66.6419 57.6138C69.4438 58.5431 70.857 59.0067 73.6987 59.9308C73.8898 59.993 74.003 60.2139 73.95 60.4214C73.897 60.6288 73.6969 60.7471 73.5058 60.6847Z" fill="#F5B419"/>
<path d="M87.064 45.9954C84.2129 45.2265 82.7902 44.8407 79.9557 44.0668C79.7647 44.0147 79.654 43.7942 79.7094 43.5769C79.7648 43.3597 79.9657 43.2236 80.1567 43.2751C82.9904 44.0405 84.4126 44.4223 87.2627 45.1829C87.4545 45.234 87.5667 45.459 87.5119 45.6826C87.4574 45.9065 87.256 46.0472 87.064 45.9954Z" fill="#A8AFC9"/>
<path d="M96.27 48.4611C93.4082 47.7006 91.9777 47.3184 89.1229 46.5511C88.9308 46.4996 88.8182 46.2734 88.8728 46.0488C88.9272 45.8239 89.1289 45.6818 89.3208 45.7328C92.174 46.4918 93.604 46.8699 96.4646 47.6223C96.6572 47.673 96.771 47.9035 96.7176 48.1343V48.1344C96.6641 48.3653 96.4628 48.5122 96.27 48.4611Z" fill="#22FF32"/>
<path d="M81.7457 47.7356C78.901 46.9326 77.483 46.5298 74.6614 45.7223C74.4713 45.6679 74.3612 45.4493 74.4166 45.2363C74.472 45.0234 74.6728 44.8931 74.8626 44.9469C77.6841 45.7462 79.1017 46.145 81.9455 46.9398C82.1367 46.9932 82.2485 47.2163 82.1937 47.4355C82.1386 47.6547 81.9371 47.7897 81.7457 47.7356Z" fill="#F5B419"/>
<path d="M78.837 59.3108C75.9781 58.4047 74.5546 57.9498 71.7268 57.0377C71.5363 56.9762 71.4249 56.756 71.4787 56.5482C71.5325 56.3403 71.7322 56.22 71.9226 56.2811C74.7498 57.1876 76.173 57.6397 79.031 58.5402C79.2232 58.6008 79.3371 58.8242 79.2837 59.0362C79.2304 59.2484 79.0292 59.3717 78.837 59.3108Z" fill="#F5B419"/>
<path d="M90.9434 50.3101C88.0803 49.515 86.6504 49.1157 83.8004 48.3143C83.6086 48.2604 83.4966 48.0362 83.5513 47.8161C83.6062 47.5958 83.8076 47.4591 83.9995 47.5125C86.8484 48.3059 88.2775 48.7012 91.1391 49.4883C91.332 49.5413 91.4452 49.7699 91.3913 49.9961C91.3377 50.2224 91.1361 50.3636 90.9434 50.3101Z" fill="white"/>
<path d="M100.18 52.8564C97.3116 52.0717 95.8766 51.6771 93.0111 50.8842C92.8182 50.8308 92.7043 50.6013 92.758 50.3739C92.8117 50.1467 93.0132 50.0038 93.2059 50.0565C96.0699 50.8415 97.5044 51.2322 100.372 52.0093C100.565 52.0616 100.679 52.2954 100.627 52.5287C100.575 52.7618 100.374 52.9092 100.18 52.8564Z" fill="#22FF32"/>
<path d="M67.6566 10.313C93.486 15.3483 119.316 20.3794 145.148 25.4062" stroke="#D0D2D3" stroke-width="2.3945" stroke-miterlimit="10"/>
<defs>
<linearGradient id="paint0_linear_0_4102" x1="151.977" y1="44.8306" x2="57.078" y2="48.1772" gradientUnits="userSpaceOnUse">
<stop stop-color="#505FAA"/>
<stop offset="1" stop-color="#182970"/>
</linearGradient>
<linearGradient id="paint1_linear_0_4102" x1="42.5066" y1="106.954" x2="122.506" y2="95.1111" gradientUnits="userSpaceOnUse">
<stop stop-color="#505FAA"/>
<stop offset="1" stop-color="#8F92C7"/>
</linearGradient>
<linearGradient id="paint2_linear_0_4102" x1="42.5256" y1="106.843" x2="122.525" y2="95.0001" gradientUnits="userSpaceOnUse">
<stop stop-color="#F9FCFF"/>
<stop offset="1" stop-color="#E7EDF7"/>
</linearGradient>
<linearGradient id="paint3_linear_0_4102" x1="124.574" y1="98.3659" x2="4.90733" y2="101.508" gradientUnits="userSpaceOnUse">
<stop stop-color="#F9FCFF"/>
<stop offset="1" stop-color="#E7EDF7"/>
</linearGradient>
<linearGradient id="paint4_linear_0_4102" x1="147.103" y1="57.0986" x2="40.9622" y2="71.8142" gradientUnits="userSpaceOnUse">
<stop stop-color="#505FAA"/>
<stop offset="1" stop-color="#8F92C7"/>
</linearGradient>
<linearGradient id="paint5_linear_0_4102" x1="142.541" y1="61.1675" x2="39.228" y2="75.4909" gradientUnits="userSpaceOnUse">
<stop stop-color="#505FAA"/>
<stop offset="1" stop-color="#8F92C7"/>
</linearGradient>
<linearGradient id="paint6_linear_0_4102" x1="138.402" y1="64.9952" x2="37.5925" y2="78.9717" gradientUnits="userSpaceOnUse">
<stop stop-color="#505FAA"/>
<stop offset="1" stop-color="#8F92C7"/>
</linearGradient>
<linearGradient id="paint7_linear_0_4102" x1="134.693" y1="68.6106" x2="36.0162" y2="82.2914" gradientUnits="userSpaceOnUse">
<stop stop-color="#505FAA"/>
<stop offset="1" stop-color="#8F92C7"/>
</linearGradient>
<linearGradient id="paint8_linear_0_4102" x1="131.397" y1="72.0447" x2="34.4542" y2="85.4851" gradientUnits="userSpaceOnUse">
<stop stop-color="#505FAA"/>
<stop offset="1" stop-color="#8F92C7"/>
</linearGradient>
<linearGradient id="paint9_linear_0_4102" x1="128.495" y1="75.3346" x2="32.8508" y2="88.5949" gradientUnits="userSpaceOnUse">
<stop stop-color="#505FAA"/>
<stop offset="1" stop-color="#8F92C7"/>
</linearGradient>
<linearGradient id="paint10_linear_0_4102" x1="125.959" y1="78.5101" x2="31.1296" y2="91.6574" gradientUnits="userSpaceOnUse">
<stop stop-color="#505FAA"/>
<stop offset="1" stop-color="#8F92C7"/>
</linearGradient>
<linearGradient id="paint11_linear_0_4102" x1="123.747" y1="81.6116" x2="29.2016" y2="94.7195" gradientUnits="userSpaceOnUse">
<stop stop-color="#505FAA"/>
<stop offset="1" stop-color="#8F92C7"/>
</linearGradient>
<linearGradient id="paint12_linear_0_4102" x1="121.798" y1="84.6788" x2="26.9727" y2="97.8255" gradientUnits="userSpaceOnUse">
<stop stop-color="#505FAA"/>
<stop offset="1" stop-color="#8F92C7"/>
</linearGradient>
<linearGradient id="paint13_linear_0_4102" x1="120.045" y1="87.7541" x2="24.3251" y2="101.025" gradientUnits="userSpaceOnUse">
<stop stop-color="#505FAA"/>
<stop offset="1" stop-color="#8F92C7"/>
</linearGradient>
<linearGradient id="paint14_linear_0_4102" x1="118.406" y1="90.8828" x2="21.1325" y2="104.369" gradientUnits="userSpaceOnUse">
<stop stop-color="#505FAA"/>
<stop offset="1" stop-color="#8F92C7"/>
</linearGradient>
<linearGradient id="paint15_linear_0_4102" x1="116.782" y1="94.1113" x2="17.2494" y2="107.911" gradientUnits="userSpaceOnUse">
<stop stop-color="#505FAA"/>
<stop offset="1" stop-color="#8F92C7"/>
</linearGradient>
<linearGradient id="paint16_linear_0_4102" x1="115.062" y1="97.4914" x2="12.5257" y2="111.707" gradientUnits="userSpaceOnUse">
<stop stop-color="#505FAA"/>
<stop offset="1" stop-color="#8F92C7"/>
</linearGradient>
<linearGradient id="paint17_linear_0_4102" x1="126.405" y1="63.913" x2="39.2737" y2="75.993" gradientUnits="userSpaceOnUse">
<stop stop-color="#505FAA"/>
<stop offset="1" stop-color="#8F92C7"/>
</linearGradient>
<linearGradient id="paint18_linear_0_4102" x1="135.425" y1="67.0725" x2="34.88" y2="81.0121" gradientUnits="userSpaceOnUse">
<stop stop-color="#505FAA"/>
<stop offset="1" stop-color="#8F92C7"/>
</linearGradient>
<linearGradient id="paint19_linear_0_4102" x1="132.173" y1="70.7293" x2="33.1279" y2="84.461" gradientUnits="userSpaceOnUse">
<stop stop-color="#505FAA"/>
<stop offset="1" stop-color="#8F92C7"/>
</linearGradient>
<linearGradient id="paint20_linear_0_4102" x1="129.232" y1="74.2383" x2="31.3257" y2="87.8121" gradientUnits="userSpaceOnUse">
<stop stop-color="#505FAA"/>
<stop offset="1" stop-color="#8F92C7"/>
</linearGradient>
<linearGradient id="paint21_linear_0_4102" x1="126.584" y1="77.6319" x2="29.424" y2="91.1024" gradientUnits="userSpaceOnUse">
<stop stop-color="#505FAA"/>
<stop offset="1" stop-color="#8F92C7"/>
</linearGradient>
<linearGradient id="paint22_linear_0_4102" x1="124.208" y1="80.935" x2="27.3553" y2="94.3629" gradientUnits="userSpaceOnUse">
<stop stop-color="#505FAA"/>
<stop offset="1" stop-color="#8F92C7"/>
</linearGradient>
<linearGradient id="paint23_linear_0_4102" x1="122.067" y1="84.1835" x2="25.0346" y2="97.6363" gradientUnits="userSpaceOnUse">
<stop stop-color="#505FAA"/>
<stop offset="1" stop-color="#8F92C7"/>
</linearGradient>
<linearGradient id="paint24_linear_0_4102" x1="120.107" y1="87.4111" x2="22.3774" y2="100.961" gradientUnits="userSpaceOnUse">
<stop stop-color="#505FAA"/>
<stop offset="1" stop-color="#8F92C7"/>
</linearGradient>
<linearGradient id="paint25_linear_0_4102" x1="118.265" y1="90.6554" x2="19.276" y2="104.379" gradientUnits="userSpaceOnUse">
<stop stop-color="#505FAA"/>
<stop offset="1" stop-color="#8F92C7"/>
</linearGradient>
<linearGradient id="paint26_linear_0_4102" x1="116.468" y1="93.9562" x2="15.6062" y2="107.94" gradientUnits="userSpaceOnUse">
<stop stop-color="#505FAA"/>
<stop offset="1" stop-color="#8F92C7"/>
</linearGradient>
<linearGradient id="paint27_linear_0_4102" x1="114.625" y1="97.3566" x2="11.2341" y2="111.691" gradientUnits="userSpaceOnUse">
<stop stop-color="#505FAA"/>
<stop offset="1" stop-color="#8F92C7"/>
</linearGradient>
<linearGradient id="paint28_linear_0_4102" x1="112.631" y1="100.897" x2="6.02298" y2="115.678" gradientUnits="userSpaceOnUse">
<stop stop-color="#505FAA"/>
<stop offset="1" stop-color="#8F92C7"/>
</linearGradient>
<linearGradient id="paint29_linear_0_4102" x1="138.804" y1="61.1474" x2="35.8554" y2="75.4205" gradientUnits="userSpaceOnUse">
<stop stop-color="#505FAA"/>
<stop offset="1" stop-color="#8F92C7"/>
</linearGradient>
<linearGradient id="paint30_linear_0_4102" x1="135.316" y1="65.208" x2="34.0799" y2="79.2435" gradientUnits="userSpaceOnUse">
<stop stop-color="#505FAA"/>
<stop offset="1" stop-color="#8F92C7"/>
</linearGradient>
<linearGradient id="paint31_linear_0_4102" x1="132.069" y1="69.1094" x2="32.3001" y2="82.9416" gradientUnits="userSpaceOnUse">
<stop stop-color="#505FAA"/>
<stop offset="1" stop-color="#8F92C7"/>
</linearGradient>
<linearGradient id="paint32_linear_0_4102" x1="129.08" y1="72.8681" x2="30.4921" y2="86.5365" gradientUnits="userSpaceOnUse">
<stop stop-color="#505FAA"/>
<stop offset="1" stop-color="#8F92C7"/>
</linearGradient>
<linearGradient id="paint33_linear_0_4102" x1="126.342" y1="76.5059" x2="28.6194" y2="90.0543" gradientUnits="userSpaceOnUse">
<stop stop-color="#505FAA"/>
<stop offset="1" stop-color="#8F92C7"/>
</linearGradient>
<linearGradient id="paint34_linear_0_4102" x1="123.847" y1="80.0464" x2="26.6346" y2="93.5241" gradientUnits="userSpaceOnUse">
<stop stop-color="#505FAA"/>
<stop offset="1" stop-color="#8F92C7"/>
</linearGradient>
<linearGradient id="paint35_linear_0_4102" x1="121.575" y1="83.5145" x2="24.4776" y2="96.9762" gradientUnits="userSpaceOnUse">
<stop stop-color="#505FAA"/>
<stop offset="1" stop-color="#8F92C7"/>
</linearGradient>
<linearGradient id="paint36_linear_0_4102" x1="119.497" y1="86.9348" x2="22.0727" y2="100.442" gradientUnits="userSpaceOnUse">
<stop stop-color="#505FAA"/>
<stop offset="1" stop-color="#8F92C7"/>
</linearGradient>
<linearGradient id="paint37_linear_0_4102" x1="117.564" y1="90.3432" x2="19.339" y2="103.961" gradientUnits="userSpaceOnUse">
<stop stop-color="#505FAA"/>
<stop offset="1" stop-color="#8F92C7"/>
</linearGradient>
<linearGradient id="paint38_linear_0_4102" x1="115.719" y1="93.7656" x2="16.1735" y2="107.567" gradientUnits="userSpaceOnUse">
<stop stop-color="#505FAA"/>
<stop offset="1" stop-color="#8F92C7"/>
</linearGradient>
<linearGradient id="paint39_linear_0_4102" x1="113.895" y1="97.2406" x2="12.4623" y2="111.304" gradientUnits="userSpaceOnUse">
<stop stop-color="#505FAA"/>
<stop offset="1" stop-color="#8F92C7"/>
</linearGradient>
<linearGradient id="paint40_linear_0_4102" x1="109.939" y1="102.885" x2="22.3734" y2="115.026" gradientUnits="userSpaceOnUse">
<stop stop-color="#505FAA"/>
<stop offset="1" stop-color="#8F92C7"/>
</linearGradient>
<linearGradient id="paint41_linear_0_4102" x1="135.161" y1="62.9124" x2="33.3032" y2="77.0342" gradientUnits="userSpaceOnUse">
<stop stop-color="#505FAA"/>
<stop offset="1" stop-color="#8F92C7"/>
</linearGradient>
<linearGradient id="paint42_linear_0_4102" x1="131.766" y1="67.072" x2="31.5321" y2="80.9686" gradientUnits="userSpaceOnUse">
<stop stop-color="#505FAA"/>
<stop offset="1" stop-color="#8F92C7"/>
</linearGradient>
<linearGradient id="paint43_linear_0_4102" x1="128.584" y1="71.1024" x2="29.777" y2="84.8013" gradientUnits="userSpaceOnUse">
<stop stop-color="#505FAA"/>
<stop offset="1" stop-color="#8F92C7"/>
</linearGradient>
<linearGradient id="paint44_linear_0_4102" x1="125.643" y1="75.0094" x2="28.0173" y2="88.5444" gradientUnits="userSpaceOnUse">
<stop stop-color="#505FAA"/>
<stop offset="1" stop-color="#8F92C7"/>
</linearGradient>
<linearGradient id="paint45_linear_0_4102" x1="122.944" y1="78.8123" x2="26.2242" y2="92.2217" gradientUnits="userSpaceOnUse">
<stop stop-color="#505FAA"/>
<stop offset="1" stop-color="#8F92C7"/>
</linearGradient>
<linearGradient id="paint46_linear_0_4102" x1="120.479" y1="82.5311" x2="24.358" y2="95.8576" gradientUnits="userSpaceOnUse">
<stop stop-color="#505FAA"/>
<stop offset="1" stop-color="#8F92C7"/>
</linearGradient>
<linearGradient id="paint47_linear_0_4102" x1="118.238" y1="86.184" x2="22.3617" y2="99.4765" gradientUnits="userSpaceOnUse">
<stop stop-color="#505FAA"/>
<stop offset="1" stop-color="#8F92C7"/>
</linearGradient>
<linearGradient id="paint48_linear_0_4102" x1="116.198" y1="89.7898" x2="20.1639" y2="103.104" gradientUnits="userSpaceOnUse">
<stop stop-color="#505FAA"/>
<stop offset="1" stop-color="#8F92C7"/>
</linearGradient>
<linearGradient id="paint49_linear_0_4102" x1="114.314" y1="93.3802" x2="17.6906" y2="106.776" gradientUnits="userSpaceOnUse">
<stop stop-color="#505FAA"/>
<stop offset="1" stop-color="#8F92C7"/>
</linearGradient>
<linearGradient id="paint50_linear_0_4102" x1="112.537" y1="96.9779" x2="14.8485" y2="110.522" gradientUnits="userSpaceOnUse">
<stop stop-color="#505FAA"/>
<stop offset="1" stop-color="#8F92C7"/>
</linearGradient>
<linearGradient id="paint51_linear_0_4102" x1="110.803" y1="100.61" x2="11.5255" y2="114.374" gradientUnits="userSpaceOnUse">
<stop stop-color="#505FAA"/>
<stop offset="1" stop-color="#8F92C7"/>
</linearGradient>
<linearGradient id="paint52_linear_0_4102" x1="109.035" y1="104.311" x2="7.60367" y2="118.374" gradientUnits="userSpaceOnUse">
<stop stop-color="#505FAA"/>
<stop offset="1" stop-color="#8F92C7"/>
</linearGradient>
<linearGradient id="paint53_linear_0_4102" x1="107.141" y1="108.114" x2="2.95268" y2="122.559" gradientUnits="userSpaceOnUse">
<stop stop-color="#505FAA"/>
<stop offset="1" stop-color="#8F92C7"/>
</linearGradient>
<linearGradient id="paint54_linear_0_4102" x1="132.264" y1="64.5342" x2="30.7222" y2="78.6121" gradientUnits="userSpaceOnUse">
<stop stop-color="#505FAA"/>
<stop offset="1" stop-color="#8F92C7"/>
</linearGradient>
<linearGradient id="paint55_linear_0_4102" x1="128.645" y1="68.8409" x2="28.9508" y2="82.6626" gradientUnits="userSpaceOnUse">
<stop stop-color="#505FAA"/>
<stop offset="1" stop-color="#8F92C7"/>
</linearGradient>
<linearGradient id="paint56_linear_0_4102" x1="125.258" y1="73.0357" x2="27.2597" y2="86.6224" gradientUnits="userSpaceOnUse">
<stop stop-color="#505FAA"/>
<stop offset="1" stop-color="#8F92C7"/>
</linearGradient>
<linearGradient id="paint57_linear_0_4102" x1="122.135" y1="77.1253" x2="25.6383" y2="90.5038" gradientUnits="userSpaceOnUse">
<stop stop-color="#505FAA"/>
<stop offset="1" stop-color="#8F92C7"/>
</linearGradient>
<linearGradient id="paint58_linear_0_4102" x1="101.364" y1="91.3899" x2="32.1621" y2="100.984" gradientUnits="userSpaceOnUse">
<stop stop-color="#505FAA"/>
<stop offset="1" stop-color="#8F92C7"/>
</linearGradient>
<linearGradient id="paint59_linear_0_4102" x1="108.892" y1="100.17" x2="15.1246" y2="113.17" gradientUnits="userSpaceOnUse">
<stop stop-color="#505FAA"/>
<stop offset="1" stop-color="#8F92C7"/>
</linearGradient>
<linearGradient id="paint60_linear_0_4102" x1="107.347" y1="103.933" x2="12.5993" y2="117.069" gradientUnits="userSpaceOnUse">
<stop stop-color="#505FAA"/>
<stop offset="1" stop-color="#8F92C7"/>
</linearGradient>
<linearGradient id="paint61_linear_0_4102" x1="105.842" y1="107.738" x2="9.59344" y2="121.082" gradientUnits="userSpaceOnUse">
<stop stop-color="#505FAA"/>
<stop offset="1" stop-color="#8F92C7"/>
</linearGradient>
<linearGradient id="paint62_linear_0_4102" x1="104.293" y1="111.61" x2="5.97968" y2="125.241" gradientUnits="userSpaceOnUse">
<stop stop-color="#505FAA"/>
<stop offset="1" stop-color="#8F92C7"/>
</linearGradient>
</defs>
</svg>
