<svg width="14" height="14" viewBox="0 0 14 14" fill="none" xmlns="http://www.w3.org/2000/svg">
<path fill-rule="evenodd" clip-rule="evenodd" d="M3.06252 1.75C3.06252 1.50838 3.25839 1.3125 3.50002 1.3125H10.5C10.7416 1.3125 10.9375 1.50838 10.9375 1.75C10.9375 1.99162 10.7416 2.1875 10.5 2.1875H7.58756C7.64923 2.24625 7.70826 2.3074 7.76461 2.37079C8.23033 2.8947 8.49812 3.55392 8.57843 4.22917H10.5C10.7416 4.22917 10.9375 4.42504 10.9375 4.66667C10.9375 4.90829 10.7416 5.10417 10.5 5.10417H8.57843C8.49812 5.77941 8.23033 6.43863 7.76461 6.96254C7.19139 7.60739 6.341 8.02083 5.25002 8.02083H4.60321L8.7582 11.9314C8.93415 12.097 8.94254 12.3739 8.77694 12.5498C8.61134 12.7258 8.33445 12.7342 8.1585 12.5686L3.20017 7.90192C3.06955 7.77899 3.02721 7.58879 3.09333 7.42205C3.15945 7.25532 3.32065 7.14583 3.50002 7.14583H5.25002C6.10358 7.14583 6.71159 6.83011 7.11064 6.38121C7.42281 6.03004 7.62057 5.58161 7.6954 5.10417H3.50002C3.25839 5.10417 3.06252 4.90829 3.06252 4.66667C3.06252 4.42504 3.25839 4.22917 3.50002 4.22917H7.6954C7.62057 3.75173 7.42281 3.3033 7.11064 2.95213C6.71159 2.50322 6.10358 2.1875 5.25002 2.1875H3.50002C3.25839 2.1875 3.06252 1.99162 3.06252 1.75Z" fill="#5F5F5F"/>
</svg>
