<svg width="63" height="132" viewBox="0 0 63 132" fill="none" xmlns="http://www.w3.org/2000/svg">
<path d="M60.0649 128.365L53.295 131.577C54.6715 130.924 55.5249 129.536 55.5321 127.563L62.3016 124.351C62.2944 126.323 61.441 127.712 60.0649 128.365Z" fill="#2C353B"/>
<path d="M2.56533 3.63528L9.33483 0.422698C10.7289 -0.238769 12.6592 -0.146075 14.7882 0.858004L8.01872 4.0703C5.88974 3.06622 3.95975 2.97352 2.56533 3.63528Z" fill="#5D7280"/>
<path d="M55.8599 33.8326L62.6298 30.6203L62.3015 124.351L55.532 127.564L55.8599 33.8326Z" fill="#2C353B"/>
<path d="M8.01924 4.0703L14.7884 0.85801L54.9898 19.8132L48.2203 23.0255L8.01924 4.0703Z" fill="#5D7280"/>
<path d="M48.2203 23.0252C52.4513 25.0204 55.8741 29.8622 55.8601 33.8324L55.5318 127.563C55.5178 131.534 52.0727 133.137 47.8413 131.142L7.63989 112.187C3.40886 110.192 -0.013966 105.35 4.28482e-05 101.379L0.328348 7.64891C0.342357 3.67835 3.78746 2.07499 8.01885 4.06995L48.2203 23.0252Z" fill="#3B4951"/>
<path d="M48.22 23.026L54.9895 19.8137C59.2205 21.8087 62.6433 26.6505 62.6297 30.621L55.8598 33.8333C55.8738 29.8628 52.451 25.0213 48.22 23.026Z" fill="#5D7280"/>
<path d="M52.3498 35.9824L52.3469 122.259C52.3469 126.169 48.9819 127.746 44.8443 125.795L11.0122 109.843C6.86521 107.888 3.50992 103.142 3.50992 99.2318L3.51279 12.9554C3.51279 12.3444 3.59864 11.7824 3.7513 11.2881C4.5904 8.63639 7.51681 7.7693 11.0154 9.41871L44.8475 25.3708C48.3368 27.0158 51.2725 30.6475 52.1113 34.0904C52.2639 34.7284 52.3498 35.3711 52.3498 35.9824Z" fill="white"/>
<path d="M52.1117 34.0904L3.75142 11.2881C4.59051 8.63639 7.51692 7.7693 11.0155 9.41871L44.8476 25.3708C48.3369 27.0161 51.273 30.6475 52.1117 34.0904Z" fill="#D7DAFF"/>
<path d="M39.6813 22.935L39.6809 25.3891C39.6809 26.9622 38.3368 27.5955 36.6686 26.8091L19.1852 18.5658C17.5268 17.7838 16.173 15.878 16.173 14.3049L16.1733 11.8511L39.6813 22.935Z" fill="#3B4951"/>
<path d="M33.626 23.0738L22.2292 17.7V15.8948L33.626 21.2686V23.0738Z" fill="#2C353B"/>
<path d="M18.563 26.0263L6.77792 20.4694L6.77828 17.2319L18.563 22.7885V26.0263Z" fill="#6159FF"/>
<path d="M49.1382 37.3774L41.4631 33.7585V32.5042L49.1382 36.1228V37.3774Z" fill="#888ABF"/>
<path d="M49.1381 39.4507L41.463 35.8319V34.5776L49.1381 38.1965V39.4507Z" fill="#888ABF"/>
<path d="M49.1377 41.5221L41.463 37.9033V36.649L49.1377 40.2679V41.5221Z" fill="#888ABF"/>
<path d="M52.3489 76.4728L3.51189 53.4462L3.51297 24.6555L52.3496 47.6828L52.3489 76.4728Z" fill="#D7DAFF"/>
<path d="M47.5238 57.4401L8.3382 38.9639L8.33856 34.0828L47.5238 52.559V57.4401Z" fill="#3B4951"/>
<path d="M32.6479 60.0334L8.33788 48.5711V43.6898L32.6483 55.1521L32.6479 60.0334Z" fill="#3B4951"/>
<path d="M44.5798 97.8158L11.2796 82.1146L11.28 63.1943L44.5801 78.8952L44.5798 97.8158Z" fill="#ED484F"/>
<path d="M38.6132 102.9L17.2458 92.8247V88.7333L38.6136 98.8084L38.6132 102.9Z" fill="#888ABF"/>
<path d="M44.5783 111.8L44.578 125.67L11.2796 109.97L11.28 96.1L44.5783 111.8Z" fill="#F6D13A"/>
<path d="M48.4142 67.9404V65.8125L47.1872 65.2338C47.0963 64.8862 46.9695 64.5362 46.8082 64.1898L47.6753 63.7809L46.0794 61.5237L45.2123 61.9323C44.9256 61.6448 44.6182 61.3802 44.2945 61.1421V59.9852L42.0377 58.9212L42.0373 60.0778C41.714 60.011 41.4066 59.9854 41.1196 60.003L40.2528 58.7766L38.6569 59.529L39.524 60.7552C39.3623 60.9493 39.2352 61.1796 39.1447 61.4418L37.9176 60.8634V62.9915L39.1447 63.57C39.2352 63.9176 39.3623 64.2678 39.5236 64.6142L38.6569 65.0229L40.2528 67.2801L41.1196 66.8714C41.4062 67.1589 41.714 67.4238 42.0373 67.6617L42.0369 68.8186L44.2938 69.8825V68.7256C44.6171 68.7925 44.9249 68.818 45.2116 68.8007L46.0787 70.0268L47.6746 69.2744L46.8075 68.048C46.9688 67.8541 47.0959 67.6238 47.1868 67.3616L48.4142 67.9404ZM43.1659 66.1276C42.1544 65.6506 41.3358 64.4925 41.3358 63.5392C41.3358 62.5856 42.1544 62.1995 43.1659 62.6765C44.1774 63.1534 44.996 64.3112 44.9957 65.2649C44.9957 66.2182 44.1771 66.6042 43.1659 66.1276Z" fill="#888ABF"/>
<path opacity="0.5" d="M52.3501 40.7378L52.349 69.6285L3.51058 92.6519L3.51165 63.7615L52.3501 40.7378Z" fill="white"/>
</svg>
