<svg width="16" height="16" viewBox="0 0 16 16" fill="none" xmlns="http://www.w3.org/2000/svg">
<g clip-path="url(#clip0_0_3618)">
<path d="M0.666626 0.666992L3.33329 0.666992L5.11996 9.59366C5.18092 9.90059 5.3479 10.1763 5.59166 10.3725C5.83541 10.5688 6.14042 10.673 6.45329 10.667H12.9333C13.2462 10.673 13.5512 10.5688 13.7949 10.3725C14.0387 10.1763 14.2057 9.90059 14.2666 9.59366L15.3333 4.00033L3.99996 4.00033M6.66663 14.0003C6.66663 14.3685 6.36815 14.667 5.99996 14.667C5.63177 14.667 5.33329 14.3685 5.33329 14.0003C5.33329 13.6321 5.63177 13.3337 5.99996 13.3337C6.36815 13.3337 6.66663 13.6321 6.66663 14.0003ZM14 14.0003C14 14.3685 13.7015 14.667 13.3333 14.667C12.9651 14.667 12.6666 14.3685 12.6666 14.0003C12.6666 13.6321 12.9651 13.3337 13.3333 13.3337C13.7015 13.3337 14 13.6321 14 14.0003Z" stroke="#1E1E1E" stroke-width="1.5" stroke-linecap="round" stroke-linejoin="round"/>
</g>
<defs>
<clipPath id="clip0_0_3618">
<rect width="16" height="16" fill="white"/>
</clipPath>
</defs>
</svg>
